<mxfile host="app.diagrams.net" agent="Mozilla/5.0 (Macintosh; Intel Mac OS X 10_15_7) AppleWebKit/537.36 (KHTML, like Gecko) Chrome/135.0.0.0 Safari/537.36" version="26.2.8">
  <diagram name="Page-1" id="iiDrXborbr6QAdBr83nl">
    <mxGraphModel grid="1" page="1" gridSize="10" guides="1" tooltips="1" connect="1" arrows="1" fold="1" pageScale="1" pageWidth="1100" pageHeight="850" math="0" shadow="0">
      <root>
        <mxCell id="0" />
        <mxCell id="1" parent="0" />
        <mxCell id="9YNmxNu1mqhPtrFuAmMJ-42" value="" style="ellipse;whiteSpace=wrap;html=1;fillColor=#b1ddf0;strokeColor=#10739e;" vertex="1" parent="1">
          <mxGeometry x="122.63" y="70" width="195" height="200" as="geometry" />
        </mxCell>
        <mxCell id="9YNmxNu1mqhPtrFuAmMJ-8" value="" style="rounded=1;whiteSpace=wrap;html=1;fillColor=#e6d0de;strokeColor=#996185;gradientColor=#d5739d;" vertex="1" parent="1">
          <mxGeometry x="780" y="80" width="220" height="600" as="geometry" />
        </mxCell>
        <mxCell id="9YNmxNu1mqhPtrFuAmMJ-16" value="" style="rounded=1;whiteSpace=wrap;html=1;" vertex="1" parent="1">
          <mxGeometry x="100.56" y="377" width="280" height="209.68" as="geometry" />
        </mxCell>
        <mxCell id="9YNmxNu1mqhPtrFuAmMJ-3" value="" style="shape=image;verticalLabelPosition=bottom;labelBackgroundColor=default;verticalAlign=top;aspect=fixed;imageAspect=0;image=data:image/png,iVBORw0KGgoAAAANSUhEUgAAAgAAAAIACAYAAAD0eNT6AAAAAXNSR0IArs4c6QAAIABJREFUeF7tncuW1biyRW2+CwZU9977OdCGbBefQ9EtGMV34TvkTCfOnd62pBV6z+zUOWxZlmaEIpYetuepwr//+/u/D1uzfk/T+r/neX6//dvy9G8VNt2vScvy4Ap+//Tui98F9qU2xss8f3a1N8/UHhE1QgACEPAmME/TjzWWLsvP7aI3T//27dO79bfa/uZaGuQSkktGwyWiZXnILQQc69/z/G8ttqcdEIAABIYgUMHkb8+5qAAYNunfenpGEfA/f//3ZXqa9Q8x4OgkBCAAgRoJVCAGsgsAkv6xJ75Zlr9SLxMx868xCtAmCEBgdAJu+8BtHeReDc4mAEg+5y7uHOCfj2//SjkQmP2npEvdEIAABAwIZFwRTi4AmPH7O0TqVYD/+fpr8W8NJSEAAQhAoBiBDEIgmQAg8Ye7TUoBwApMuD24AgIQgEBRAonPCZgLABJ/vLsgAOLZcSUEIACBbgkkWg0wFQDsMWvuhwDQ+HE1BCAAga4JGAsBMwFA8tfd7vvHt2b2uG0NWwC6fagBAhCAQHEChiLAJOH879df/w73Ah9rLzA06r2mYSdro1EfBCAAgQIEjPKFJADY77czfMrl/62VrALY2YuaIAABCJQkYPHoeLQAIJkYmt5Izfm0iK0aH0qUgQAEINAGAWXyGCUASCJ2jqEYL7YV2C+WHNdBAAIQqJBA5CQyWAAw89eMv30xan56vjP163/PWrsKAffHtwE0o3I1BCAAgcIEYiaTwQIg59vktvcjO67bZxXd/y6ZNAvbmNtDAAIQgECFBLZPrG+fsH+cW83vcx6QDxUBQQIgxylyl/RrmB1X6F80CQIQgAAEGiSQa7U19GCgtwBIuW+8JX1m9g16Nk2GAAQgAAFvAqnFQIgI8BIAqZI/id/bZygIAQhAAAIdEUiVV1dEnocCLwVAqkaG7lV0ZHe6AgEIQAACEFgJpMqxPiLgWgBYf0LWU5ngGxCAAAQgAIFRCKQQAlcT7VMBYN4gkv8ovkw/IQABCEAgkIB1zr06D3BXAFg35EqJBHKiOAQgAAEIQKA7Ajlzb3IBwEG/7vyTDkEAAhCAQGICVo/dn60CHAoAKwVytfyQmB/VQwACEIAABJolYCUC7q3AHwsAo4N/Kb9v36xFaTgEIAABCEDAg4DVq/fvTcZfCQCr2b/PIwge/acIBCAAAQhAYFgCViLgaBXgtQCwmP1z2n9YZ6XjEIAABCBgS8BqYn67Kv9CAJjchORva3lqgwAEIACB4QlY5OfbVYAXAsDiwAH7/sP7KQAgAAEIQCABAfVrvLdnAV6uAKjL/8z+E5icKiEAAQhAAALTZHEeYD9JfxYAFssLzP5xUQhAAAIQgEA6AupK/X4bwE4AMPtPZ3FqhgAEIAABCEz6KsB+G+CPAFCW/0n+OCYEIAABCEAgCwF1FWBbrV8FgLz8jwDIYnRuAgEIQAACEFDPAmzbACYCgL1/HBICEIAABCCQj4DyRMC2DfAoAFj+z2c17gQBCEAAAhAQCVhsAyAARCNwOQQgAAEIQCA3AYttgFmthOX/3GbnfhCAAAQgMDoBNXe7cwCSAOBzv6O7IP2HAAQgAIFSBJRtgFUASE8AcPq/lN25LwQgAAEIDE5Azd8IgMEdiO5DAAIQgECbBBAAbdqNVkMAAhCAAAQkAso5ALeFP6t7CN8+vfsh9YCLIQABCEAAAhAIJoAACEbGBRCAAAQgAIH2CcgCQHkJEI8Atu9A9AACEIAABNoloOTwWbkYAdCu09ByCEAAAhBon4CSwxEA7dufHkAAAhCAwKAEEACDGp5uQwACEIDA2AQQAAPZ3x36WOb581GXl2X5+f3Tuy8D4aCrgQTu+Y/zHVcV/hMIdKDixJ46jY0AqNMu5q3yfukDb2g0Z996hVvwXqbpw2Vf8J9LRKMV8H5cHN/J7hoIgOzI894w9lEP965n3tOQ11Y13s1bOO4bTyCv0ZTZ20TsyY48+IYIgGBkbV3grb5vusXHmtqyc4rWRiX/rSGIgBQmaarO2ORC7Mln5lgbuRbyFEA+O0XdSQrgzsDT9OOfj2//iro5FzVNIHb2tu80q0hNu4DUeGKPhC/bxQiAbKjz3kgdgM+tZSaX13CV3E0JDIiASoxYqBnEnkLgI26rjHNWACKA57pEMextG5nJ5bJaHfcxC+CsItVh0MytsIw9vDAurfEUWyEA0tomunbLAL7u9bAVEG2LFi9UgsJRfxGQLXpBXJutY8/ECmScITyvUsY6AsATcu5iilHvtZUgntuKZe5nHsARkGUMWeiuKWIPqwDpjKnYCwGQzi7RNacI4KwCRJujuQuVgHDWWYJ4c64Q3OBUsYdVgGBTeF+gjHcEgDfmfAUVg161klWAK0Jt/54sgDssLOW27RwerU8ZexCQHgaIKKLYDAEQATzlJUkDOEu5KU1XRd1KMPDpAEHch1KbZVLHHgRkGr9QxjwCII1NomtVjOl7U4K4L6m2yiUP4KwCtOUQga0l9gQCq6S4YjcEQCVGdM3IEsAJ4hVZ3LYpSiAIaQkCMoRWG2WJPW3Y6aiVyrhHAFRkd8WQod0giIcSq7t8tgCOgKzbESJbR+yJBFfBZYrtEAAVGDDr7H/rLwe6KrG8TTOUIBDTAgRkDLU6r8kqHhGQ5k6gjH0EgLk54ipUjBh3x2kiiMeSq+u67AGcIF6XA4itIfaIAAtfrtgPAVDYeEVm/6wCVGB1uyYoAUBpBQJSoVfHtUXEIwLS1PjK+EcAmJoirjLFgHF3/HMVQVwlWPb6YgGcIF7W8EZ3J/YYgSxYjWJDBEBBwxWd/bMKUNjyNrdXBr9FCxCQFhTL1FFUPCIgzYyuxAAEgJkZ4ipSjBd3x9dXEcStSOatp3gAJ4jnNbjx3Yg9xkALVafYEQFQyGhWs3/3lb9lmj5I3eCJAAlfqYuVgb+2eVke5nl+r/oPArKUB8Tf10I8Envi+VteqcQBBIClJQLrUgy3BfDvn959+d+vv/4liAfCb7y4RQB3AuDNNP34Pc//SjgQkBK+EhcTe0pQT3NPxZYIgDQ2uazVKoA7AfB/f//3gSB+ibyrAsqg34tH978RkF25xmVniD2XiJoqoMQCBEAhUytGuw3gBPFCRix0W8sA7rqAgCxkyEK3JfYUAp/otoo9EQCJjHJWrXUAJ4gXMGLBWyoD/kg8IiALGjPzrWuNPXymPN4RlHiAAIjnHn2lYrB7AZwgHm2Opi5MEcARkE25gNTYWmOPO1D4z8e3f0mdG/RixaYIgMxOkyqAE8QzG7LQ7ZTBfiYeEZCFDJrxtrXHHlYB4pxBiQkIgDjm0VcpxnI3vVLKHOiKNk31F6YM4FYCkiBerxupscc9NeIOHd/roRp7rmJbvWTLtkyxKwIgo+1SB3CrIH410DMi41Y7AspAv5r9b7chiPfpcq3EHgRkuP8pcQEBEM47+grFUNtNfV66ogZxdy+f+0SD4MJgAjkCuJWAJIgHmzf5BXLs8XzXgxp7WAUIdwXFtgiAcN7BV6yPWbm39c3z5+CL9xd4DkKrx7rcS2K+fXr3Q2ozF8sELOwZElgtgvi8LA/4jmx6uQJij4yw+goQABWYyA001wyX6N3rVbcmqW/o23ctZFauBvFbpOtrP5flp/t3Jwzcfwnwdo535D+WvhOyrWMhOPZk9r6z+Q++k9Z3XO1m/uM58dh6lDr24DsvfQcBYDeWTmvagvRtojcbaGd3DxyE1kH8XtNccF+DzU4cMECPaSVP8if+EyIeXTXWQfzMfzbfQRzcNyCx5zUbYs8jEwSAsQAoGajvdSU0gOcM4oiDPwRq9J2Q2f/Wk1wC8mzojrZyUDTJ3zFEyNbRvopcApLYgwCISv9VBup7PQmc/dcUxHuc+eXY7oly6jsXxYjHGgSkrzhobUuK2GPp3eF19SYsWQHw9AE38JZ5/pxlyd6zTT7FYgN47UH8sO/L8uD+/ex5Yx9mKco06T+R4tHxq2EVINiOQn+D7xVwQZO+Iz4NVHoVIMA8j0Urjj1nfUEAXFjaPUJl8d3zYIeyuEAMaE0G8Y2b2HcL/E2KqF3HFfHYdN8r8R1ij/ipaatBHFpPJf7j02wEwAklk+enfayQqIwawJsO4k+qvNRqQNPiyYhd6wxKvpOA2JPvMGmS8NuICEAA3LF+6wMw5vDWEYrWg7gVh5Ag0Twzcfl2z6q5pdwbQ5cQAcSeRyM0P44aEAEIgIPI3voAjD19ey/JEcRD0n/jMxej2f9GrPUgbj2WrjyJ2POSELHnymO03xEAB/xwupdQCOL+g6z1AJ5ixaR1JjlXAVqPPRbbjvvRRuzxjz0xJREARysAX38tMTCruCbRslPrAzFXEG862SXyndbPkuRcBVACcun4k2qMEXvSWVbxty6/BUAAv+9sLbNJFZxuaSkDKt0wv645R5JreXZrPbM9skjL4yvFytGeUctscsWe61H+uoQSrxAAMcQTXOOCd64PqLT6aFKOBNdqkMrBZnP7VhnlCOItCiRiz3VAzzm+rlvzsgQC4IaYAiQUvlo+5+C7bavZl8JUCAHXp57FtZTcSvqOM1lLrFYXS7g98iyOGtp6LOk/q++4P/ULqQGxQy2aOvbEtk/Jd32uAFQ4CPcfrqjx1aXPYmAdk49fM6zxjYmpB2GtSa1m/9n7zmNMn9/X6DujCoCafcf5y23sqdJ3DB+rjU30965DANyQKbUMtw20x8nG8rPGRB/jfLUM0BzLcCUPK9UeqFXfKS0Oet4C6DH27L+ZUNp3csSemPG1rsQJE94+VwDc8lKipaUeB1qs42UfoBmWcNUBdcWyxyR/1ed7v+deOUi9euT6mXLyQez540m9xp6YsYQAuKFmPYsruVcW4xA1XJPk4yeZBIB5EF+WB7ca9O3Tux812KaFNqTYiskhAIg95b2r5dgTQw8BcEAtRRAv9U76GKcofY15AM+U/J/3JGfbj5jkWH4ubXOr+1sn0bVdGf2H2GPlCXH1tBx7YnqMADig1noQiXGEWq4xH4AFDuCk6AMi4NpDexi3PfTh2lJ1ljAXXwViTyhZBMAdYimCeM2HQUIdJ0X5FMxzzt72TFIEk1J9SWFr6zqT+E6hAJ6kLxlXMaxtm6O+UccrAuDEu1IMRETAMfDeBmCSmVzm5egcgdfiHinGqWtXyVWXJH1CBBy6W2+xJ2RMIQAuaKUYiIiAl9B7HYCIgJBQFFc2xfgsnfw3Ein6RuwZI/b4jiYEgAcpBqIHpMgivSb/DQciINIxPC5LMS5rSf6IAA8HEIv0Hnt88CAAfCglenXp6Gp8lAGICPAcZAHFRkj+iIAAhwgsOkrsucKCALgitPs9RdAZVQSMNgARAQEDrcC2XG0z/1sExB47/xkt9pyRQwAE+hUDMRDYQfFRByAiQPedFOOv9uTPSoDuN1sNo8aeewQRABG+lSIIjbISMPoARAREDLinS1KMu1aSPyIg3m9I/vfZIQAi/SpFMOpdBIye/DdXQwSED7oU46215I8ICPcbkv85MwRAvE8l+6Z5yeePBRynl5L8X+JJ8s5xd4sOn/VOkfxb/0ZHKib/fHz7V6oYUKJexhkCIKnfpRiIrc5MjkAzAM/dD2F0EaASfJ2zl5W2FLGnFzbOq1hpu059rABcM7oskWIg9iACGICXrrMWQAQcc0oxrnpKcI5aCkbEnpNx29kKGwLAL0ZflmIgvkakONdd4J0NQPYoSf6XweWiALGH2BPrQ0qMnpWLc3xfOxZK7HUpBmKrM5YULHrc3977WoqVgBbPk6TwnVbHkW8sgtkfUilY9Bp7lByOADgYnSmcr7UgnoJBrwPw1oWsRUCLiQ8Gvmn/ZbkU447Y0+fB2s1zEABxY+30qhQDsaUVE8WpDsF2uux/z4msE2BL4sl67LQogJSQNDo/Yk+Y9yi8WAE4YW09EFsJ4qP2O2zYXZe2FgGtzOSUgHRLdbTk/zyrs35yohEBTuy5jiu3JZTxhgDIeDinlWBmmrgaCTzhw87vCkuWLQgAy6dGWhkvfp4QXsoyGbbC0nK8tDLhCveMm22jr7+W2DoQAB7krAbicINw8OS/uZZVUGtBAIw2VjzCh1RkNJ7KbHYPuoWxIjnG7mKFGQLA0wpWM5sWzgEoDvWMk+T/wrNMAnkDTEfpp2fYMClmwnSaplFiz0jJ3zmYEq8RAAFD1EIEjDAIRxuAvi4kB/IRBEADffS1t2U5Yo8fzRFjDwLAzzdMSqkDsXsBQAA/9TNpO6ABtorIaWWLzCSQRFRC7DmHNmLyZwUgYiAplzAIGYSK/yAA7tNDAJx7FrGH2HNEgBUAJSIHXjvCDKf3JBVoctPiymBtYYYzQpIydYiAyog9CAAEQMCASVFUGYStPJaiCABmcedepwiAFraP1CXJFkROirjiUyex55zSqLFHiSkcAvQZebsySnJsRQAos7hRB6GPGylcXf0IAB/K/ZYZIfYoImfU2IMAyDjmFditzG5GSVQZ3Wa91SjBbYREldt3RllZIfaEe5aSk1gBCOStwG5lBjdKsAk0vVxcEQCtrB45SIoAGHUWd+VcIyVGJca2Msm6snfI7wovBEAA6ZEGoRLERxyEPm6kMG1JACjjBAFw7EmSeGxo+4jJh08keVkGARDOLOoKZRC2FthGSVZRjhB5kTJQWxJVigBo6axDpBtEXUbs8cTWwLsyPHviXUyJK6wAeGPW9nBbmsGNtF8dYH6p6GhJUQlKLYkdySkCLlYEQGuxR5l8tDbRCnCBu0WVsYYACLCA4pipBqFLLN8+vfsR0A2vokrCGnEQXkGVAnhjS7gs4155Q/jvxB4/ZiPGHgSAn2/IpRTQVrMal5hdR5Z5/rxM0/q/179leXD/eTNNPywEgSIAWMZ97WqKALAMas6uzndWl3nyH1f/siw/V7t9evdFHijiQcBUYtmiX6XqIPb4k2/psLV/r+6XVHyDFYAACyigVafcAveLpH/WdoO9MKW/VoInwDxVF1UEgJoQi/jO3/99mZ6ERqhhLAVP6L1rLF9ajBfxH+Eb96PFHiVOIwA8R7wUwIUl3ODBd9sfQQgoy46jDcIrN1JYKgJA8lvBd5SkhQB46U2SDUvFnqcVydgVJSWpjRZ7FFYIgKvI/fS7MghjApqc+Pf9ihyMpZKWp0maKqYM0piApvjrK7ARQkARAGwh2QkAYk9TYSKqsUpsQQB4IpcCakAANU38B6sBIfu8Sp9jAo+nKZorljMZKja7BBvgx64uJTDFiJ7L9jdaIJcQTx17QlYDFD8eLfYo4wwB4BkUUg/CpIMvcltASVyjDcIzN1KCme9suEb/UcYMAuCPRykB3mf7qEbfIfZ4JiZRaCMAPDkrg/AsmGUdfIFCQBmEvonLE3/TxRQBcCWkavYfRQD4JK6mnSKg8cSeAFhPRdVD1+F3LHeF4h8IAA+7pUqESmLwaLZ/kZOlXcW5mMU9miBFIiya+HeetT1CeLS8q/j3lfDxd+62SxJ74uw3UuxRYjQCwMO/lEB2NBNW6/NoclyRAyGgJK+RBuHpFoDwSNPtTLiWxP+qvwcHTZXkhQB4JKzEiiOGSn1xQcXzKmKPJ6jXxRAA0ej8LlQGzX4QKvX4tdSo1G4wKgKAZdynIC4IgE1EVZv4b11uJwQUAXAknI28u6lqpJixG8dSPTmJEXuCaSMAgpGFXaAmQfd2vldv7gtrQpnST8GcF7rE41eToBMArfqO2xZQghMrSPr2EbEnfuy2cqUyxtgC8LCyAtij+q6LjHQY58iQzcy8KvRCBID2KGWFJs3WpJG2kJT8hADwcEkFsEf1XRdBAMS/Erdrx/DpXOB7B3yqbK0MsSfeYqPEHsVHEAAX/qUu4ca7bx9Xjj6Lk7aP+nCB6F6MNIs7gkTsiXad9cJRYg8CQPOT06tZwtXgjjII71FSBqdGvv2rRxcAxB7Nh0eJPUqMYQXgwsdqH4Trc9j7zwJrY8b86uGDuPAEgLkxbip8/gxw5Ff7UrfP1T/KMu4RS2KP6GGDbCEhAEQ/Obu82iXcG+euNViMLABqXcJ1NpmX5eHbp3c/nO+vvuP+KhQCo8zijmIQsUcL7KPEHgSA5ifnWwC1zeAuVG2NQmDUWVxttrhN/LeO79o7z/P7mlaURhYASmBPEhIbiz0IgGsvYAvgagugEgFwFbyPgnktMzoEwPVATFmiZd8Z+WVStQiAlv1nhNij+AkCoHIBEDr4ahQCIwzCGvdwe/AdBEBKaXhedw/+M0LsQQAkHCMKXKVZ6uCrSQiMMAirEwCGB6CKbmUY9kMZjyWu7SH2lD5fMkLsUfyEFYCLkZ37II514t93r9RgHGEQHrlRkUOACRNmCSEw8hkAYo8muzgDcM0PAVCJAEiZ+A9XAzKd+h5lEBYXAAkTf8nVJATA9OE6jGslcseeXAdNR4k9rABo/n96depZXM7BVySQZ0xMCd0guurUs7je/WfU1SPncMSe6GH3eOEgsQcBIPrJ1eUpgnjJwJ1TCIwcwFMG8SH8Z5AAfhZ/lOB+r94hfGegl0gpPsIWwFX2316UYvmSlEoDm/keb6X99DC5aRFlgN42pKbgnVpIji4eHd9RxuQo/TQNLE+VKfEFAeBpERMHbSQhjtRXT/NLxSyWcmtO/Hs4ZgdNGxkrkmN4XjzSeBypr57mvyyGALhEZFMg2jkbDWaj9dfGS+7XErOV1EriP1wNcP8YuHLWan9T+85oY3G0/ir+gwBQ6AVeGzKb6yWY+Q7GXvob6BJBxUdj6dvfFWKjQjnIAYTCobHnn49v/xJuV8Wlvv4zcuxBABRw1aP3pjsnXCc9uw+tFGhasltuy7u3j/GMPPhiYF9xdHVuH+qJqb/Ga9bktX21crcq0PuYSWGLkWPPfkUJ33n0LgRAilFGnRCAAAQgAIHKCSAAKjcQzYMABCAAAQikIIAASEGVOiEAAQhAAAKVE0AAVG4gmgcBCEAAAhBIQUASADGPJm2dGPk93SkMSZ0QgAAEIAABXwIhT4bc1rke3kYA+KKmHAQgAAEIQKAeAgiAemxBSyAAAQhAAALZCPi+J+GwQcvyMKsVfP/07ku23nIjCEAAAhCAAARWAmr+RgDgSBCAAAQgAIEGCcgCQN1D6OF1kw3anSZDAAIQgMDgBNQzfLMiABx7Ptk5uAfSfQhAAAIQKEJAeQTQPcUnCwAeBSxid24KAQhAAAIDE5CW/58m7/N6kODrryWWo3uWkG2AWHpcBwEIQAACEAgnYCYAlH0EtgHCDccVEIAABCAAAYWAMnHfPr29rgCo5wDYBlDMyLUQgAAEIAABfwLq7P+FAGAbwB88JSEAAQhAAAIlCagCYDu8v64AuD91G4BVgJLuwL0hAAEIQGAEAmry32b/jtWzAFC3ATgMOILr0UcIQAACEChJQJ2sJxEADgirACXdgntDAAIQgEDPBOTZ/827e55XACy2AVgF6Nn16BsEIAABCJQkIJ38f1zyf/HY/gsBoG4DrGCW5YEPBJV0Ee4NAQhAAAK9EbCY/d/m5xcCwAFTFQYioDe3oz8QgAAEIFCSgEnyP3h1/2sB8Pd/X6Z5/qx2lvMAKkGuhwAEIACB0QmYrMzfWZ1/JQBcOfmU4cFew+hGpP8QgAAEIACBUAImq/J3Ptx3KACsFAeHAkNNTXkIQAACEIDAIwGLyfha0Z2zeYcCwPLGiABcGQIQgAAEIBBGwCz535n9u9bcFQBWqwBblzkTEGZ8SkMAAhCAwHgEXO5d5vnzMk0fTHp/8mTeXQFguQrw3AkeETSxJ5VAAAIQgEB/BKwn3leP5Z8KAPPGnOxF9GdKegQBCEAAAhDwI2D1qN+Lu11Muk8FgKsoSaMQAn4eQSkIQAACEOiagPmS/0bLY8X9UgCkFgGuft4c2LV/0zkIQAACELghkCzxB0ywvQSAq8/yROIrT1iWhzfT9OPbp3c/8BIIQAACEIBArwSSJv7Ad/B4C4DkImC3bMGqQK+uT78gAAEIjEdgS/rr5NzqdP8djN8/vvXO694F3b2SHAo884Vledh+disE7n+zSjDe4KHHEIAABFog4HLk1s7f0/Rhnuf3qRP+nkvo4/ZBAqCICKjM6u7FRsuy/GSV4rVhVoFYwOkrcxGaAwEIQCA/AY9Df7eNChYAroJkTwbkRybfMVRxyTessILUe1oVdpkmQQACEKiHQETyd42PEgCIgBu7R8Kvx3viW5J9Wyi+qVwJAQhAoD8CQv6JFgCOIsH/jy+NuBLASlB/sYQeQQAC7RBQ844kADZMSR8RbMcWk2qMhrq6NtXqM5Wt9Zv2QgACEChJwOojeyYCgC2BR1ewMkpJx/K9N6LPlxTlIAABCBgSEJb8b1thJgAQAU9oDY1j6DKmVbH0b4qTyiAAAQj4ETDOL6YC4FkErNPh+bNfj/or1fNWAMm/P3+lRxCAQN0E3OryvCwP1u/BMRcAG8bRE0WvIoB9/7oDBa2DAAT6IZAq8W+EkgmA0YVAj+cB2PfvJ7DQEwhAoHICxsv9R71NLgCGFgIZDJjLhUdf0cnFmftAAAKDE8iYN7IJgFGFQA9bAST/wQMS3YcABJIScCvG7gb/fHz7V9Ib3VSeXQBs9x/pvfGtiwD2/XMOSe4FAQiMQGD7roz70J314T5ffsUEwG0D11mm++vw6YGWzwMw+/cdSpSDAAQgcE5gO9TnSpVK+vsWViMA9o3aPqnoviy3/bv7rKL73zk/rWjqzBn3dazaTfK3Ikk9EIDACAS2pfw1Vz19NbbmT9lXKQBqchTLJNjSVoBlv6cGxU9NPkhbIAABCKQggADwoGr5+FsrIsBs35/k7+FhFIEABCCQnwACwJO5lQho4TyA5ez/+8e3+Jinj1EMAhCAQE4CBGdP2qafPq54VmyZ/FtZ7fB0AYpBAAIQ6IoAAiDAnL0nR8v+se8f4FgUhQAEIFCAAAIgELrVVoC7bW3L4+wnn8juAAAgAElEQVT7BzoDxSEAAQg0TAABEGE8KxFQ03kAy9l/bcImwsRcAgEIQKB7AgiACBP3dh7AMvmz9B/hUFwCAQhAoAABBEAkdMukWfKwnGU/SP6RzsRlEIAABAoQQAAI0K22AkqeB2DfX3AALoUABCDQMAEEgGg8KxFQ4jyA5eyffX/RkbgcAhCAQGYCCAAReKvnASyTP0v/ohNxOQQgAIECBBAABtAtk2mO8wCW7SX5GzgQVUAAAhAoQAABYATdaisgx3kA9v2NjE41EIAABBomgAAwNJ5VYk15HsBy9s++v6HzUBUEIACBzAQQAIbAaz8PYJn8Wfo3dByqggAEIFCAAALAGLplkrU8D2DZLpK/sdNQHQQgAIECBBAACaDXeB7AanuC5J/AYagSAhCAQAECCIBE0K0SrsV5AMvZP/v+iRyGaiEAAQhkJoAASAS8lvMAlsmf2X8iZ6FaCEAAAgUIIAASQrdMvjHnASzvT/JP6ChUDQEIQKAAAQRAYuglzwNYbUOQ/BM7CdVDAAIQKEAAAZABulUiDjkPYDn7Z98/g5NwCwhAAAKZCSAAMgDPfR7AMvkz+8/gINwCAhCAQAECCIBM0C2T8tl5AMv7kPwzOQe3gQAEIFCAAAIgI/Qc5wGsthtI/hkdg1tBAAIQKEAAAZAZulWCPjoPYDn7Z98/s2NwOwhAAAKZCSAAMgNPdR7AMvkz+8/sFNwOAhCAQAECCIAC0C2TtTsP8HuaPkzz/NmkK8vy8P3Tuy8mdVEJBCAAAQhUSwABUMg0lucBzLpA8jdDSUUQgAAEaieAAChoIavzAFZdYN/fiiT1QAACEKifAAKgoI1MzwOo/WD2rxLkeghAAAJNEUAAFDaX5XmA6K6Q/KPRcSEEIACBVgkgACqwXNHzACT/CjyAJkAAAhDITwABkJ/54R1LnQdg378SB6AZEIAABDITQABkBn7vdkXOAzD7r8T6NAMCEIBAfgIIgPzM794x63kAkn9FlqcpEIAABPITQADkZ356xyznAUj+lVmd5kAAAhDITwABkJ/55R1Tnwdg3//SBBSAAAQg0D0BBECFJk56HoDZf4UWp0kQgAAE8hNAAORn7nXHJOcBSP5e7CkEAQhAYAQCCICKrWx6HoDkX7GlaRoEIACB/AQQAPmZB93R6jwA+/5B2CkMAQhAoHsCCIDKTWxyHoDZf+VWpnkQgAAE8hNAAORnHnxH6TwAyT+YNxdAAAIQGIEAAqARK0edByD5N2JdmgkBCEAgPwEEQH7m0XcMEQHzNP345+Pbv6JvxoUQgAAEINA1AQRAY+b12Q4g+TdmVJoLAQhAoAABBEAB6OotT0UAy/4qXq6HAAQgMAQBBEDjZnZi4M00/XDd+Pbp3fpf/iAAAQhAAAJXBBAAV4T4HQIQgAAEINAhAQRAh0alSxCAAAQgAIErAgiAK0L8DgEIQAACEOiQAAKgQ6PSJQhAAAIQgMAVAQTAFSF+hwAEIAABCHRIAAHQoVHpEgQgAAEIQOCKAALgihC/QwACEIAABDokgADo0Kh0CQIQgAAEIHBFAAFwRYjfIQABCEAAAh0SQAB0aFS6BAEIQAACELgigAC4IsTvEIAABCAAgQ4JIAA6NCpdggAEIAABCFwRQABcEeJ3CEAAAhCAQIcEEAAdGpUuQQACEIAABK4IIACuCPE7BCAAAQhAoEMCCIAOjUqXIAABCEAAAlcEEABXhPgdAhCAAAQg0CEBBECHRqVLEIAABCAAgSsCCIArQvwOAQhAAAIQ6JAAAqBDo9IlCEAAAhCAwBUBBMAVIX6HAAQgAAEIdEgAAdChUekSBCAAAQhA4IoAAuCKEL9DAAIQgAAEOiSAAOjQqHQJAhCAAAQgcEUAAXBFiN8hAAEIQAACHRJAAFRi1P/7+78Pt035PU3P/zbP8/vb35fd7+63eZp+bGWWZfl5W/7N7vdvn949l60EAc2AAAQgAIGMBBAAGWFvt9qS/TLPn92/3SbynE1yomETC04gIAxy0udeEIAABMoRQAAkZu+SvZvJbzP4ksnet6uIAl9SlIMABCDQLgEEgKHtaprZG3brT1XL8uD+z/dP774kqZ9KIQABCEAgGwEEgIjaJf0alvLFbgRfvq0SsG0QjI4LIAABCFRBAAEQYYZRk/4pqmV5QAxEOBOXQAACEChEAAHgCZ6k7wnKFWOrIAAWRSEAAQiUIYAAOOG+Jf0WDu6VcR+PuyIGPCBRBAIQgEB+AgiAA+b/8/d/X9ypfRK/sUMuywMHCI2ZUh0EIACBSAIIgCdw2+N609Oz+ZE8ucyHAELAhxJlIAABCCQlMLwAYJk/qX+dV44QKAg/3a23x2H3b7JMdzdqhkCfBLY3t6Z8OduwAoDEX9GgQQhUZIywpnA4NowXpSEQS2D/gjarrdThBACJP9b9MlzHgcEMkPVbMIZ0htQAAZmAQbwcRgAQtGR3y1cBKwL5WAfciTEUAIuiEMhFQBACQwgAd6qfw325vNHwPggBQ5haVYwhjR9XQyA5gYh42bUAaHHGcu+TvvtP+W6OdHs4ZP9J4aMDWC19kOjFYIlw7OSDbZAbtDiGBjEN3YTAKwIuf8zL8uB7cLBLAdBC0NoSvfsUb6lX6D4/+jhNU/XvPUAEZA93zPqzI+eGELAh4BkvuxMANQatLdk7Zeas66vObDwhrJbqRYGnY4f1mtK3BGocR1gJAhAIIOARK7sRALXN+kOXYgLMmr3omgzcXyUvSdoeh7F6FCY70MpvSPKv3EA0DwKeBFys/Ofj27/uFe9CAPzv11//ln5t736WX/MM39Nv7har6o2JHgpX7e9o15P8R7M4/e2ewEmcbFoArMlonv8tZcBRkv49vtWIAYSAyRAg+ZtgpBIIVEfgzbL8dTQxbVYAlApW29K+s3DPM/0YDy5lk7WtiIAYk7245n++/lrkSqgAAhCoksD3j29f5fsmBUCJJf+e9vRTe2exMwOIgGjTFhVv0a3mQghAwJfA0XmApgRAiYN+JH5f93pdrsQWAfYKtxfJP5wZV0CgSQI3k6RmBEDu/X4Sia17Z08yrAZ4G5Clf29UFIRA8wT2WwFNCICsyWNZHkq9mKd5z/LoQG5b8qjguVFS2GP/kisPl6AIBCBwQCDZm1t3k6PqBUC2/X5mjFkHYYrEc9gB7HpqV9PZP+I56xjiZuMQsI6X2ypAtQIg134/S/1lB5G1Y9/rzb3HYMr2vuzdrdhfvWykbC+5OwT6IWA1Zrd4WKUAsOrkldlJCleE8vyey948KvjSnibcWWHJM0i4CwSeCFiM2020VycALDp36SkErUtEJQpg+7zU5eV/xlFeg3E3CBiKALcNUJUASJ0AWO6vf/xk2fohcU3qUzUs+9c/lmhh3wTU83FuBbwaAZA6+bP829ZgwB/S2kvmi4hKayBqh8AFAVXEVyMA5GB0AoqZStvjKKVvjCwKFa6MqbbHFK3vh4C0CrAsD8VXAJRAdGlGZimXiFoogI/YW0liyriyNwg1QiCCgLIKsG6JR9zT7BIpCF20ghP+ZmaqoqKUvjLiSoAyc2BsVTEkaAQEpLM8RQVAqoDOQb++R4WSuE7JDDarVZ4AOPqqWN9eR+8gUCeBJlcAUiX/EWdydbpl2lbhPzpfBIDOkBogUAMBZSxn3wIgeNfgMu23AT/SbKispLAFoLHnaghYEmhGACjLFWfACEiW7tROXalEwAj+hABox89pKQTuEVByavYzAIpSOQLA40gMDEdASWaj+pXCbASBxMiCQAsEpElQzscApYYeWILk34J75mujktBGFAHKeGTs5fNr7gSBMwJS3MslAJRgc9j5wU5sMwT8COBnfpxcKWXp0F3PKoA/a0pCIAUBOd7lEAByI2/JkfxT+FI3dVr7W6+JThUArAJ0M2ToSKMEpNn/k4hP+hSAGmRe2YXk36ir5m02IsCPt3wmh/HoB5pSEDAmYBHjkn8NUFUoL5gNGmyciNo4/J6mD/M8v9/+/zJNz7+5GZn792VZfm6/v3n6t2+f3q2/jfRnMUA2Xr3Odk3G56DjcqSxRF/rImAS257GbbIVAJNGPme65eH7p3df6jJDmtZsn8Ndk/kuwat3c0nMiQMnCkYRBJY+2KMIMFuhQwSow5PrIeBFwES0P84U15yaRAAQeL1s+VxoS/qWCf+yBcvyMIIYMBswu0FzybahAvI2wL6vCIGGLE9TWyGwCnU3GZznz1Zt3l7nbS4ASP5+JiqS9O81bVke3E+9rrJYioDeDgVajtf9lsmjXvqzHeU3KigFAQg8j6On7V7zieFOqNsLgK+/FisT9vjRkaoS/62hOp7BWc50e/NLSzZWY596IACBNAT28ctUAJjOJjpLRlUn/gGEgNl+9zRNvZ0HMB23aWIWtUIAAhYEbvKqmQAwDSIdJf+mEn/nQsDSR3vbCrDcJrGIU9QBAQgYEzjIq2YCwCyAdJT8LROOsSuEVYdNXvHqbRXAdZCtgLBhQWkItETgaOvSRABYJbpegmrTs/57Ht2RCECsHhvZcpukpcBIWyHQPYE78dtGABgd/OvhcFXPQbQngfZ7nv+1GPS9bQVYiXkLttQBAQgYEDiZvMkCwCxgdDDDNGNhYPOUVfSQ9KyEWi+iaO8vZiskKZ2QuiEAgWsCF3lVEgBmCY/kf23I2kpgs2eL9CCIbt3LbGzX5re0BwKjEPCI0ZoAsFj692hk7fYadsaE7VbX7HEVwPULEVB75KF9ELhDwDM2RwsAq+DQ+r7/sMl/8ztPR6t5oJqcfu+Aw5GNujzQWrMz0jYICATcZGRelgff773ECwBm/8yQOhEBVmK2x62AzcRWjITYxqUQgMAZgYhJSJQAsAgGrS+bWjDw9eb9p363T/y6a/cqb/ts8PrRiO3P8OMRl22NcL7LOjMWsFjJad2nr3CvPr/uedh9lOTqnvwOAQicEwid9e9rCxYAVomv5dmSFYMzs25GvU30oYNh+5LUPM/vzT8qcdOYlm1q9VRAywx8fQsh4EuKchBIR0BJ/M9zxNDmmSS/hmeLVoniHvfUCcTEfidO0/KZDgs2va8C3Jp+EwM5BGZorKI8BHoisK0Eh+zxX/U/fAXAYO+/6SRh0P9Do2QWRRbJ7qgfrSdAiwOBqUXc1aAu/fvhdlTpRnF/CDRGYNvu9T3QF9O9IAFgkjQyJ7oYKPeusdgnvq27dMI0seltpxq2scUKT2mbWvo8dUEAAv0SCBMA6uy34cRgnSgt9m+s3NK6b65dLc+CLYRey/238ivqgQAE6ibgLQAskgRL/4/OUOMM0fp57xr76DsUWQXwJUU5CECgZQL+AoDZ/2cTQ1e+CmIh9J45Vd7XM3tacGAVwGTEUAkEIJCIgJcAsAiGrc7+LfreWkK07HOrdnc2kw8ENiyAEsUbqoUABCoi4CcAmP3rs//GkoGZCGis3/uxacGgZQFUUZyiKRCAQAIClwJg5CBo0ffVZo0mQYvDcK77rS6FW5wFaNX2CWINVUIAApURuBYAA8/+TRJgo8l/81MLBi0fCFT733LfK4tVNAcCEDAmcCoALGbArS6BWvS9h+BvMgsefBWg1RUQ41hDdRCAQGUE0gqAhme/6syv5aXvWx+1EAEtiyHVF1rue2XxiuZAAAKGBM4FgLj83/LMhxPgL71s5CRoIYBaXQkzjDVUBQEIVEbgrgCQl8Abnv3LfZ+mqbeAb5EEWxaEqgBque+VxSyaAwEIGBFAAByAlAVAw+LnzK/UJNjyiXhVALENYBSxqAYCEDAjcF8AiMv/Lc+A1eX/lvt+5lmjJ0FFACEAzGIWFUEAAkYEDgWAGuhbnukx+z/3LCUJtn4wUh0XbAMYRS2qgQAETAgcCgA1CbY8Ax657z4eNXISVPvOKoCPh1EGAhDIReBYALD8H8e/073/WxjKKkDrSXDkvscNCq6CAARqJfBKAKiznJaX/0fue4iDKknQ3aflFSK172wDhHgaZSEAgZQEXgkAdQm85QCnCoCWE1uIk43MSe176ysgIX5CWQhAoG4CrwSAOsNpOQkq4me0wK48KdGySHTDWRkjo/lJ3eGP1kFgbAKvVwCU/f/G98AVAdDy1kfMEFCS4MgCwLFuvf8x/sI1EIBAfQReCAApAXYQ2KT+Ny5+Ql1zZAGgbgMgAEK9jfIQgEAKAqYCoOXlf3Vpd7SgPrpYUrZA2AZIEcqoEwIQCCXwUgAMvPyPAAhzHWUW3EMCVFZAeuj/lbc4/3Blfk/T+l/+IJCLwJtp+vHt07sfue53dh91HKTuCwJgZz1lVtf66kfoYBldACj9d6x78ZeVwzR9mOf5vevXQsIPHUqUT0Wg4LastEJ6h4ebOKxjbFl+WgmDZwFAQJsmBID/SFT8pZcZsOIvrW8ZuQDnkj4J33/MULIAgQIiQFkdDCYk9u9ZACiKhYDez4wuxAGVBNjDDFga6OLADbGTZVklTli2g7ogEEIgV7yRYkJIh27LRsYTEwHQyyNwoye0EP9jBWCs9wEo9g7xK8pCIAWBHCtuVYjjQCHwLAAk5RJ40xQGtqgTAeBPUUkIvawYjcKgisDm75qUhMArAjlijpI/TE0WkI//rAAITwDkUFemgO5UpoigXhj4cpaSQoCD+ranRDlFALj25lqWVNgoY0K5L9dCwJpAyhitxgLrvvquyq8CQG18C4HMB7AS7FI6l0/bc5dBADwSV1R/zT7jYsIyz5855Jd7ZHG/VARSjjc1h5bq8yoAlGCeY2klFZzbehEA/qQVn/FVp/6tKVeyR5+pNZiVszJ37oHAiALA2e2s37IA6CmYk9T8h3mPic+/939KKhxqFc/KqkYMQ66BQA4CowqAszizCgAliPUkAJSZT63BPNXAUpJEyoGYqr/36lVEY40+o/QnN3vuB4EQAqm3qqU8GtKRiLL3Ys3jCgAHAFekigBw16d2sAi7J7lETRI9cerJZ1S7JnE2KoWABYEMB4/VWGDRzdM6DhjIAoBg/gd5TzPbM0dSE0VPPtOLgFZtmjx4cQMIRBLIudKmTKYjuxd02W2OmlXVQjD/wz+nowVZ3biw5OQZlLhxdy+rU3jUIhqVPlwCogAEChEoEZNrF9P7nC0JgBJwU/uRuo/TmyC65a0Kxp7OjGxsFJ+pQQDUHrBSj3nq75RAwclG1WNqxwUBcOP7aoKrIaCnHM6qY/cokJoXAMIZoHu+tv9yWUp/pG4I7Am4r+S5/1/T54CVT2Kn+uDWFodnKaAXVFgp3V5ZDu1xVWTPGjavPa9lASCN/xsUzvfnZXmoJfimjBHUDYGcBNZx6v7m+bPJfZ9yNwLggKYS0NfqehVGzgkVB4TLa28rzEQRdC86U7gfJkGRSiBQOQErwb5NVBEABwZXtwFclb0tdVs4Xq/bIxKbgonTws+Z9VeeMWhedwSsXtPt4jEC4I57yDOjgoE9hcdLSe6pQb2Joo2zxKagn0jtfup8r6IuxRiiTghYEbAQ726lGgFwxyLyNsDFO5itHCFHPRaJotdtEcdfGYwlz4zIPl5QvOTwe+4BgZoJqHF5Xb1TgkDP6l8J6pvTlAzuVo5rwaHHLZE9X4VRSR9Rxn7Pgs5q7FAPBFITUMYwAuDCOgrcXkSABYPek0WrAkDa5mL2nzq2Uz8ELgkoscdVzgrACWIV7nPVjQZLdYlp63+ve/9b/xQ/KbkCoAiA3m16GXkpAIFKCCjjeFYuHiEImMyAnaM0JgKskn9r/Y4Z0y0KgBbbHGMbroFA7wSUHIUAuPAOJVC+qroREWCW/Dt8HPKeu7QmpCUbN+LHvQd++gcBRwABkNgPFMCtiYCR+mrpNggAS5rUBQEI+BJQxDwrAB6UTVcBKt0OsHq5xB7nCFtEW39bEwCKT5c8t+AxXCkCgaEISAJAmfH1/BjgrQcpkI+8saY3qCnJ4O5IG2yZGAEwVMylsxCohoCSw3kKIMCMCugaE2WKWf/az8GSvyKgSs6mWxMtAUOVohAYhoAyjhEAAW6iBPrL22RMmskSv3uudJp+/PPx7V+X/e2ogOIXJXkpgWOk1b+OXJWudEZAXZlGAAQ6hBLsvW6VUAisbZ+mD9IX/S46MdK+/4ZC8YmSAkBZ0SrZbq9xRCEIDEBAEQC8CTDSQRTovrd0xlmW5ef3T+8evwMd+bfN9teVeZf8E/6NOiuU/CGh4LsytSIA1roLtv2qb/wOgd4JSHHnabWWjwFFeokKP/i2y/KwXfNmmn64//3t07v1v+7PJXr333WG74w7z+9zJP3nfgycDCRfKMhNaveT4UcVfcHjlwsgYEhAWXXcx2wEgGAUeQYl3LuqSwsmsRo4SIm0IDuLIFLT0yw1+AJtgEBqAlZnuJx4RwCI1hpeBBRMYKLpzC5vVQA4AGb+ix+Y+RMVQeAeASnW3FTqzmvNyiyAg0CPRC2N0pTrE/R1+xdmaOq7T9tU6rmVpsYAjYVABgJWs/798r8bpwgAI+OZBlKjNiWtpnDiStq3wMqVWXQNe+jK44D3UG2HWANRUhwCEHgikPIc1/a0FgLA0N1GEQE1JC1Ds8lVNS8A/v7vS8pHQ2XAVAABCNgR2E3eJAHgWjTic9/3LGG+TGNncrOa2PZ5jVKZQdcippQ+mDkXFUEAAskJ7HM2AsAA9wiJ/xUm9nufkSjJsxYBrZwFMhhCVAEBCOQgcLN1O7t7KgGslhlMDnb7ewyZ9O9BHvg8gJo4axEAaxxgKyB3GOF+EMhH4CBOrwJA2cMc7W1gJP4Tfx1QCChJs8btFCkW5Atl3AkCEAghcCc2ywKgxiAWwiWkrBLsQ+7TfNmBhIDkE5VyQgQ0PwLpAAReELi30rgKAGUZcwQBwKw/YjQty4N7ZfH+dcURtVR/iZQsKxUASjyo3mA0EAKDETjbppcFgGNZ0z6mpW1J/AY0K01yBj1bq+j1/AwiwMpDqAcCZQj4vKZ7FQA9B7JY9NLSbuxNe76uQyGgJskWhDPjoOdBSd96JeC7Mv8sAJSlzN6eBFBY9OpQJv3qTAQoydF3gJpwFytR+inemsshAIFQAgFx1kQAtBTMzliqM7pQO41Y3mdZqhUuUmIMGKQ18JD6WkMHaAMEBiAQOhn/swUgPAPcgwCoLcA5ps5fl2X5ufmtO1S39+H9ATsnXrbffk/T8/92/+beKb3c/FvxsdBYAjziJa0UNdr/2sZJcT+mARCogUBkPHkWAOrst4X9zHt2kgK5kfG3j6ekPjm/BvBaREGk0xohl6vp9QCgDxiEgA8lykAgHYEtZyhf33wWAK6ZowW0kqf8t6Vwx73ko3Kr8JumD8VWCRoVAWoCbFkw70Pa3n/WFavaVprSxV9qhkBWAvtVYauJ4gsBoMyEW9sGUAN4jOVb2P8uwcWxDN27iuFveY3KqRcBcI/pJgwsmVMXBEYisG35ppwgmgkAZ5hWgpoavEOdsIXEf9unbasg62diG1oNUFbLRnt9duh4oTwEIJCHwAsBoJ4DaGEWlyv5t5j077lcLmbr/RsQAeo4aaGPecIPd4EABEoSMBUAtW8D5EhkPSX+YqsClYsA1Y9aWSkrGZi4NwQgkJ7ACwHgbtfrOQA1aF+ZoufEfygE5vnzFRPp94pFgLL8X7tIlmzGxRCAQFMETAWA63mN2wCpk/+oS7ojcmX5v6n4RmMhAIETAq8EgBrgapvhJE1SFc9Sc3p9Ssa1CUq1r7X1J6efcC8IQKAuAq8EQE/bAGqwvmeqkZb7fd01FevaVpWU5X/XF/b/fT2KchCAQGoC5gKgloCdKiHVtsKR2kFC61fOkJzdq5aZsyQAWDEKdSfKQwACCQkcCgB1G6B0sE6V/Efd6w/1v1T8W/er0u0PtSPlIQCBvgkcCoCWtwFU8XLP3ATvsIGQQgSUXn2RZv8s/4c5EKUhAIHkBJIIgJLbANZL0Oz3x/tgCjFWSgTIgobl/3hH4koIQCAJgbsCQA3eJQK1HKRvERO0TZzOWpSV2IqRfQtfMvElKoEABOwI3BUA7hbqkmfOZXM5QJP87bzqoCZr++T0LVUMOxyc/k/qXlQOAQhEEDgVAOrMLdcqgEWAfsGO2VqEK11fovrT/g65fGsVwn//90X6KBL+dO0clIAABLITOBUAFok1x0zNMrGUWF7ObvWCN2zRVupKGD5V0OG4NQQgcJfAqQBwV6kBO/VMTZ6d7dEwU8syVFSf2jcytcC08C+W/7O4FTeBAAQCCVwKAIsAmCpIW6xQPPMi+Qe6jlbcUgSkTLDM/jU7czUEIFAvgUsBsO6Bfv21SF1IlFwtxMnar0Ttk5h1fnEL4s3Cv1KKk85dhO5BAAKJCfgJAPUQVIJT0BbB2bFNvUWR2H5NV28pAlKsMtUqfJs2Oo2HAASqIeAlAEwCtfEsWw7OTyZIkTiqsW4DDTHxrQRCzkJgMvtvwAFpIgQGJuAlABwfiz1bq2RrEZxZ+q/H663saeVfNW971WM1WgIBCLROwFsAWMzUrJbbTWb/xisSrTtC6fZbCEwz/6pwy6u0fbg/BCDQHwFvAVDLKoDFbNEqUfTnDuV6ZCEwXevVVQAL/+JQaTk/4s4QgIA/gSABYBWklb1Ri9m/miT88VIyhIBF8lXFnYV/Kf4dwqvmsi5WuPb9nqb1v/xBAALhBN5M0w931bdP79b/Wv8FCQCrVYDYGZJFgoi9tzV46jsmYLEVECvw8K84r3TJfpnnz+7qhYQfB5GrIOBBwE1wlmX56Yp+//Tui8clp0WCBYDVKkBMkGZ2ppq7/ust/CtmFcDivivdQc6WbEmfhF//mKKFHRNYlgdFDAQLAKtVgNAgzeysYye+6ZqFrUMFpsXKwwjJn8Q/zjikpw0RiBQCUQKgxGyJ2X9DzmjQVNXeIQLTQnCsKvzj26jxZIArSxVWnLI0lptAYEQCgSuQ0QHLKhj4BE2TewWCGdF3auqzhc19VwFUsdH70j+z/ppGBm2BwDkBN/mZl5G3yNAAAAjsSURBVOXB5+BgtADIuRUgJwOSf5NjRk3MPqsAsm89kfURsi0awYpPi32nzRBomoBH3pMEQK6tADURjLA327Sj3mm8mnyuBIBa/3OzPQZai/Yx49Ni52kzBHogcBGbJAFgtQrg6rm3XCsHoU6Dcw++6dMHVfwl86ut8Z36lzzufIxLGQhAIDmBs4mQLADMVgHuiAA5EHUaoJN7TSU3UO1/z/lVYbHh6XHpX2VeievQDAhA4GKiIgsAV79VwDgK1kqgvloCxjvaIGDtAyaP/Dl0HYpLq7HchmfRSgiMQ+BoNdREAFhuBeyDqhyMOgzQ47jrn56qCXvv+LJPPTWrV3GpiK0RfZM+Q6AlArcrlmYCwHIrYBMBauDvcXm2JWezaqvqW5sAsEr+a786FJemfKyMTz0QgIAZgduJi5kAMF0FeDoP8Hue/43ueYcBOppFBxcqM9Pn92c/va9extGhb5H8Za+gAgi0QWAXv0wFgOu9EqhN6XUYpE35NFaZuhpk2d0eV5aqGbeWhqIuCEDgkMAWw8wFgLpca2WvHoO0FZsW66nFr1j69/Met+ryuFPy+OUy/iAAgXAC8zy/X8eR9Vc2nybI5gJgXQX4+78vk9VyazizLvdnYzD0dk3xWWqnq0qmXJflwX3D3Oc1pL35J/2BQEoC1nnVTZKTCAAHoeiSbaeBOqVztVA3PmVvJaug0utTEfbEqRECGgGrMesORycTACVFAMv/moPVenWpbYCek5tJMEFw1zpkaFenBCzG7frRoJR8SgTsnoN1Slu1UrfpcrVnp32/KuhZXVXFZJ4k/6rsSWPGIWAkAtICyy4CCEhpDVq49uzbAB37kzo2EduFBwO3H56AGg+TrgBs1rFQKt6W7jhgezPouKDq8EFoOvcleVx2zifIVygMgQIEDER8nlbnCtw9L9fmsVTdd1Ed3rt3AyQ3RQAw+/f2JApCICkBJbdmWQHYeq801JcgBwB9SbVZLpcAGMGPFAHQ4/sQ2hwRtHp0AkpMzCoAlIb6GnmEwO3Lotdy8sG1CzCjrCIpgnwURr2OIfrVDwElr2YVAA65NOu4stkAy7ZXCEb4PakAGMiHFI4I7RFGGn1sgUBTAiClCGBfsgV31duozFxP7z5Q8l/H4ddfS6w1EACx5LgOAvYEYsdy9hWAreupVgIQAfbOVUuNTuku8/zZ/L3YroODJX/XZUVIsQVQy6igHRCIF/PFBEDKlYDVIQYM6D0PBGWZ65LLoL6CALj0DApAoHoCSmwsKgAQAdX7VhUNTLVaNLpQRABU4d40AgISASU+FhcAiADJ9t1frCSpSziDzvwttuHYarv0LgpAIAsBJUZWIQCSiwC2BLI4ouVNFFXr1Y7Bk79jpCwduus5B+DlaRSCQDICapysRgDkEAHr14+W5YFvlSfzR7nipAf9ttaR/FcSqgBgFUB2dyqAgERAmf27G1clAHKIgJU2CUByulQXq2rWq13Y/gWm2MeHniuBp5fbUQgC1gQs4mV1AiCbCEAIWPtjdH3qTNT7xiSrV6jUGQSC2tv7KAgBMwIWyd9NhKsUABbLk96kSQreqKwLZlnuf1zmYuvnjvHMxBfjyHp4UB8EDgmYiPanCXC1AmDruYnS8XEkApgPJbMyuezKPvW1yeRtgP0tGEfXwCkBgUACq1Cfpg/TPH8OvPRucfc2z+oFgGt9rmTBcqaVax3Xk8KJT1tMMvIyaIrx5YTX4yRj+enVCINCb6bpRw0HfJ2fu+6sAZs/CAgE5nl+v44ja196io1NCIDsIuBpeeT7p3dfBNtx6ROBXEv9e+A8ohbmfqarAGG3ti9dSPilEFL2cKgRAtO0fcujGQHgjFYikbiDErXMLFpz3BL2Yr8/zku6S16ZRYDZvmyc+bgKAv4EdmOjKQGw9bBIsFqWB3d/VgWu/axE4netYr//2jZnJXpMYjm+WtgjN82TuLpaAjfCuEkBUGRLYG/RzLOLap1p17Bt3zPZ1/quIGCTK0Jev3e1FZDhbYVFJiNelqQQBF4TuBXEzQqA4iJgYzvwFsE203cozA+pBIxe9vsDYF0UNXss0K5JUk2pV4V6E0wSbC6um8DBJKlpAVB0S+DI1AOIgVqSPkv+6WJNb7PaVAKxN7GUzqOouTiBOyukXQiAbTXAPTJRcib6wsgdnRkotad/b9Bw0C99OOlpXxsBkN5fuEPFBE62R7sRANWtBuz8wSWs7Xno2p8o2O/ll17aPxxS7PVnizS9rAQgALK5DDeqjcBFvOxOANQsBPa+UYMo2F7Mk+xlE4aDgVm/IcyAqnoQAQiAAINTtB8CHpOlbgXAti1g+erEHJ5x9gY1t3qwteH2jWfbzH3fxv2byLYkX+Ws/gQsiT+H153fo7YtoFAiKR8F7GmrJJQr5eskEBIzuxYArawG1OlGFbTKQ8FW0MphmtDkakBiH+Ig4DDu30ZHA/19CAGAEGjDd7dWhijYtnrWfmtXEeD+DD9KkopK6kcAn+PK119Lqj5QLwR8CMTGzKEEwPO2QCMBzMfwPZWJdeKeGLTSl9qFQK7kz+SiFY/ts51qzBxOAOzdoMklzQ79WHXiDpE01aVNDFTzGG7gMqgVbOKJFUnquUdgOyM2L8uDxZcvhxYAqPeyA43EX5Z/yrvn/iTudkDWIiiqXJ4/e61WxPXDE0jt1wiAnYuh4DONtwHemJiJJLeBAAQgEE0AAXCADiEQ7U93L9zee8DXFO3ZUiMEIACBGAIIgBNqtR90ijF47mtY5s9NnPtBAAIQ8COAAPDjNCEG/EBZH1LxuyulIAABCEAglAACIJTYNE3Ph3waeBY6onvBl5D0g5FxAQQgAIHiBBAAogn279Ov5kuEYp98Lifp+1CiDAQgAIF6CSAAjG3T61bBPuE7ZDU8bmVsOqqDAAQgMBQBBEBic++fCa7mRSkXfd5/kKj2zxcnNh/VQwACEOiWAAKggGlrEgXM7As4ALeEAAQgUAEBBEAFRtiasP+k7/5TvtvvZ5/03RL5vjvLsvzc/v/+U8Lbv7GMX5HxaQoEIACBzAT+H1Y1SPQVDVAAAAAAAElFTkSuQmCC;" vertex="1" parent="1">
          <mxGeometry x="170.13" y="95" width="100" height="100" as="geometry" />
        </mxCell>
        <mxCell id="9YNmxNu1mqhPtrFuAmMJ-4" value="&lt;b&gt;&lt;font style=&quot;font-size: 14px;&quot;&gt;Student Reviews&lt;/font&gt;&lt;/b&gt;&lt;div&gt;&lt;b&gt;&lt;font style=&quot;font-size: 14px;&quot;&gt;Excel File&lt;/font&gt;&lt;/b&gt;&lt;/div&gt;" style="text;html=1;align=center;verticalAlign=middle;whiteSpace=wrap;rounded=0;" vertex="1" parent="1">
          <mxGeometry x="150.13" y="220" width="140" height="30" as="geometry" />
        </mxCell>
        <mxCell id="9YNmxNu1mqhPtrFuAmMJ-31" style="edgeStyle=orthogonalEdgeStyle;rounded=0;orthogonalLoop=1;jettySize=auto;html=1;exitX=0.5;exitY=1;exitDx=0;exitDy=0;entryX=0;entryY=0.5;entryDx=0;entryDy=0;" edge="1" parent="1" source="9YNmxNu1mqhPtrFuAmMJ-5" target="9YNmxNu1mqhPtrFuAmMJ-22">
          <mxGeometry relative="1" as="geometry" />
        </mxCell>
        <mxCell id="9YNmxNu1mqhPtrFuAmMJ-5" value="" style="shape=image;verticalLabelPosition=bottom;labelBackgroundColor=default;verticalAlign=top;aspect=fixed;imageAspect=0;image=data:image/png,iVBORw0KGgoAAAANSUhEUgAAAgAAAAIACAYAAAD0eNT6AAAAAXNSR0IArs4c6QAAIABJREFUeF7t3c2OJcd5p/FTWnJhoQEJoFb2DTRNkVp4ZZFLQbqCFmBAgKABZqmVBJgWaRqQrmCAEQQIGEB9BRK0E1uz8kIfNOsKZqW+iWHNZDVPs6r7nDr5EZHxRry/Aoyi3JHx8fwjTzwZmXnq6uAHAQQQQAABBNIRuEo3YgNGAAEEEEAAgQMBMAkQQAABBBBISIAAJAzdkBFAAAEEECAA5gACCCCAAAIJCRCAhKEbMgIIIIAAAgTAHEAAAQQQQCAhAQKQMHRDRgABBBBAgACYAwgggAACCCQkQAAShm7ICCCAAAIIEABzAAEEEEAAgYQECEDC0A0ZAQQQQAABAmAOIIAAAgggkJAAAUgYuiEjgAACCCBAAMwBBBBAAAEEEhIgAAlDN2QEEEAAAQQIgDmAAAIXCbz9r996byp0c3Xzs2Phm8PN7f9v+rk6XD27ubr54/Tfn/37Xz68WKECCCDQnAABaB6BDiAQi8C02H/+lc/fu7q5+vbton9noZ/d06vDR0RgNi0FEWhCgAA0wa5RBNoTOF7VHxf7VQv9pWEQgUuE/DsCzQgQgGboNYzAfgRe3cKvstifGw4J2C9oLSGwgAABWABLUQR6IFBkC7/wQKdnBP7r4z+/X7ha1SGAwAYCBGADPIci0JLALlv4BQdIAgrCVBUCBQgQgAIQVYFAbQJNt/ALDo4EFISpKgQ2EiAAGwE6HIHSBCJu4Rcdo2cCiuJUGQJrCRCAteQch8BGAr1t4W8c7r3Dv3Lzlfc//Y8/PStZp7oQQGAZAQKwjJfSCKwiMMoW/qrBnzjIrYBSJNWDwHoCBGA9O0cicJLA8Fv4hXL/7OO/+PwpxFI1CKwh4ARcQ80xCBwOh8xb+CUmgNsAJSiqA4H1BAjAenaOTETAFn75sN0GKM9UjQgsIUAAltBSNgUBW/j7xEwA9uGsFQTOESAA5kZaArbw20ZPANry1zoCBMAcSEHAFn7MmD0IGDMXvcpBgADkyDnVKG3h9xM3AegnKz0djwABGC/TNCOyhd9/1ASg/wyNoF8CBKDf7FL13Bb+mHETgDFzNao+CBCAPnJK1Utb+HniJgB5sjbSeAQIQLxM0vTIFn6aqM8OlACYAwi0I0AA2rFP1bIt/FRxzx4sAZiNSkEEihMgAMWRqtAWvjkwlwABmEtKOQTKEyAA5ZmmqdEWfpqoqw2UAFRDq2IELhIgABcRKTARsIVvHtQgQABqUFUnAvMIEIB5nFKVsoWfKu6mgyUATfFrPDkBApB4AtjCTxx+kKETgCBB6EZKAgQgSey28JME3dkwCUBngenuUAQIwFBxvhiMLfwBQx10SARg0GANqwsCBKCLmE530hZ+x+Hp+i0BAmAiINCOAAFox35Ry7bwF+FSuBMCBKCToHRzSAIEIGCstvADhqJLVQgQgCpYVYrALAIEYBamOoVs4dfhqtZ+CBCAfrLS0/EIEICdMrWFvxNozXRFgAB0FZfODkaAAFQI1BZ+BaiqHJIAARgyVoPqhAAB2BCULfwN8ByKgLcAzAEEmhIgADPx28KfCUoxBBYQsAOwAJaiCBQmQABOALWFX3iWqQ6BMwQIgKmBQDsCqQXAFn67iadlBCYCBMA8QKAdgTQCYAu/3STTMgLnCBAAcwOBdgSGFABb+O0mlJYRWEKAACyhpSwCZQl0LQC28MtOBrUhsDcBArA3ce0h8CWBbgTAFr5pi8B4BAjAeJkaUT8EQgqALfx+JpCeIrCFAAHYQs+xCGwj0FQAbOFvC8/RCPROgAD0nqD+90xgNwGwhd/zNNF3BOoQIAB1uKoVgTkEqgiALfw56JVBAAECYA4g0I7AJgGwhd8uOC0jMAIBAjBCisbQK4FFAjAt+DdXNz+bBntzuHmv10HrNwIIxCBAAGLkoBc5CVwUgON2/v9f8W8Xfj8IIIBAKQIEoBRJ9SCwnMCDAvDWv73zoYV/OVRHIIDAPAIEYB4npRCoQeCkABy3+m3z10CuTgQQOBIgAOYCAu0IvCYAt1v+V59/0q5LWkYAgSwECECWpI0zIoF7AmDxjxiRPiEwLgECMG62RhafwD0B+McP3v3Etn/80PQQgVEIEIBRkjSOHgm8FAAP/PUYnz4j0DcBAtB3fnrfN4EvBeCDd276HoreI4BAbwQIQG+J6e9IBG4FwNX/SJEaCwL9ECAA/WSlp+MReCEArv7HS9aIEOiAAAHoICRdHJbAlav/YbM1MATCEyAA4SPSwYEJEICBwzU0BKITIADRE9K/kQlcefVv5HiNDYHYBAhA7Hz0bmwCV+7/jx2w0SEQmQABiJyOvo1OgACMnrDxIRCYAAEIHI6uDU+AAAwfsQEiEJfAH37sz47ETUfP+iBw9Wzq583h5o/T768/+uqHc/tNAOaSUg4BBIoTIADFkaoQgcPN4fDRHBEgACYLAgg0I0AAmqHXcAICl0SAACSYBIaIQFQCBCBqMvo1DoGrZ1979HfvnxoPARgnZSNBoDsCBKC7yHS4UwI3h8/f//qjR7fPCxx/CECnYeo2AiMQIAAjpGgMfRB4fSeAAPSRnF4iMCQBAjBkrAYVlsB9CSAAYYPSMQTGJ0AAxs/YCGMRuPtgIAGIlY3eIJCKAAFIFbfBBiHwtUdfvf1LwAQgSCC6gUBGAgQgY+rG3J7Ai1sBBKB9EnqAQFoCBCBt9AbemMC0C0AAGoegeQQyEyAAmdM39pYEptcCCUDLBLSNQHICBCD5BDD8hgSunhGAhvg1jUB2AgQg+www/nYECEA79lpGAIEDATAJEGhFgAC0Iq9dBBA4HAiAWYBAQwJuATSEr2kEshOwA5B9Bhh/SwIEoCV9bSOQnAABSD4BDL8pAQLQFL/GEchNgADkzt/o2xIgAG35ax2B1AQIQOr4Db4xAQLQOADNI5CZAAHInL6xtyZAAFonoH0EEhMgAInDN/TmBAhA8wh0AIG8BAhA3uyNvD0BAtA+Az1AIC0BApA2egMPQIAABAhBFxDISoAAZE3euCMQIAARUtAHBJISIABJgzfsEAQIQIgYdAKBnAQIQM7cjToGAQIQIwe9QCAlAQKQMnaDDkKAAAQJQjcQyEiAAGRM3ZijECAAUZLQDwQSEiAACUM35DAECECYKHQEgXwECEC+zI04DgECECcLPUEgHQECkC5yAw5EgAAECkNXEMhGgABkS9x4IxEgAJHS0BcEkhEgAMkCN9xQBAhAqDh0BoFcBAhArryNNhYBAhArD71BIBUBApAqboMNRoAABAtEdxDIRIAAZErbWKMRIADREtEfBBIRIACJwjbUcAQIQLhIdAiBPAQIQJ6sjTQeAQIQLxM9QiANAQKQJmoDDUiAAAQMRZcQyEKAAGRJ2jgjEiAAEVPRJwSSECAASYI2zJAECEDIWHQKgRwECECOnI0yJgECEDMXvUIgBQECkCJmgwxKgAAEDUa3EMhAgABkSNkYoxIgAFGT0S8EEhAgAAlCNsSwBAhA2Gh0DIHxCRCA8TM2wrgECEDcbPQMgeEJEIDhIzbAwAQIQOBwdA2B0QkQgNETNr7IBAhA5HT0DYHBCRCAwQM2vNAECEDoeHQOgbEJEICx8zW62AQIQOx89A6BoQkQgKHjNbjgBAhA8IB0D4GRCRCAkdM1tugECED0hPQPgYEJEICBwzW08AQIQPiIdBCBcQkQgHGzNbL4BAhA/Iz0EIFhCRCAYaM1sA4IEIAOQtJFBEYlQABGTda4eiBAAHpISR8RGJQAARg0WMPqggAB6CImnURgTAIEYMxcjaoPAgSgj5z0EoEhCRCAIWM1qE4IEIBOgtJNBEYkQABGTNWYeiFAAHpJSj8RGJAAARgwVEPqhgAB6CYqHUVgPAIEYLxMjagfAgSgn6z0FIHhCBCA4SI1oI4IEICOwtJVBEYj8MajN7of0uM3H9+O4fE33rr9/eTtJ92P6dQArp9fH57+9Tcv/2n63xF+svCvwZoA1KCqTgQQmEVgBAE4NdAn3/z+MCLw09//5BBlsZ81qSYJG4j/3DGvKUcA1lBzDAIIFCEwqgAc4fS8ED399Om9K/4ige9cSc/890BFAPagrA0EEDhJYHQBuL018Objw8+/84uuZkCPV/3nAPfIf6/JQgD2Iq0dBBB4jUAGATgOepKA4/3qqFPheJ+/ty3/OTx74D9nHCXLEICSNNWFAAKLCGQSgB6uRL/36+8uyq+nwj3w35snAdibuPYQQOAlgUwCEP12wEjb/m4HzPuQIQDzOCmFAAIVCGQTgAlhxAfTRnjgb+70jMh/bt9LlyMApYmqDwEEZhPIKAATnN/+4HezGe1RcOSt/1P8ovHfI+NTbRCAVuS1iwACh6wCEOl+dKar/+MpF4l/y48BAtCSvrYRSE4gqwBE2gXIdvV/POXsAhwOBCD5B7DhI9CSQGYBiPBaWsar/+N8j8C/5bk3tU0AWiegfQQSE8gsABG2oTMLQAT+rU99AtA6Ae0jkJgAAWj7DYEZXv07d3oRADsAiT96DR2B9gQIAAFoNQsJAAFoNfe0iwACh0PatwCiPIiW9QHAKPxbfwi4BdA6Ae13Q+Ddv3/n8O4/vHOYfk8/x9/Tf//5//zl9v+mn1/+8VfdjKl1RzPvAEzsWz+JTgBifR/D3ucjAdibuPa6InBc9H/0zz9c1O9f/u9fEYEZxDILQIQtaM8AtL0FM+MUqVqEAFTFq/KeCfzo2z88LF34Xx0vEXh4BhCAtgsQAWjLv/XnIwFonYD2wxGYrvqnxf/uFv+WTk63Bv7b//rvW6oY9tjMAhDhO+kzC0AE/q1PbALQOgHthyPwpw/+s3ifSMBppATgSfG5tqTC6+fXh0kCMv4QAG8BZJz3xvwAgf/5L/+j2JX/qWamnYDjw4KCyP0WQOsHAI/zL+uDgFH4t/wcsAPQkr62QxGovfhPg7UTcD/yrDsAka4+M94GiMS/5YcgAWhJX9thCJR44G/uYDwY+CWprAIQ7eoz2y5ANP5zPztKlyMApYmqrzsCey7+RzhuBbwgkVEAIl59ZvqbABH5t/rQJACtyGs3BIHpSf9p63/vH7sAOQUgwrv/5+Z6hlsBkfnv/Rk0tUcAWlDXZhgCNZ74nzu4b338T3OLDlsu2w5A9K3n0W8FROe/94lOAPYmrr0wBFps/d8dvNsAuW4B9PD350d+LbAH/nt/OBKAvYlrLwSB1ov/BMFtgBwC0OO280i3A3rkv9eHJAHYi7R2whCIsPhPMLwSOL4A9PzA2QgPBvbMf48PTAKwB2VthCHQ6qG/UwAIwLgCMF11TovP9Lv3nx5FYCT+NecPAahJV93hCOzxZT9LBp39QcARHgK8u8iPsuifmsOTCEw/13/77MXv59dLpnq1sln41wBIAGpQPVPn8Y/MTP/86h+a8ffk6wcRZev/7kizC8AffvxJ/eC1gAACJwkQgMoTw9+Trwx4ZvURF/+p6wSAAMycwoohUJwAASiO9MsKSyw6nhTfHlCk+/53R+MZgMPBDsD2+a0GBNYSIABryT1wnL8nXwHqhipbftnPQ90mdwRgw7R2KAKbCRCAzQhfr6DGguNqcV1QJXZh1rV8+SgCQAAuzxIlEKhHgAAUZlv7KXPfHjc/sMiL/zSK7Pf/JwZuAcyfz0oiUJoAAShItPbiP3XVTsC8wKIv/q7+X+RIAObNZ6UQqEGAABSiuueCQwIeDi3qQ393e+3qnwAU+uhRDQKrCRCA1ejuH1jjvv9DXXMFeZ7OHjsxW6aN7L6kZwdgy0xyLALbCBCAbfxuj97z6v9udy0kr4fXKou508juzX1SBGDuzFEOgfIECEABpntf/ZOA06FFX/ynXnuIkwAU+MhRBQJFCBCAjRgjLDoWlRdfrTxt/Uf+sWPzejp2ACLPWH0bnQAB2JhwBAFwZXk4tNyFmTOFLP6nKRGAObNHGQTqECAAG7lGeuAs605AFAk7N5Xc9z9/khGAjR9ADkdgAwECsAHedGikK8+MC030xX+aI175IwAbP2YcjkAVAgRgI9ZIAjANJZME9LD42/p/+ASzA7DxA8jhCGwgQAA2wIu2A3AcSoZFx0N/GydukMMJQJAgdCMlAQKwMfZoOwBZJCDSsxenplAGCdt46tweTgBKUFQHAusIEIB13F4eFXkhGnURir71n+k2zMbThwBsBeh4BDYQIAAb4E2HRl+MRpOA6LynOZH1bYw1p5IdgDXUHINAGQIEYCPHHu5Fj7Ig9cB6NOHaeHpcPJwAXESkAALVCBCAAmijPgdwd2gjSEB0zhb/5ScTAVjOzBEIlCJAAAqQ7GFbuvf70tEZ9863wGmwqgoCsAqbgxAoQoAAFMDYw9b0NMxeF6noi//E1pf9rDuRCMA6bo5CoAQBAlCCYgcPAx6H2ds2dQ+Lf29MC035ItUQgCIYVYLAKgIEYBW20wdFfiXwbo97WbB62FnphWXBaV60KgJQFKfKEFhEgAAswvVw4R4WrJ52AqILlcV/+8lDALYzVAMCawkQgLXkzhxHAsoAjb713+vzFGXSKVcLASjHUk0ILCVAAJYSm1E++uJ1dwgRXw/sgV9EbjOmZrgiBCBcJDqUiAABqBR2D4vYceiRFrMedlBs/Zc7aQhAOZZqQmApAQKwlNiC8r1IQKTtbF/2s2CCDVCUAAwQoiF0S4AAVI6OBMwHHJ1VJFGaTzV2SQIQOx+9G5sAAdgh3+hPsx8RtNzajr74T4x82U/5k+WNR2+Ur3TnGh+/+fi2xcffeOv295O3n+zcg32au35+fXj619+8bGz63xF+svCvwZoA1KB6ok4ScB50D4t/SznaaYo2aWYEATgF7sk3vz+MCPz09z85RFns507SkfjPHfOacgRgDbUVx/TwcFuLnYAeuFj8V0z4mYeMKgDH4fe8ED399Om9K/6ZkYYq1jP/PUASgD0of9FGD4vd3hIQfWfE4l/3BBldAG5vDbz5+PDz7/yiLsjCtfd41X8OQY/8C8d5tjoCsBfpL9rpYbv7iKT264HRWXjor/7JkUEAjhQnCTjer65Pdl0Lx/v8vW35zxltD/znjKNkGQJQkubMuqIvfHeHUUsCemBQa+wzp0mKYpkEoIcr0e/9+rvDzrse+O8NnwDsTbyznYAaV8E93Aqx9b/PiZFJAKLfDhhp29/tgHnnLwGYx6lKqR6ugqeBl5YAX/ZTZTp1WWk2AZhCivhg2ggP/M09ASLyn9v30uUIQGmiC+uL/hDccTilroijS09p2Vk4HdIVzygAU8i//cHvQmU98tb/KdDR+LeaDASgFfk77WaRgOiL/xSJL/vZ94TIKgCR7kdnuvo/zu5I/Pc94+63RgBa0v+i7R7uiW/dCehh8S+1yxFgSnXThawCEGkXINvV//HksAtwOBCAIB+VI0tAD2Oz+Lc5ETILQITX0jJe/R9negT+bc66L1slAK0TuNN+D1fJx+4ueUUu+i0Oi3+7kyCzAETYhs4sABH4tzvzXrRMAFon8Er7o0lA9PF46K/tCUAA2n5DYIZX/87NcAJAANp++p1pPfqieez2pcWzh3Es2ckIOVk67xQBIACtpjABIACt5t7FdntYPKdBnJMA9/0vRqzA4XDILAARHgTM+gCgBwHdAgj/ARz93vkR4Kl76L7sJ/z0CtFBAtD2+wAIQFv+rU9CzwC0TuBC+z1KQPTdi0u3LoJPiaG6l1kAImxBewag7S2Y1iczAWidwIX2e9hKv7sTMP33j/75h6Gp+rKfOPEQgLYLEAFoy7/1mUgAWicwo/2eJGDGcJoW8cpfU/yvNZ5ZACJ8J31mAYjAv/XZSABaJzCz/ejb6jOH0bSYxb8p/pONE4AnTUO5fn59mCQg4w8B8BZAV/OeBKyPy+K/nl3NIzMLQJSvos36IGAU/jXPr0t12wG4RCjYv5OA5YF46G85s72OyCoAka4+M94GiMR/r3PtVDsEoCX9lW2TgGXgfNnPMl57ls4qANGuPrPtAkTjv+c5d7ctAtCK/MZ2e3k9cOMwNx9u638zwqoVZBSAiFefmf4mQET+VU+yByonAK3IF2iXBDwM0eJfYJJVriKbAER49/9cpBluBUTmX/lUO1k9AWhBvVCbXg88D9J9/0KTrHI12QQg+tbz6LcCovOvfLq9Vj0B2Jt44fZIwGmgvuyn8ESrVF0mAejh78+P/FpgD/wrnWZnqyUAexOv0J6HAu9DtfVfYZJVqjKDAPS47TzS7YAe+Vc63ewA7AV273ZIwAviFv+9Z9629kYXgJ4fOBvhwcCe+W87s+YdbQdgHqcuSmWXAIt/F9P0XidHFYDpqnNafKbfvf/0KAIj8a85fwhATboN6s4qAR76azDZCjQ5ggDcXeRHWfRPRTuJwPRz/bfPXvx+fl1gBmyvIgv/7aRer4EA1KDauM6Mrwf6sp/Gk25l83/48Scrj3QYAghsJUAAthIMenwmCbD1H3QSzugWAZgBSREEKhEgAJXAtq42y+uBFv/WM21b+wRgGz9HI7CFAAHYQi/4saNLgPv+wSfgjO4RgBmQFEGgEgECUAlslGpHfijQl/1EmWXr+0EA1rNzJAJbCRCArQQ7OH5ECbD138HEm9FFAjADkiIIVCJAACqBjVbtSBJg8Y82u9b3hwCsZ+dIBLYSIABbCXZ0/AhvBlj8O5pwM7pKAGZAUgSBSgQIQCWwUavtWQI89Bd1Vq3vFwFYz86RCGwlQAC2Euzw+F4lwJf9dDjZLnSZAIyXqRH1Q4AA9JNVsZ72+Hqgrf9i8YeqiACEikNnkhEgAMkCPw63Jwmw9T/uJCUA42ZrZPEJEID4GVXrYU9vBtj+rzYNmlZMAJri13hyAgQg8QToSQCmmEjAeJOVAIyXqRH1Q4AA9JNV0Z72tvhPg3croOgUCFEZAQgRg04kJUAAEgbf0/3/V+MhAWNNWAIwVp5G0xcBAtBXXkV62+trgMfBeyOgyDQIUQkBCBGDTiQlQACSBd/j1v+piEjAGBOXAIyRo1H0SYAA9Jnbql6PsvjbCVgVf8iDCEDIWHQqCQECkCTonu/7PxSRnYC+JzAB6Ds/ve+bAAHoO7/Zvf/TB/85u2xvBb0e2FtiX/aXAPSbnZ73T4AA9J/hxRGMtvV/asAk4OI0CFmAAISMRaeSECAAgwedYfGfIvR6YJ8TmQD0mZtej0GAAIyR48lRZFn8j4MnAf1NZgLQX2Z6PA4BAjBOlvdGMupDf5fi8lDgJUKx/p0AxMpDb3IRIACD5t37l/1siYUEbKG377EEYF/eWkPgLgECMOB8yLb1fypCEtDHxCYAfeSkl2MSIACD5Wrx/zJQEhB/chOA+Bnp4bgECMBA2Wa97/9QhF4PjD3BCUDsfPRubAIEYKB8R/6yny0xkYAt9OoeSwDq8lU7Ag8RIACDzA9b/+eD9Hpg3ElOAOJmo2fjEyAAA2Rs8b8cIgm4zKhFCQLQgro2EXhBgAB0PhMs/vMD9FDgfFZ7lXzj0Rt7NVWtncdvPr6t+/E33rr9/eTtJ9Xaalnx9fPrw9O//uZlF6b/HeEnC/8arAlADao71emhv+WgScByZjWPGEEATvF58s3vDyMCP/39Tw5RFvu5c3Ek/nPHvKYcAVhDLcgxmb/sZ0sEJGALvbLHjioAR0o9L0RPP31674q/bPL71NYz/z0IEYA9KFdow9b/NqgkYBu/UkePLgC3twbefHz4+Xd+UQrZLvX0eNV/DkyP/HcJ2TMAe2Eu247FvwxPrweW4billgwCcOQzScDxfvUWZjWPPd7n723Lfw6THvjPGUfJMnYAStLcoa4e7vtPT9xP/ezhhwS0TSmTAPRwJfq9X3+37YSo2HoP/CsO/2TVBGBv4hvbi/5lP8et9V52KbweuHFCbjw8kwBEvx0w0ra/2wHzTkwCMI9TiFLRF9VX76tH7+8xVBLQbnpnE4CJdMQH00Z44G/uLI7If27fS5cjAKWJVqqvh8X0Wx//02uj7+VNBQ8FVpq4F6rNKAATkt/+4HdtgJ9pdeSt/1NDjsa/1WQgAK3IL2i3h8X/oXvpJGBB2MmKZhWASPejM139H0+vSPxbnvIEoCX9GW338NDfpavnHsZwjOLSWGZEpsgCAlkFINIuQLar/+P0tAvgq4AXfFS1KRr96nnugkkC2syf6K1mFoAIr6VlvPo/nhMR+Lc+P+0AtE7ggfajb/0vfXgu+njuRuH1wH1OjMwCEGEbOrMAROC/z1l2vhUC0DqBM+33sFiuWSR7GNcxkjXjCzqdwnaLALT9hsAMr/6dm/wEwC2AkB+MPWyXz936PwW4FwlYusMRcjIF7xQBIACtpigBIACt5t6D7fbyZT9b4JGALfTGOTazAER4EDDrA4AeBHxBwC2AYJ+l0RfGLVf+r6KO/oDjsb8lxxxsujXvDgFo+30ABKAt/9YnIAFoncCd9qMv/lNXT33ZzxaEJGALvf6PzSwAEbagPQPQ9hZM6zOYALRO4Iv2e1j8a1wJ9/C8g52AeicJAWi7ABGAtvzrnVnzaiYA8zhVLdXDIlhj8T9C7WH8x756M6DsqZBZACJ8J31mAYjAv+zZtLw2ArCcWfEjom+D11z8jzB72AEhAcWn/oEAPCkPdUGN18+vD5MEZPwhAB4CbD7voy98e74KF53F3cliJ6DMqZNZAKJ8FW3WBwGj8C9zJq2rxQ7AOm5Fjuphwdt7oeuByRT+nmJUZLIFrSSrAES6+sx4GyAS/5anJgFoRL+H+957bP2fwk8CGk3KBs1mFYBoV5/ZdgGi8W9w6t02SQAakc/wZT9b0EZ/LuI4tlaStIVtpGMzCkDEq89MfxMgIv9W5yQBaEA++hVulO1tEtBgcu7cZDYBiPDu/7mIM9wKiMx/51PPDkAL4NEX/4lJ6S/7Wcu5h9skdgLWpvviuGwCEH3refRbAdH5bzublh9tB2A5s9VH9LD4R9vS7kkC9n5gcvVEDHRgJgHo4e/Pj/xaYA/89z5ghUaUAAATGklEQVQ1CcBOxHtYyKIt/sdoehCnY19JwLITKoMA9LjtPNLtgB75LzuL1pcmAOvZLToy+v3sqIs/CVg0zborPLoA9PzA2QgPBvbMf4+TmQDsQDn6FWyUh/4uRRGd47H/vfC8xHuPfx9VAKarzmnxmX73/tOjCIzEv+b8IQA16R4Ohx4WrZ62rXvgOU0pEjDvxBpBAO4u8qMs+qfSm0Rg+rn+22cvfj+/nhdy5VJZ+NfASABqUP2iTvf968CNfjvlOOrot1XqpLOs1j/8+JNlByiNAALFCBCAYihfr8iX/dSDSwLqsd2zZgKwJ21tIXCfAAGoNCOib1X3vkXdw+6KnYDLJxcBuMxICQRqESAAFchGX/ynIUf5sp8t+HuSgJ6es9iSydJjCcBSYsojUI4AASjH8ramHhb/ke5Nk4DCE3jn6gjAzsA1h8AdAgSg4HToYTEaafE/RteDdB37aifg/glHAAp+AKkKgYUECMBCYA8Vj/5g2oiLf28S0PuzFwVPl9uqCEBpoupDYD4BAjCf1YMlo1+FZlh4omdwnEAji9jS04kALCWmPALlCBCAQiyjv/KXZes5+i6MWwFuART6yFENApsJEIDNCOM/+JftirMHCciWybnTzA5AgQ8gVSCwkgABWAnu7mGRr/4zLjQ9PIw5zZ8RXsXcevoQgK0EHY/AegIEYD272yMj33fOcN//XHw9SECW2zIPnWIEYOMHkMMR2ECAAGyAF10Asl9hRpeAjLszr55uBGDjB5DDEdhAgABsgDcdGvV+s8XlRbB2aDZO8MqHE4DKgFWPwAMECMDG6RHx/r/F/36okSUg+y4NAdj4AeRwBDYQIAAb4E2HRhMAi//pQKNKAAHw54A3fgQ5HIHVBAjAanQvDowkAJkf+psTY8TbNQSAAMyZu8ogUIMAAdhINZIAeKr8cpjRJIAAEIDLs1YJBOoQIAAbuUZZUGz9zwsy0psBdmz8LYB5s1YpBOoQIAAbuUYQAIv/shCjSIDcCMCymas0AmUJEICNPFsvJq4i1wXYOrep1wSAAKybvY5CoAwBAlCAY8vnALLfQ94SX+s3A2RHALbMX8cisJUAAdhKsOGXAbmC3B5eKwmQ3YvsfA/A9jmsBgTWEiAAa8ndOa7FdrIFpEBwX1TRQgJc/ROAcjNYTQisI0AA1nF77ag9FxGLf6HQ7lSz58Oc8vsSvB2A8nNZjQjMJUAA5pKaUW6PRcRDfzOCWFlEfivBbTiMAGyA51AENhIgABsB3j289q0Ai3/BsE5UJb+6fE/VTgD2Z65FBI4ECEDhuVBzEXHfuHBYZ6qrtRPgmxpfB04A9pnTWkHgFAECUGFelJaA6cr/l3/81WH67WcfAiUlQH7nMyMA+8xnrSBAAHaeAyUeDPTA2M6h3WlOfvXZE4D6jLWAwDkCdgB2mBtrFhJXjTsEM7MJ+c0EtaIYAVgBzSEIFCJAAAqBnFPNdGvg3X9457bo7X///Yv/vru1b6t/Dsk2ZSYROGZ397f81udBANazcyQCWwkQgK0EHY8AAqsJvPHojdXHRjnw8ZuPb7vy+Btv3f5+8vaTKF0r2o/r59eHp3/9zcs6p/8d4ScL/xqsCUANqupEAIFZBEYQgFMDffLN7w8jAj/9/U8OURb7WZNqkrCB+M8d85pyBGANNccggEARAqMKwBFOzwvR00+f3rviLxL4zpX0zH8PVARgD8raQACBkwRGF4DbWwNvPj78/Du/6GoG9HjVfw5wj/z3miwEYC/S2kEAgdcIZBCA46AnCTjer446FY73+Xvb8p/Dswf+c8ZRsgwBKElTXQggsIhAJgHo4Ur0e7/+7qL8eircA/+9eRKAvYlrDwEEXhLIJADRbweMtO3vdsC8DxkCMI+TUgggUIFANgGYEEZ8MG2EB/7mTs+I/Of2vXQ5AlCaqPoQQGA2gYwCMMH57Q9+N5vRHgVH3vo/xS8a/z0yPtUGAWhFXrsIIHDIKgCR7kdnuvo/nnKR+Lf8GCAALelrG4HkBLIKQKRdgGxX/8dTzi7A4UAAkn8AGz4CLQlkFoAIr6VlvPo/zvcI/Fuee1PbBKB1AtpHIDGBzAIQYRs6swBE4N/61CcArRPQPgKJCRCAtt8QmOHVv3OnFwGwA5D4o9fQEWhPgAAQgFazkAAQgFZzT7sIIHA4pH0LIMqDaFkfAIzCv/WHgFsArRPQPgKJCWTeAZhib/0kOgGI9X0Me38UEIC9iWsPAQReEsgsABG2oD0D0PYWTOuPAgLQOgHtI5CYAAFouwARgLb8W5/6BKB1AtpHIDGBzAIQ4TvpMwtABP6tT30C0DoB7SOQmAABeNI0/evn14dJAjL+EABvAWSc98aMQBgCmQWg9QOAx0mQ9UHAKPxbnox2AFrS1zYCyQlkFYBIV58ZbwNE4t/yI4AAtKSvbQSSE8gqANGuPrPtAkTj3+pjgAC0Iq9dBBBI+UVAEa8+M/1NgIj8W30UEIBW5LWLAALpBCDCu//npl2GWwGR+bf4OCAALahrEwEEbglkuwUQfet59FsB0fnv/bFAAPYmrj0EEHhJIJMA9PD350d+LbAH/nt/NBCAvYlrDwEEUglAj9vOI90O6JH/Xh8RBGAv0tpBAIHXCIy+A9DzA2cjPBjYM/89Pi4IwB6UtYEAAicJjCoA01XntPhMv3v/6VEERuJfc/4QgJp01Y0AAg8SGEEA7i7yoyz6p0KbRGD6uf7bZy9+P78OMbuz8K8BmwDUoKpOBBCYReAPP/5kVjmFEECgPAECUJ6pGhFAYCYBAjATlGIIVCBAACpAVSUCCMwjQADmcVIKgRoECEANqupEAIFZBAjALEwKIVCFAAGoglWlCCAwhwABmENJGQTqECAAdbiqFQEEZhAgADMgKYJAJQIEoBJY1SKAwGUCBOAyIyUQqEWAANQiq14EELhIgABcRKQAAtUIEIBqaFWMAAKXCBCAS4T8OwL1CBCAemzVjAACFwgQAFMEgXYECEA79lpGID0BApB+CgDQkAABaAhf0whkJ0AAss8A429JgAC0pK9tBJITIADJJ4DhNyVAAJri1zgCuQkQgNz5G31bAgSgLX+tI5CaAAFIHb/BNyZAABoHoHkEMhMgAJnTN/bWBAhA6wS0j0BiAgQgcfiG3pwAAWgegQ4gkJcAAcibvZG3J0AA2megBwikJUAA0kZv4AEIEIAAIegCAlkJEICsyRt3BAIEIEIK+oBAUgIEIGnwhh2CAAEIEYNOIJCTAAHImbtRxyBAAGLkoBcIpCRAAFLGbtBBCBCAIEHoBgIZCRCAjKkbcxQCBCBKEvqBQEICBCBh6IYchgABCBOFjiCQjwAByJe5EcchQADiZKEnCKQjQADSRW7AgQgQgEBh6AoC2QgQgGyJG28kAgQgUhr6gkAyAgQgWeCGG4oAAQgVh84gkIsAAciVt9HGIkAAYuWhNwikIkAAUsVtsMEIEIBggegOApkIEIBMaRtrNAIEIFoi+oNAIgIEIFHYhhqOAAEIF4kOIZCHAAHIk7WRxiNAAOJlokcIpCFAANJEbaABCRCAgKHoEgJZCBCALEkbZ0QCBCBiKvqEQBICBCBJ0IYZkgABCBmLTiGQgwAByJGzUcYkQABi5qJXCKQgQABSxGyQQQkQgKDB6BYCGQgQgAwpG2NUAgQgajL6hUACAgQgQciGGJYAAQgbjY4hMD4BAjB+xkYYlwABiJuNniEwPAECMHzEBhiYAAEIHI6uITA6AQIwesLGF5kAAYicjr4hMDgBAjB4wIYXmgABCB2PziEwNgECMHa+RhebAAGInY/eITA0AQIwdLwGF5wAAQgekO4hMDIBAjByusYWnQABiJ6Q/iEwMAECMHC4hhaeAAEIH5EOIjAuAQIwbrZGFp3A1TMCED0j/UNgYAIEYOBwDS04AQIQPCDdQ2BsAgRg7HyNLi6Bm8PhIzsAcfPRMwSGJ0AAho/YAIMSIABBg9EtBLIQIABZkjbOaAS+9uirV3YAoqWiPwgkIkAAEoVtqGEITFf/X3/01Q8JQJhIdASBfAQIQL7Mjbg9genqf+oFAWifhR4gkJYAAUgbvYE3InC8+icAjQLQLAIIvCBAAMwEBPYkcPXsa4/+7v1ji3YA9mSvLQQQuEeAAJgQCOxH4Lj1TwD2Y64lBBA4Q4AAmBoI7EPg5vD5+19/9OjZ3dbsAOzDXisIIHCCAAEwLRCoTeD+tj8BqM1b/QggMIsAAZiFSSEEVhG4+8DfqQrsAKzC6iAEEChBgACUoKgOBF4lcPXs5vB/P3p1y/+1Um998M4NeAgggEALAgSgBXVtjkXg6uV9/TmLvlsAY6VvNAh0S+Czj/9y+4UkfhBAYH8CV//4wbuf3Bxu3tu/aS0igEB2AgQg+www/pYECEBL+tpGIDkBApB8Ahh+UwIEoCl+jSOQmwAByJ2/0bclcPX2v37rvc+vPv+kbTe0jgACGQkQgIypG3MUArcP4HgTIEoc+oFALgIEIFfeRhuLwK0AeBAwVih6g0AWAgQgS9LGGZHArQC4DRAxGn1CYHwCBGD8jI0wLoGX7+C+9W/vfHi4Ofwsblf1DAEERiNAAEZL1Hh6InDvSzjcCugpOn1FoH8CBKD/DI2gXwL3BMCtgH6D1HMEeiRAAHpMTZ9HIfDa13CSgFGiNQ4E4hMgAPEz0sNxCZz9Hm63A8YN3cgQiEKAAERJQj8yEnjwD3F4MDDjlDBmBPYjQAD2Y60lBF4lMOsvcREBEwcBBGoQIAA1qKoTgXkEZgnAsapbETgcDlc3V9/2FwTnAVYKAQTOEyAAZgcC7QgsEoBXu3n7wOBXPr/9U8KkoF2IWkagVwIEoNfk9HsEApsE4ByA407B7b/7cqER5okxIFCFAAGoglWlCMwiUEUATrVst2BWHgohkIoAAUgVt8EGI7CbAJCCYMnrDgIBCBCAACHoQloCTQXALYS0887AEbglQABMBATaEQgpAHYL2k0ILSOwJwECsCdtbSFwn0A3AkAKTF0ExiNAAMbL1Ij6IdC1ALiF0M9E01METhEgAOYFAu0IDCkAdgvaTSgtI7CEAAFYQktZBMoSSCMApKDsxFEbAiUIEIASFNWBwDoCqQXALYR1k8ZRCJQiQABKkVQPAssJEICZzHyR0UxQiiGwgAABWABLUQQKEyAAG4CSgg3wHIqA7wEwBxBoSoAAVMDvbyFUgKrKIQnYARgyVoPqhAAB2CkouwU7gdZMVwQIQFdx6exgBAhAw0BJQUP4mg5BgACEiEEnkhIgAAGDdwshYCi6VIUAAaiCVaUIzCJAAGZhal/IbkH7DPSgPAECUJ6pGhGYS4AAzCUVsBwpCBiKLi0iQAAW4VIYgaIECEBRnDEqcwshRg56cZkAAbjMSAkEahEgALXIBqvXbkGwQHTnlgABMBEQaEeAALRj37xlUtA8gvQdIADppwAADQkQgIbwozbtFkLUZMbrFwEYL1Mj6ocAAegnq6Y9tVvQFP+wjROAYaM1sA4IEIAOQoraRVIQNZl++kUA+slKT8cjQADGy7T5iNxCaB5BNx0gAN1EpaMDEiAAA4YacUh2CyKm0r5PBKB9BnqQlwAByJt985GTguYRNO8AAWgegQ4kJkAAEocfdehuIURNpny/CEB5pmpEYC4BAjCXlHJNCdgtaIq/WuMEoBpaFSNwkQABuIhIgagESEHUZOb3iwDMZ6UkAqUJEIDSRNXXnIBbCM0jmN0BAjAblYIIFCdAAIojVWFEAnYLIqbibwHETEWvshAgAFmSNs7XCJCCtpPi6nD17L8+/vP7bXuhdQTyEiAAebM38jME3ELYZ2oQgH04awWBcwQIgLmBwAwCdgtmQFpa5Orw0Wf//pcPlx6mPAIIlCFAAMpwVEtCAqRgY+gEYCNAhyOwjQAB2MbP0Qi8RsAthHmTwhsA8zgphUAtAgSgFln1InCHgN2CV6aDq3/nBwLNCRCA5hHoQFYCmaXA1X/WWW/ckQgQgEhp6AsCh8Nh+FsIrv7NcwRCECAAIWLQCQQeJjDKboFX/8x0BOIQIABxstATBBYR6E0KLP6L4lUYgeoECEB1xBpAYF8CUW8huO+/7zzQGgKXCBCAS4T8OwIDEGi5WzBd+V/dXH306X/86dkAKA0BgWEIEIBhojQQBJYR2EUKPPC3LBSlEdiRAAHYEbamEOiBQIlbCK76e0haH7MTIADZZ4DxIzCDwEO7BdNif6zCVv8MmIogEIQAAQgShG4ggAACCCCwJwECsCdtbSGAAAIIIBCEAAEIEoRuIIAAAgggsCcBArAnbW0hgAACCCAQhAABCBKEbiCAAAIIILAnAQKwJ21tIYAAAgggEIQAAQgShG4ggAACCCCwJwECsCdtbSGAAAIIIBCEAAEIEoRuIIAAAgggsCcBArAnbW0hgAACCCAQhAABCBKEbiCAAAIIILAnAQKwJ21tIYAAAgggEIQAAQgShG4ggAACCCCwJwECsCdtbSGAAAIIIBCEAAEIEoRuIIAAAgggsCcBArAnbW0hgAACCCAQhMD/AwAgi8DvJXgsAAAAAElFTkSuQmCC;" vertex="1" parent="1">
          <mxGeometry x="470" y="150" width="90" height="90" as="geometry" />
        </mxCell>
        <mxCell id="9YNmxNu1mqhPtrFuAmMJ-11" value="" style="shape=image;verticalLabelPosition=bottom;labelBackgroundColor=default;verticalAlign=top;aspect=fixed;imageAspect=0;image=data:image/png,iVBORw0KGgoAAAANSUhEUgAAAgAAAAIACAYAAAD0eNT6AAAAAXNSR0IArs4c6QAAIABJREFUeF7tvQmcXUWZ9//ce/uufXvLHshCNrZAFhJEkCWBsC+yKCDoKw7vK8O8wOir44w6ozjj4PqXGWBkE8VBR8VXfBWFgIyAyJ6YgECQbGQhSaeTdKf37tvd9/+p27lJp3OXOudUnXrqnN/5fEKTdNVTT32furd+56k6dSKECwRAAAQ0Enho+4IlRPkvF5vI5/NLNDZnxHQi2kh1semFthORBiM+oFFWBJ6hPD1LRM+cPf6uZ1h5NsKZCFfH4BcIgIDdBIoTfxAn/GJkxsbnY8K3e5jq9z5PXxGNnD3+rlv1N+asBQgAZ7xQGgRAQILAD9+bd2skQvvv+iWqWFVE3O1n993xW+U4nDVHIE9f4SYCIADMDQe0DAKBJPDQ9vlPB/muH5N/IIetX5165uxxdy31q7Fq7UAAVCOE34MACEgTwOQvjQoFw0uAjQiAAAjvIETPQUApAaT9leKEsSATYLIcAAEQ5EGGvoGATwSCPvkLjNjw59NgCkszeVpq+gkBCICwDDb0EwQ0Egi6AMC6v8bBE17TxpcCIADCO/jQcxBQRuA/t83LKzPG0BAEAMOgBMCls8fdZXQONtp4AOKHLoBA6AkE/e5fBHhy4vTQxxkANBAwvAwAAaAhpjAJAmEiEPSd/+KUv7E188IUUvTVPwJGlwEgAPwLNFoCgUASCLoAQPo/kMOWS6cgALhEAn6AAAg4J4D1f+fMUAME9hGAAMBQAAEQsJcABIC9sYPnxglAABgPARwAARBwTQACwDU6VAQBCACMARAAAXsJQADYGzt4bpwABIDxEMABEAAB1wQgAFyjQ0UQgADAGAABELCXAASAvbGD58YJQAAYDwEcAAEQcE0AAsA1OlQEAQgAjAEQAAF7CUAA2Bs7eG6cAASA8RDAARAAAdcEIABco0NFEIAAwBgAARCwlwAEgL2xg+fGCUAAGA8BHAABEHBNAALANTpUBAEIAIwBEAABewlAANgbO3hunAAEgPEQwAEQAAHXBCAAXKNDRRCAAMAYAAEQsJcABIC9sYPnxglAABgPARwAARBwTQACwDU6VAQBCACMARAAAXsJQADYGzt4bpwABIDxEMABEAAB1wS4CYCJicWFvkxKnui6TyMrtubWUm6oX4mt0Uaa4nMK/1T8qaURGN1PQMRS/GF0QQAwCgZcAQEQcEiAiwA4Z+wDVJz8HXZBqviGnscLk4eKCWRm5gKamT5fql0UUk9AxHJD92PqDTu3CAHgnBlqgAAIcCFgWgCISV9M/n5dXiePRfW34I7fr2BVacdrLBV0AwJAAUSYAAEQMETAtAD42OTXfO+524kDd/6+h6pqgyvb71CS1anaUOkCEAAuwaEaCIAAAwImBcD8uhtpXvavjVBwOnFg8jcSpqqNiiUdEUtDFwSAIfBoFgRAQAEBUwLA79T/aFROJ45lY+9UQBsmdBBwKuYU+gABoBAmTIEACPhMwJQAMHn3LxA7EQBil79Y+8fFkwAEAM+4wCsQAAHmBMIqAERYntp9s1R0kP6XwmSskBMxp9hJZAAUA4U5EAABHwmYEgC6H/uTQSgrAJABkKFprozbTZ0KPIYAUAARJkAABAwRMCUAsARgKOABbBYCIIBBRZdAAAT0EzAlAExvAnQ6aWAToP6x6LYF7AFwSw71QAAEQk3AlAAQ0E0uAzgVANgHwPNjYnD9XwDBEgDPYQGvQAAEZAiYFACmsgBOJ/8iR5wCKDOi/C1j8O4fAsDfUKM1EAAB1QRMCgDRF7/3Ani5Y8RmQNWjz5s9t0LOW6sH1UYGQCFMmAIBEPCZgGkBILorMgFCCOh8GZBoR9XdIpYDfB6ko5oTIq74cieznmAJwDB/NA8CIOCFAAcBUPRfCABVrwEu2uwa2EmJaKOW8+JFRgCvAvYy+pzVLb7JUcUbHZ21XLY0MgCKQMIMCICAAQKcBICO7tfFplM2Nl2HadgEAQgAjAEQAAF7CUAA2Bs7eG6cAASA8RDAARAAAdcEIABco0NFEIAAwBgAARCwlwAEgL2xg+fGCUAAGA8BHAABEHBNAALANTpUBAEIAIwBEAABewlAANgbO3hunAAEgPEQwAEQAAHXBCAAXKNDRRCAAMAYAAEQsJcABIC9sYPnxglAABgPARwAARBwTQACwDU6VAQBCACMARAAAXsJQADYGzt4bpwABIDxEMABEAAB1wQgAFyjQ0UQgADAGAABELCXAASAvbGD58YJQAAYDwEcAAEQcE0AAsA1OlQEAQgAjAEQAAF7CUAA2Bs7eG6cAASA8RDAARAAAdcEIABco0NFEIAAwBgAARCwlwA3ATAxsbgAc1LyRCVQE5EGSkQbldiCEbMEWnNrSfxhdEEAMAoGXAEBEHBIgIsAOGfsA1Sc/B12AcVDRmBDz+O0ofsxDr2GAOAQBfgAAiDgjoBpASAmfTH54wIBpwQYCAEIAKdBQ3kQAAE+BEwKAEz+fMaBrZ6sbL/D5LIABICtAwd+gwAIEJkUAEj7YwR6JSD2BAgRYOiCADAEHs2CAAgoIGBKAMyvu5HmZf9aQQ9gIuwEDGYBIADCPvjQfxCwmQAEgM3Rg++CgMG9ABAAGIIgAAL2EjAlAJD+t3fMcPPc4DIABAC3wQB/QAAE5AlAAMizQkmeBJAB4BkXeAUCIMCcgCkBgD0AzAeGRe5BAFgULLgKAiDAh4ApAYBHAPmMAds9wSZA2yMI/0EABIwQMCUARGexD8BIyAPVqMH1f8ERewACNZrQGRAIGQGTAgBZgJANNg3dNXj3DwGgIZ4wCQIg4CMBkwJAdBN7AXwMdsCaMrj2XySJDEDAxhS6AwKhImBaABRhQwiEath56qxI+4vJn8GbASEAPEUSlUEABIwS4CIAihDEsoCqVwELm3gdsNHhpbRxvA74YJwRpXRhDARAIHQEuAkA1QGoi02nbGy6arOwBwKCADIAGAcgAAL2EoAAsDd28Nw4AQgA4yGAAyAAAq4JQAC4RoeKIAABgDEAAiBgLwEIAHtjB8+NE4AAMB4COAACIOCaAASAa3SoCAIQABgDIAAC9hKAALA3dvDcOAEIAOMhgAMgAAKuCUAAuEaHiiAAAYAxAAIgYC8BCAB7YwfPjROAADAeAjgAAiDgmgAEgGt0qAgCEAAYAyAAAvYSgACwN3bw3DgBCADjIYADIAACrglAALhGh4ogAAGAMQACIGAvAQgAe2MHz40TgAAwHgI4AAIg4JoABIBrdKgIAhAAGAMgAAL2EoAAsDd28Nw4AQgA4yGAAyAAAq4JQAC4RoeKIAABgDEAAiBgLwFuAmBiYjFNSp6oDGgi0kCJaKMyezBkjkBrbi2JP4wuCABGwYArIAACDglwEABi0p9fdyOJn7hAoBqBDT2P04bux6oV8+P3EAB+UEYbIAACegiYFgBi4p+X/Ws9nYPVQBNgIAQgAAI9wtA5EAg4AZMCQNzxnzP2gYATRvd0EljZfofJZQEIAJ3BhW0QAAG9BEwKADH5I+2vN75Bty72BAgRYOiCADAEHs2CAAgoIGBKACD1ryB4MFEgYDALAAGAMQgCIGAvAQgAe2MHz4cJGNwLAAGAQQgCIGAvAVMCAOl/e8cMN88NLgPwFABrWvJLiIaWRCLRM4aDJf7O74rHiGqiERr+yc8/eAQCQSewvG2+kS5CABjBHshGTWUAsrE5NCt5ixam+Tx9RRiORumZ8enIM6UaiZT6x7d35Z/mOuEX/RUTfjoewaSvZejAKAjIEzAlALAHQD5GKFmZQBAFwMgeCzEwsTZy62gKBwkAcdcfiYjJn/clJv50nLeP8A4EwkLAlADAI4BhGWH6+2lqE6DODEApaqOFwH4BsKZl8NZIJPJl/ai9tYDJ3xs/1AYB1QRMCQDRDywDqI5m+OyZuvsXpP0WAKLNSISWFpcE9guAt3cN5bmHHpM/9wjBvzASMCkAkAUI44hT2+endt+s1qADayYEgHBvQiZSmPsL/7Hl7n9MpuSWBQe4URQEQEA1AZMCQPQFewFURzQ89kyl/ouETQmASKSwMXBpBOv+4Rns6CkI6CBgWgAU+wQhoCO6wbRp8LG/g4CaEgDFpYCILXf/9Sns+A/mRxG9sp0AFwFQ5IjXAds+ovT4X3wNMKfXAUMASMYa6X9JUCgGAj4T4CYAVHe/LjadsrHpqs3CHggY2QRYxC6WASI2PPMvHIYAwKcFBHgSgADgGRd4xZ+A4QyAEAD8d/+LQ3/qktgAyH84w8MwEoAACGPU0WcVBEwKgMI+AAgAFWGEDRAILwEIgPDGHj33RgACQIIfMgASkFAEBAwRgAAwBB7NWk8AAkAihBAAEpBQBAQMEYAAMAQezVpPAAJAIoQQABKQUAQEDBGAADAEHs1aTwACQCKEEAASkFAEBAwRgAAwBB7NWk8AAkAihBAAEpBQBAQMEYAAMAQezVpPAAJAIoQQABKQUAQEDBGAADAEHs1aTwACQCKEEAASkFAEBAwRgAAwBB7NWk8AAkAihBAAEpBQBAQMEYAAMAQezVpPAAJAIoQQABKQUAQEDBGAADAEHs1aTwACQCKEEAASkFAEBAwRgAAwBB7NWk8AAkAihBAAEpBQBAQMEYAAMAQezVpPAAJAIoQQABKQUAQEDBF4pfN62jOwwlDr+pvF64D1Mw5rCxAAEpGHAJCAhCIgYIhA0AVAItpIY2vmGaKLZoNMAAJAIroQABKQUAQEDBGAADAEHs1aT2BS/AKaGD/fWD/wOmBj6NEwCASDgEj/CxEQ5Gty4vQgdw99M0QAAkACPDIAEpBQBAQMEQiDABgbn0+JSIMhwmg2qATmZ+402jVkAIziR+MgEAwCWAYIRhzRC/8ImL77Fz2FAPAv3mgJBAJLAFmAwIYWHdNEAAJAEiyWACRBoRgIGCSALIBB+GjaKgIcJn9kAKwaMnAWBPgTCLoIwJkA/Mcgdw9NP/o3kg+WALiPFvgHAhYREEsB63rvxsFAFsUMrvpHgNPkjwyAf3FHSyAQKgLreu8pCIGgXsgEBDWy+vrFbfKHANAXa1gGgdATCLoIEAGGEAj9MK8KQEz84rCfbHRO1bJ+FwjlEsCOLveYJ9W6rytT04tvMvZRxn8CuseM/z1y1qIQAuLaM/BqYJcGhBAQRwbjrABnYyOopcWkLy6uE3+Re2gEwPIN+UKfVUyw4gt9UjZCCyZ4H77Cn9XN6nzz7hEs6CKwYGKECmNHs4jU5b/Ndm16Y+Hs1I00O/XXNuOG75YQCLwAEBNscfLXERPxpe5WCKzeeWDy1+EbbPIk4GXM8OwRf69sEQCY/PmPpSB5GGgB4NcEe97M4Ts7J5dfvjnxCWX9IyDGixg3uPwhYIMAwOTvz1hAKwcIBFoAPPjn4dS6H9d1xzv7MvfTNz/6jzacE3AjHJ23ghqCAHcBgMkf49QEgcAKAL/vsJ3c0fntm4mBhTblCDgVjnJWUWo0Ac4CAJM/xqspAoEVAH7fYTsRAH77Zmpwod3qBJAFqM5IRQmuAgCTv4rowoZbAhAAbsmVqCdzN6d7U6LC7sCUDwQgAHyAzHQJAJO/P7FHK+UJBFIAmJpkZb7MTfmGDwFPAngiwJ+4cMsAYPL3J+5opTKBQAoA0WUTaXaZDIAp3/BB4EkAAsCfuHASAJj8/Yk5WqlOILACQDz7r+LQn+oIh0s42QPgt2+yfUA5/wnIikb/PQtWi1wEACb/YI0r23sTWAHg9057J3dyfvtm+yANqv9ORGNQGfjVLw4CAJO/X9FGO7IEAisABAC/7rSdTP7FwPjlm+xAQDn/CcjsGfHfq2C2aFoAYPIP5riyvVeBFgB+bbhzk8b1yzfbB2hQ/XcjGoPKwo9+mRQAmPz9iDDacEMg0AKgCERXyl1FCleXb24GA+roJyDGTPGlQPpbQwv7M25t843AwORvBDsalSQQCgEgWIiJVlw7Or0fDyzeBKjyrW4qfZOMO4oZIICJ3wD0fU2ayABg8jcXb7QsRyA0AkAOB0qBAAgEkYDfAgCTfxBHUfD6BAEQvJiiRyAAAqMI+CkAMPlj+NlCAALAlkjBTxAAAdcE/BIAmPxdhwgVDRCAADAAHU2CAAj4S8APAYDJ39+YojXvBCAAvDOEBRAAAeYEdAsATP7MBwDcK0kAAgADAwRAIPAEdAoATP6BHz6B7SAEQGBDi46BAAgUCegSAJj8McZsJgABYHP04DsIgIAUAR0CAJO/FHoUYkwAAoBxcOAaCICAGgKqBQAmfzVxgRWzBCAAzPJH6yAAAj4QUCkAMPn7EDA04QsBCABfMKMREAABkwRUCQBM/iajiLZVE4AAUE0U9kAABNgRUCEAMPmzCysc8kgAAsAjQFQHARDgT8CrAMDkzz/G8NA5AQgA58xQAwRAwDICXgQAJn/Lgg13pQlAAEijQkEQAAFbCbgVAJj8bY04/JYhAAEgQwllQAAErCbgRgBg8rc65HBeggAEgAQkFAEBELCbgFMBgMnf7njDezkCEABynFAKBEDAYgJOBAAmf4sDDdcdEYAAcIQLhUEABGwkICsA3pd9gMbULLaxi/AZBBwTgABwjAwVQAAEbCMgIwAw+dsWVfjrlQAEgFeCqA8CIMCewCud19OegRVl/cTkzz6EcFADAQgADVBhEgRAgBcBMfkLEVDqwuTPK1bwxj8CEAD+sUZLIAACBgms672H1vXevd8DsdYvNvxhzd9gUNC0UQIQAEbxo3EQAAETBERGABO/CfJokxMBCABO0YAvIAACIAACIOATAQgAn0CjGRAAARAAARDgRAACgFM04AsIgAAIgAAI+EQAAsAn0GgGBEAABEAABDgRgADgFA34AgIgAAIgAAI+EYAA8Ak0mgEBEAABEAABTgQgADhFA76AAAiAAAiAgE8EIAB8Ao1mQAAEQAAEQIATAQgATtGALyAAAiAAAiDgEwEIAJ9AoxkQAAEQAAEQ4EQAAoBTNOALCIAACIAACPhEAALAJ9BoBgRAAARAAAQ4EYAA4BQN+AICIAACIAACPhGAAPAJNJoBAW4E8pQvuBShCDfX4A8IgIAPBCAAfIDMoYn4unUFN+Jr11Hx/0f6Jf599JWbM/ugf8rNHvX3446l3NRpHLoHH/YR2DXUS7/teod25Htodc922ti3h/ppkAbyQzRA4k+ehnK5Q3nFayhKEaop/InS2EQd1UZqqC6SoPpogk5JTaELa4+kcdEUWDMiEO9ZU/Amse9n4TPePfxvxatYZv8/1CQpF595oID4e+LA3/vTx1AufQyjXsIVXQQgAHSRNWhXTPAjJ/pSk7tK94RQKIqDkf+vsg3YOpTAzqEe+lnXW/Rc92Za17eLuvIDNJjr14oqFk/Q5EQ9TYhm6LTMNLqq9liaEE1rbRPGhwkUJ/La3Y8c9HdtfIQwEGJAiIOaJHXVX6itKRg2QwACwAx3pa2KCT/z+PLhL4USd/JKG6tmLJmgfH2WhBAY2Jcd6P7AqdVq4fcSBHrzg/S9ztX0VPdGWte7i3pzfRK19BUZqolRLp2gOclxdEp8Mp0WP4zOiE+hVCSmr9EQWRYTvrizF3f0h9zF+82hJkmUqi+02t0wLAS6Msv89gLtKSYAAaAYqF/mipM+hwlf9FlM+pRMlO1+zwdOpdy0aVgycDhA2vJ99N2OP9Ev2t6kvf1dDmurLS4m/KF4jAbFz5rSk7xYRjgrMZXOTUyj8xNHUGMkqdaJgFsTE71vd/jVWBYnffGzzCWWEkSGAGKgGkyev4cA4BmXkl6xmfSFd/vu9CtN+uXQCjGArEDlgffvHSvoodbV1GZ40hdeFu/0y036lXpyQeIIujQ5ky5MzLDok+avqyzv9CtM+uXodNcOZwQgBvwdP15agwDwQs+HukGZ9EuhEhkBsUwAMTBM59HutfTN3c9Ty1APDWhey682dL1M+qVsT4xm6KrkkfSR1JE0LVpXrflQ/L54t288vS9oS9ztOwmKEAMQAk6ImSkLAWCGe9VWgzzxl+p8mLMCD3W+QXfueZn29HdWHRe6C6ie+Ev5e3lyNl2XOoYW1UzQ3R2W9mv3PEKZfRv5jDqoeNIv1RcIAaMRrto4BEBVRP4WCNvEP5pumITADzpep/9ofcX6NL/bT8i5ien0ydRx9P74JLcmrKoXpol/dGCwPMBzqEIAMIlL2Cf+MAmBn3S+Sd/Z8yK1Wr6+r+qjc2HiCLo5PZ+OrxmnyiQrO2Ge+CEEWA3FQ5yBAGAQn4Y77zL/+N4+DvnxYyru5vcbV5AyAruHeumvWn5Db3a85zfGQ9rzI9XvtJMfTx1Dn0mfQGMDctgQm4lfBEI8wrfvMT6ncdFRHksDOqg6twkB4JyZshri2f3i8/vKjLo1VJ8dfpSP6WW7ELh17/P047bXKF/qFD6fmffVpcs+xuezK4c0J04e/PvMIvpE6ljTrrhuP8ib+1xDKVMRQkA1UWf2IACc8VJSGul+dxhtFAEi3f/NPS9QR3+3u04rrDWQTlAuVf6sBoVNeTb1gfhh9E+ZE61bFmBz1+/DBj/PQd5nQJwl0FW77ODjiVUZh52KBCAAfB4guOv3Blw8Olg4VMiCdxB8dOev6KX2d711WFFtznf9lbr4+cxiuik9XxEFfWbY3fVnx+vrrCbLyAZoAlvBLASAT8xx168WNOdswObBDrr0vZ9SO4O7frHWLyZ/m6+l8Sl0W+0pNC3G8/wANnf9IsjM1vqdjjuRDWhr/KTTaijvkgAEgEtwTqqJyb/hjrucVNFXlvlav5OOc8wG3N6xgr675xUWa/02pfyrxb0+kqBvZk+lixmdKMjurl9M/i5O8KvG3sTvkQ3whzoEgGbOSPlrBkxUWBLgcJrg1c2/pBUdm/V3WKIFW1P+1br2qfQC+rvMomrFtP8ed/3aERNEgH7GEAAaGePxPo1wR5k2KQIGaIhO3vwDamVykp/tKf9qo+aSxEy6s+4MqqFotaJafo/JXwvWkkaxJKCXNQSABr5Y79cAVcKkCRGwZaiTLtzyX9Sd65HwUG+RIKX8q5E6oWYCfbduKU2N+vvoKqvJX2z0C0jKv1K8IQKqfRrc/x4CwD27kjVZrfeLN/aJg31CdPkpAl4b2EVXv/dzyhl+cY8Ib5gm/+JwFpP/vXVn0XyfThDE5G/2i0RsDhRiAJc6AhAA6lgSJn+FMD2YEpsD26++xoOF6lW/3/E63db8dPWCPpQI4+RfxCo2Bz5Qt4xOiU/WSrpx679SEN/apxWaBuMQAWqhQgAo4slqs18I7/xHh1GnCLi3YzV9q/lZRSPHm5kwT/5FcnGK0oP159CS+OHeYJapzWryt/D5ftVBweZAdUQhABSwxOSvAKImE7s/9w9KLd/fsZq+gclfKVMVxmIUoR/Vn0unKxYB49d+VIV73m2ItX5M/vs5IhPgfUgJCxAAHjki7e8RoObqKjMBD3a8Tl9F2l9zxNybT0Zi9JO68+gkRa8Xxp2/+1j4URMiwDtlCAAPDDH5e4DnY1UVImDN4B764Naf0hCDl/kg7V9+8IyJpujh+vPpmJi3za/Y8OfjB9RDUxABHuAhA+AN3rhbPuXNgMLa+SmTFFoLnikvTwe0DPXQki0/pL5cn3EwmPyrh2BWrIF+UX8hjY+6OwIZk391xpxKtIz/Oid3rPIFGQCX4cIhPy7BGazmVgQs3Hw/i7f5BeFcf7/CL94mKDIBTi9Wk7/l5/o7Ze+2PM4JcEsOewBckWO16S9AZ/u7CobDSk5FwEU7fk5vd25z2Iqe4j1N/h56o6cX/ln9SPIo+nb2VOkGMflLo2JXECLAXUiQAXDIDZO/Q2AMi7d/5Bqp1wl/fOev6fn2jSx6ENSz/XXD/VLmfXRD+viqzYhn/MWmPxYX7vxdhQGPBzrHBgHggBkmfwewmBet9njg/R2v0Tean2HRC6z7ewvDT+vPp9Pih1U0wuZxP+Fl4xRvHQ5xbWwKdBZ8CAAHvLDpzwEs5kUrPRnQmc/R+zY/QP3Y9Mc8inLuHRGrpycaLqVsJF6yAqvUf0jO95eLnLtS2BQozw0CQJIV7v4lQVlUrNxSwAU7fkbvdO5g0ROs+6sJw4eSs+nfs2ccYozV5I/Uv5JgYz+APEYIAAlWmPwlIFlaZPRSwA0tj9F/713LojdI/asNw+3Z0+nK5JyDjLJJ/WPyVxps7AeQwwkBIMEJqX8JSJYWGbkUsHOoh07ZcB+LnmDyVx+GxkiSnm68gibsOx+A1d0/1v2VBxz7AaojhQCowgh3/9UHke0liksBSP3bHsnq/heXAlhN/rj7rx44FyWwFFAdGgRABUaY/KsPoKCU+Ocbz6Hbm59j0R3c/esNww/qzqZrN31BbyNOrOPu3wktR2WRBaiMCwKgAh+k/h191qwuPOvyOtpDA8b7gMlffwiOoxj9ac9T+huSaQF3/zKUXJdBFgACwNXgwd2/K2xWVrrsjDQ9M5aH69j1708cvtm9jj7Vu8Wfxsq1gsnfF/7YEFgeMzIAZdjg7t+Xz6bxRtoTEZp+Ucq4H8IB3P37F4bG/ACta3uR6vMGsz5I/fsWcCwFlEYNAVCCC+7+fftcGm/ovLMy9HJD3rgfwgHc/fsbhr/v2UT/0rPB30aLreHu31fuWAqAAJAecLj7l0ZldcGd6SgddX6SRR9w9+9/GOKUp41tL9CEoX7/G8fdv+/MkQU4FDkyAKOY4O7f98+lsQbPPStDr+Du3xh/Dg1/rmcTfdXvLADu/o2EHlkACICqAw93/1URBaJAZzxCUy/G2n8ggumhE7X5Qdrc9jzV5Qc9WHFYFXf/DoGpK44swMEskQEYwcOWu//2bcPn1NcfNkndJ0OzpaLPXPy+dEmGnh3Df+0/0tlbiEw+y0OsyAyTos+2+P217vX0md7NMl3zXqbC3X+udTjW4oo32RFv23zGEwEQAGU/xJzv/sUEumXlKho5kRY7MnXxQpqyaIH3LycNFt589HGWPjclXHDSAAAgAElEQVRdntbQW+cmS639iwk0sr2VaN/kP9JqfnIT5Sc1Om/IhxqRHW3Dfo+6hM+UTbEVMTOHeujttpd8IEREo972JybQrvV7KbfnwORfdKR2ViNlZjX445fDVrrX76Wu9W2H1IqPSVGiKcXWb+Ew3hZ4IGzIAOxjwfnuf+vK1bRlxaqKH1GRDZi6aCGbrIAQKmLyr3aZEC/XnZyiX02OVHPNl9+PFgDlJtFSkyoXIVBJsNgiXn7W+QZd1t+iN+Y1yWEBsO8qN4mOdoKTEKgkWEb6zcnn0TyxDAABcMgHveHOuyi+dp3eLwBJ6/nxY4iSiUJpmcm/aFaIgLkXny/Zir5ispN/0QPhs5/LGSdclKWNCR/XfCugHvnon+zkXzSXnzOZxV11dNVG6cHENYNxUW4XPdLxZ+l+uCo4Iv0vO/kX22k8cSKLZYGWJzdJd52rCMBmQAiAQwYxm/R/MkEFAeBw8i92yMQd9WiYL977A+kviWLBk2/4hOM6bipszsZo/jnD4sr0Nfru38lEWvA9m6KhOZONdsOpaBHOchEuo8GtbXuRpg8dmopXBnjE5j8nE6loX6TWGxdPVOaKG0NORYtog4twGd1fZAGGiWAJgIi4pv/LrZ9X+/D6fUc90h8nGYuR9fwSLh9ckqE/MNz852YiNT2ZFlL/a7dXG46H/p6BcCnl9G3d6+mzujYDerj7L/pqcjIVqf+2V5sdx5qDcCnlNLIAEAD7xwWbu39xdzTlwM5+N3fSolM2CgC/li+OvKyOWiIGj3/dN+qGamLUV3dgI2JUTKQlNv1V+8Y1mVJ3K1o4ZC5KcV000EEvtq+ohtzd70cIgLYVzSU3/VUzbHIydXP3X+zP+HOmV+ua77+HAIAAKBBgdfc/Iv3vdB195CfIr8m01KfWbdZC2NK9DPB2Y4xOPjMg6f8ifIN3064FABENLZzh+5e+TIOv7X2FjhnskinqrIyH9H+xIVsFgMnMRaUgYRkASwC8BEB9lvL12cKYtVUAuM1a+CEA2Kb/3abSBTSDAsBt1kK4zXUfgJZlgFHP/jtd/x85iZm6m3abtRC+cxUAyAJAABDX9D8EgLMbLJnS0y6tpY7okExR7WUO2v0PAaCdt2wDpw+00VPtlR+5lbW1vxwEAIsnGEbHDQIAAgACwPG3WeUKXDMAbYkIzWD62l/Xm+mQAVA8eofN7Wx9jsTrgpVdo47+RQZAGVnPhsK+DBDqpwBYrf+PSP9jCcDz5/oQA18/PkXfmMPj8B+x+U9sAixeEADq4+3FotJDgUYd/iP8ggDwEh21dSEAdg3xOBC9QlzjMaK6pPovbwgAtR8mYY1rBuDMs2tpVR2/9L9gBgGgfhx6sXhT71b6TvdaLyYO1C1x9j8EgBq0KqyEfRkg1BkAruv/yACo+GgfbOPwy2qpO2JeAIx+/A8CQH2svVpcONBBL6t6HBACgO0mQDFOIABCnAGAAPD6VXlofY4ZgK54hKYwfvUvMgDqx6FXi62tfyDxqmDPV4lX/yID4JmqUgNhXgYIbQaAc/ofGQCln2+6+6gEfWHugTV3tdadWSv79j83J+qJpvEYoLMASJYWTwKIJwI8XxAArDMAIr4QAJ5HuV4DOvYAQADoiRnHDMAVZ6Tp92P19Nep1ZGP/xXrIgPglKL+8v9f91q6uXert4ZKpP+FQWQAvGFVXbu7dhl1ZZapNmuFPWQAGIRp5Nv/iu7gHAB1gTntvFp6I2N+/V/0CAJgOK5cDwIqjrrr+rbTfV1vexuEEAAFflwPAioGN8z7AEIrAFi9/nfE+f8QAN6+c0vVnnpZLXUy3QAo/EUGQH3MvVp8/0A7/aF9pTczEAAQAN5GkPbaoRUAnDcAiqgjA6Bu7I/9cJaGBhVs6PLoUqknACAAPELVVH1MPkc7Wv/ozXp2PJE4B2DUhSUAb1h11G4Z/3UdZtnbhAAwHaIRLwAa6QoEgJrAdMQjNI3xEwAQAGrirMPK7tbnqM7LiYAlNgAKPyEAdETLm82wbgQMpQCIr1tHDXfc5W3EqKoNAbCfpI63AT48PU43LKpRFS1Pdko9AQAB4Amp1spv7H2Zjhzsdt8GBECBHfc9AMJHCAD3w1x7TdVPAXB/AkAARQZAzbD67lEJ+iKTRwBHHwFc7CH2AKiJtWorT3aspiW5VndmSxwBXDSEDIA7pDprhfVJgFBmAIIuAKYuXkhTFi3Q+Xkpa/vNRx8viBc3l44MwG3zUvSt2eqPkXbTv3ICQNiKrtroxqS15wAMLZzhrr8+1nqo8y26qr/ZXYsaBEB8TIoaF09054/HWkF8HfBIJBAAHgeIzuphzAAInm6fqbdRANQfNonmXny+8mF09alpemKCcrOuDFYUAOIgoM5ex3bzk5soP6nRcT0VFSI72iiy3d0dsg0C4PbutfS/3Z4FUEEAuJ1Ma2c1UmZWg4rQObaRa+2ltlfdiaHx50x33J7fFSAA/CbuoL2wCgC3d9NiIhUTqonL7dKFLtFy6ZI0PTvGBIlD2yx1BkCxVNStAJgzmfLZlJEOul26MClanID6cs+79MUel5mZMo8Aiva71++lrvXOTxm0UQCYzFo4iTUEgBNaPpcNsgAodQhQEa+byVTXROok5G6Ei470v/D5gjMz9GIjjxdeVhIAbiZTDhOpG+HC/RCg4lj/P71b6Ovd65wM/QNlKwgAUcjNPgDTd9JuMhcmRYuTwIX1MKBQ7gFgdQjQ+DFEyUTZsbp15WrasmKV9FjWNZFKO+BiA6NO0XL2sgytqOcvAARfpyl1Dml0p8KFg2iRHcs39r5H/979jmzxg8tVEQBOU+pcJlInwoWLzzIBhACQoWSojOoMgE0CQCCXEQEi5T910UJjqf/RQ0PGZ1FH5+Qv7J95di2tquN7DPBobrIigNNdtLTPBvcruPnqur5vO93t9jjgKgLAyVIAp4lUVrjYkvovjgsIADefEJ/qhF0AVBMBuidRL2EuJwT8EizzLkjTFjNL5Idgq7QEMLJwxQnV4Nv/qo2Dsn5nU1S48ze0V6Ga3+V+/4m+7XSvRgEg2hUTam5PX8k9AWISrZ3VQPEmJgN4BKhy+xg4+1xpHEAAuP2U+FAPAuBgyCMfszO12c9p2E35bKMAOEgMjHgywJYJVCwLFJ5oEBO/ZZP+SPZ/1bed7tEsAEa2J8RA8eI46Zf6zBcFTHxMkqVQkf2eggCQJWWgHASAAegBaXLZsgyttGQPQECQB6YbN/Rtozu7/uKuPxJLAO4Mo5YOAhAAOqgqsgkBoAhkCM2cd1aGXm6wYxNgCMPDust/27uVvtW91p2PEADuuBmqhccADYGXaVa1AOB0EmClxwBl2KBMZQKXLMnQc2MgADBOnBP4Ys8m+nLPBucVRQ0IAHfcDNWCADAEXqbZIAsAqs9Svj4rgwFlXBC48rQ0/W68i4oaqlQ6CVBDczDpkcA3u9fTp3o3u7NS4SRAdwZRSycBCACddD3ahgDwCDDE1b+yIEX/NpP/uwBCHCK2XX+g6236WN92d/5BALjjZqgWBIAh8DLNQgDIUEKZUgTuOCZJXz4mygIOMgAswiDtxKMdr9O5ud3S5Q8qCAHgjpuhWhAAhsDLNKtaAMTXraOGO+6SaVp/mWSCCvsAcGkh8KMZcbp5YY0W206NQgA4JWa2/Iq9r9K8wU73TjROcV8XNX0lAAHgK25njUEAOOOF0gcI7EpFac4FSRZIBtIJyqXKH/vMwkk4sZ/AtrY/0rihnHsiEADu2flcs63xkyQeBQzbFcp3AYggj7vlU2xinZ9i5s19bABodqTp8rTmFuTMD9XESGQBcPEnkMoPUXvrs94czY4nEksBuNgTaBn/dfY+6nAwtAKA1fsAIAB0jO39Ng+7vJZ6yPz7ACAAtIZZqfHjBjvpT3tf9WYTAsAbPx9rQwD4CNtpU6qXAET7rARAlTcCOuWF8gcTmH1JhnbX4CwAjAt5Ah/q30n/1fmmfIVSJSEAvPHzqXZYTwEUeJEB8GmQVWoGhwHpDcJFSzP0fBMEgF7KwbJ+a89G+kLPu946hScBvPHzqXZYNwCGWgDgSQCfPl0Mmvn23CT961F4FJBBKKxx4ZGOP9NFuV3e/IUA8MbPp9oQAD6BdtuMjiUACAC30bCv3rZMlOaex2MzFp4EsGP8vNv2Ah021OfdWTwJ4J2hZgthfQIg1BkA0Xk8CaD5k8XI/MQraqk/j42AjELC1pUZQz30l7aX1PiHfQBqOGq0EtYNgKEXANgIqPFTxcz0nIsztCuOfQDMwsLSnWv7dtAPutao8Q0vBVLDUZOVMKf/Qy8AWC0D4KVAmj7iw2a/eEKKvnsE3gmgFXJAjN/d9Re6vm+bmt5gH4AajpqsQADsGuJxW1QhwDr2AIjmWAkAQ0cCt2/bcRD59u0H/l4/efiAovrD7D+oaH19jBYv43EKn9cjgSOdvZq+Dr2ZzWdT3gwwqb1m70s0a7BHnTcu9wHkWnspt6eP4mOG96/Em8zyFf4UL+FXZlaDOkaGLIV5/T/0GQABIGz7AMSELyb5vdu20+jJv9pncOrihYUiUxYtqFaU5e8nX15LvZYeCBTZ0UaRjh4ippP/yIDnJzdRflIjyzFQzaljB7to9d5XqhVz9nuH+wDaVjRTbk9pkVc7q9H3iVdM/F3r95b0KT4mRbWzGoyLE2cBOVA6zOv/EAAhORCoONFvWbnK8aRf7oNloxiYe2GGtiV5JLx6mrJS31nibj+yvdWKif+gDmVTVBAClmUFPt27hb7RvU4qNtKFJJcBKk20I9sSk27j4onSzXsp2L1+L3Wtb6tqwoQwqepUlQJhT/9DAIRgGWDrytW0ZcUqr5+VivWFGLAhK/DdoxL0xbkxrSxkjcsuA0RXbZQ1ybLc0MIZLP0q59TvOlbRGbnqE56jTkkKgJYnN0mb9WPClZ38i043njjRqkwABECITwIc+UkL4jKAHxP/6G8rG4TAhA9lKTc0KP1Fq6ugzHsBCml/cfdv85VN0dCcyVb0YMpQH21oe0GPr1WWAZxOtsJJnSJAZCPaXm12xMLPzIQjx8oUDnv6HxmAfQMjSI8DinS/ylS/0w8adxFw1tm19Kc68+cBCK6VlgEKqf+1253iZ1k+P2eyFUsBt/RuoW+rTv8XI1IlC+Dk7n9kkHXddXPzR/XAxt3/MNHQvgtg5IAKytMAJu76y30wuQqB++ck6HPH818GCMTd/77BYcumwOfaV9JJA+2q55phexUEgJu7/6KTOu66ufmjIyAQABAAB40r27MAnCb/IliuIuDwy2qpO2I+C1BpGSBIAoAsWAZYONBBL7ev0DHXHLBZZhnAy4SreinAqy86BImOoCD9DwHAVgCQw0OBOE7+nEXAZ09M0wNTdXytOLdZbjNgVKT/LXjkT6rHFgiA73SvpZt6t0p1x3WhMlkAr5Ou8EfFxMvFD9d8JSvi7v8AKCwB7GNh6zIA58mfqwjoiEdo2sVmD1UpsimXBQhSBoD7EkCChmhb6/NUnx+QnEI8FCuRBXCz4a6cB242Bso+fijTazfty9hVWQZ3/xAAJceTbcsANkz+RdBzLz6f1YmCS8+ppdVZ88sAgk+pzYCB2gTI/GCgv+l9j/6t+x2Vc0x5WyXeDaBSABSzAYmmVNUDg1RO/MUOcxcAuPs/eGgiAzCCh01ZAJsmf44i4Mcz4nTTwhp/vvSrtBL0ZQDuZwGIk//ECYC+XSWOBq50+p8Xv8TSgBADxav/oON81R8pPf6c6V7c1V4XAgACoOIgsyELIB71e/PRx7V/WFQ3IN4pIDIBXK45l2RoV435kwHLLgME4FFA7un/q/qb6aHOt/wdkj5kAfzt0HBruPs3Qd1bm8gAjOJnQxbAxrv/ImZOTwY8MDtOn53HOwtg814A7pO/GJN/bF9J79P16F+l7+YSWQAVm/C8TQfua6vYhOi+dbmauPs/lBMEQImxwzkLYPPkX0TNaT/A7EsytJtBFkCwKXcwkHUiwJL3AFzZv5N+1Pmm3OyhulSJLIBowu0BPKrdc2oPd/9OifEoDwFQIg6cswAv3vsDLSOn+MrfhsOGj21187ZAWcc4LQX8cFacPjWfRxZgIJ2gXKr8K4sLrwHe92hg4c2AzC5xxy8uW14A9MreV2nBYKc5iiWyAKo3BPrROe6Tv2CAu//SIwECoMwnhGMWQPXdv5iIpy5aWHV3vup2BfKTb/iEH99NUm0sOaeWXmP8RIBUJ1DIEYEb+t6jO7t82vlfzrMyWQCblgIw+TsaduwKQwCUCQnHLICqiVh24h+NRlX7wi6nZYAdmSgdc16SxYezWhaAhZOWO5Emor+0PU+ThvrN90TT6YB+dMyGdX/BAc/9lx8NEAAVPimZx5eT+MPiqs/SCz/5uWdXvG7CU/WyIa9+eAYxysAt5xxGD2V5vHlP9lXBqhmExd6t8SPoC816ltIcM9T0jgDHfjisYMvkj9R/5cBCAFQZ+JyWAt586WXau3uPw4/qgeIqJ13xGKIQA24vlb649aFYr+cDp1L3B06leZvupe6c+mejnfon86pgpzZRfpjAwprx9JuGS6h2zyOU2f0IDywVXhXMcTnAhrR/MbC4+4cA8PQh57QU4EUA6JhwvYgAHf64DfTuz/1Doer3O16n25qfdmtGaT0sBSjFud/Y/62/gE6OD290bdz6rxTvWaOnISdWq7wqmJMIsGnyx91/9UGIDEB1RsQlC9C+ew+98dLLEh4fWkTHpjsvBxJx2QNQvPsvEvtw8yO0qmOLK8aqK5V7LFB1O2Gx9zfpefTFzIn7uysmfyECWFxlNgSO9E3XaYGy/W88cSLFR5wqKFvPRDlM/nLUIQDkOLERAS/81vkJgDrvtt1sDNTpj2Q4C8VGT/7Fusdvupd6sBTgBCX7svNqxtHjDR88xE9blgKKjpvIBtiy3j8yuEj9y30kIQDkOBGXpQCnWQA/JlunSwE6shGSYTyoWDH1P7rujzrfoFt3/Lcbk8rrYClADdJHGy6mE2omlDTGZilAeFfibIBSTvshBMTEXzurwZq7/iKntsZPUi4+U83ACbgVCAAHAebyVMCWtetoyztrq3rux+QvnHDyZADX1P9omF/a+0f6r5aVVRn7UQBPBXij/JXa99P/TM0ta4TVUkCV/QCjOyGEgHjBT26Pms2rYtIXl40Tv/AbqX9nnxUIAGe82CwFVBIBbp/zd4jikOKVlgNM+VSqT+VS/6PLXrDjYXqnc7tXLJ7r46kA9wg/nJxD/5Y9vaoBVksBEvsBRndInCCY29PnSgzYPukXWWDyrzrMDykAAeCcGRsRIFzPjx9DW98YfptZ/eRJwz8PG/5p6hJCoHgJn0z7M5KD7OQv6gxSnhZuug+PBpoaSB7bXVAznn7dcDHFKCJliZUIqPBooExnhCAQlxAFpa74mOGDr2zZ1CfTZ6z7y1A6uAwEgHNmbPYDFFxPJgoiAFd1Ak4m/6K1R7reps9tf6K6cR9KYD+APOSmSJL+X8NFNDvWKF+J06OBwmuPIsBRxy0vjHV/dwGEAHDHDSLAJTdT1XLTplH71de4av7ejlX0reY/uKqruhJEgBzRH9efS0viU+QKjyrFZlOgw/0ArjobgEpI/bsPIgSAe3aFY4I5HRWcr8966E2wq5bb8S/b62+0v0z373xJtrjWchABlfGKNX+x9u/lGr/2o16qq6sLEVCRJSZ/b0MNAsAbP4gAj/z8qN7+kWsoN3Wa56au2/ko/bF9g2c7KgzgyYDSFKvt+Jdlz+rJABebAmX7aXM5TP7eowcB4J0hRIAChrpMuFn3r+TLR3f+il5qf1eXu47sQgQcjOvzmcV0U3q+I4aVCkMEKEOp3BAmfzVIIQDUcIQIUMRRpRlVd/6jfbp256/oZYgAlaHybOvvM4volvQCz3ZGG2D1ZAAyAYXwYPJXN8whANSxhAhQyNKrKV2Tf9Gvj+38Nb3YvtGrm0rqhz0TIM73F+f867qQCdBF1rldTP7OmVWqAQGglidEgGKeTs2J3f4i7a9izb9a29fv/A09276+WjFffh/WjYG31Z5CH08do52xEAG1ux/h8fbAkGYCMPmrH+YQAOqZQgRoYCpj0sujfjL2S5W5veNV+o/mF9xWV1ovbCLg7rqldEnC3zPf8Yig0iErbQyTvzQqRwUhABzhki/M5eVBBY9DcFiQicm/OBoe7Hidvtr8tPzg0FgyDCLg8GiW7syeQSfFzZx4yWpfQAgOC8IhP/q+MCAA9LEtWG648y6Kr12nuRU584UTA5MJucIWlVK9099N17cPddFVzb+kbV273VRXWifIIuDU+GGFs/0nR2uVMnNqjJUICOiSgHijX1ftMrzZz+ngdFAeAsABLLdFcWCQW3LV63GY/Ed6eXnzL+j1jq3VHddcQrxAKJdOkPgZlEu80U8858/lggjQFwmk/PWxHWkZAsAfztgXoJizn5v9nLp+Y8vj9Lu97zitpqV8ELIBtZE4fa32FLoiOVsLI69GsS/AK8GD6yPlr5ZnJWsQAP6xLrTEaUmA6rNk4/HB3O76Sw2hTYPtdF3Lb2hLZ4vPI+zQ5mwWAWclptK/ZN5P02P1xjlWcgDZAO/hQcrfO0OnFiAAnBJTUB5LAu4gcr7rL9cjTscH2yQExCt8v1R7Eom0vy0XHhV0Hymk/N2z81ITAsALPY91IQTkAdpw11+uN+8OttMnWx6jDZ3N8h3WVNIGEXBhYgZ9IbOYjmB+118uRMgGyA9e3PXLs9JREgJAB1UHNiECKsOy8a6/XI9uallOT3e/S325PgcjRE9RjkLgyFgjfSZzAl2UmKGn0z5aFdmARM8ayux+xMdWyzQl3igo/oinBZhcmPh5BAICgEccsElwVByCNPGPHmIf3/lrep7JMcIchEBjJEm3pOfTDenjmXwa1bkhsgHiYiEEmDwuiHS/uvHl1RIEgFeCiuuHPSMQ5Il/5FDpzg+QOEr41Y5NikeQO3MmhIDY3X9D6ji6MT2PMpEad45bUgtCAC/x4ThUIQA4RkXcMTy+vPCHxeXD0wJhmfhHx7Mzn6MbWh5j83ZBP4TAhGiarksdS9en5lI2EmcxxP1yIoxCAHf8fo0u5+1AADhn5msNdkJAnCSo8DTBsE78pQbR/2r5Lb3cvZW6c72+jrFSjekQAgtrxtM1qaPomuRRxvtn2gF2QkAAUbhHAGv8pkeYXPsQAHKcjJcS7xYQRwqzyArsEwFuzxAoTvoCqh9v7TMePIcO/LDzz/SLrrfprY5tDmuqLy6EQCFOKXdHSIs0/2XJWXRFYja9Lz5RvYMBsCjEQLx7TSDeNIiJ364BCQFgV7wK3hZFAAsxUJ8t+FRNDGDSdz7QhihPN7c8QWsH29g8QjhYE6t6vHCCYnRuYhqdnziCLkrOIPFMPy45AmweISxmAySyApj05WLLsRQEAMeoOPCpKAKKGQIHVdUXHSUGxKQvLvEMP+70veHO0RB9tuV39O5QB63t3UX9hh8lHJ0ZmBGrp9Pih9OS+OF0ZmIqxSnqrcMhr118jJBFZqD4GOG+n2LCFxde1GP/IIUAsD+GB/XAlCDIzRk+pz03ezaJ/xc/cekjIA4X+tqeP5J4C+HG3j3U4+O+AfGCIZHan5EaQx9IT6Orao+x9tAefRFSa7koCIRVv0VBLn1M4RyBroYLhz/j4u+4AkEAAiAQYSzfCZEZKHxp7HslsddMQXGiL3wRzD2WxF0+Jnvzg0hkCN4a2EPLu9fTyp5t1Jbvox19ez1tKIzFE5SkKCUjMTqlfgYdFs3SeZlZdGzNGNzhmw95Yc+AOGyoKAqKLol/d3zVJPe/djeXOYb69036xbt9x/ZQwQoCEABWhEm/k0WhMLolTO762etuIU9Eu4d6qC3fT535fvpTz3bK0SAN7mtYvDA4TjE6IT2ZspEENUYSNDaaxsq97sD4ZL+kIBgx4fvkBpphSAACgGFQ4BIIgAAIgAAI6CYAAaCbMOyDAAiAAAiAAEMCEAAMgwKXQAAEQAAEQEA3AQgA3YRhHwRAAARAAAQYEoAAYBgUuAQCIAACIAACuglAAOgmDPsgAAIgAAIgwJAABADDoMAlEAABEAABENBNAAJAN2HYBwEQAAEQAAGGBCAAGAYFLoEACIAACICAbgIQALoJwz4IgAAIgAAIMCQAAcAwKHAJBEAABEAABHQTgADQTRj2QQAEQAAEQIAhAQgAhkGBSyAAAiAAAiCgmwAEgG7CsA8CIAACIAACDAlAADAMClwCARAAARAAAd0EIAB0E4Z9EAABEAABEGBIAAKAYVDgEgiAAAiAAAjoJgABoJsw7IMACIAACIAAQwIQAAyDApdAAARAAARAQDcBCADdhGEfBEAABEAABBgSgABgGBS4BAIgAAIgAAK6CUAA6CYM+yAAAiAAAiDAkAAEAMOgwCUQAAEQAAEQ0E0AAkA3YdgHARAAARAAAYYEIAAYBgUugQAIgAAIgIBuAhAAugnDPgiAAAiAAAgwJAABwDAocAkEQAAEQAAEdBOAANBNGPZBAARAAASMEHixdSPdvuH3JH4Wr/8z88zC/356308jjjFpFAKASSDgBgiAAAiAgBoCYsK/cuUDFY0JIRB2EQABoGa8wQoIgAAIgAADAjKTf9HNk5tm0MOLrmfgtRkXIADMcEerIAACIAACGghMfeofHVkNswiAAHA0VFAYBEAABECAKwGR9h+53i/rp8gCCCEQtgsCIGwRR39BAARAIIAExGa/72z4vaueQQC4wuZPpXiMqC4Z8acxtAICIAACIGAVAS+Tv+hoWJcBkAGwapjDWRAAARAAgdEEnK77j64PAcB4TCEDwDg4cA0EQAAEDBLwevePDIDB4Mk07bcA2DOwgob/vCrjnrYyiWhjwXZdbLq2NmAYBDgSyEbnFNyqjc2m4v9z9DMoPrXl++h3XRuoJd9Dr/c2U3c+R32pzysAABw6SURBVH35QWrub6f8vk42JmopRhFKUIxSkRgdnRpPYyNpOjNzBE2O1lImUuM7DhWTv3A6rGcCYAlg35AVE/663rsLE7/JS0z6YsJPRBpMuoG2QYAVgUnxC2hi/HxWPtnqTHu+nx7qfIOe7d5Ea/t2FSb7wVxOSXeOyE6gSdEM3dR0Er0/PkmJzXJGnDzvX82RLcu+Wq1IIH8PAUBE63rvKUz+pi8x8Wdxt286DGifKYFsbE5BBCAj4DxAD3etoZW5Zlq+9x3qyvU4N+CmRryGpiebaEn6CPpk3QKaGM24sVK2jttH/kYbDOvdv+AQegHwSuf1xu/6RSAw+Sv9boCxABOYlboFIkAivjuGuumO9hX06N411JPrlaihr8hQTYxOHjOHLk3OpCuSsylK3p7qUpX6Fz0O691/6AUA7vz1feBhGQR0EpifuVOneatt/6Djdbq79VXa099pvB9i4s+lEyR+Fq+GSII+kjqKPpo8mmbE6h37qHLyD+vz/0Xooc0AiLV+cffP4ZqcOJ2DG/ABBKwhIJYDZiVvscZfPxy9u2MV3de6gjr6u/1ormIbA+kEDdbEDpr4S1W4MjmHPpk+jo6JjZH22esjf8WGwpz6D70AQOpf+vOGgiDAkgCWAobDIu7472x9mdqZTPy5VMLxeLk2dRT9bXoBHR7NVqyr6u4fk/8w5tBmAJa3zXc8SHVUwN2/DqqwGQYCYc8C7Bzqob/a+Rt6u3Ob8XCXSvU7dUrsC/i7zAl0S3pByaqqJn9hPMzr/iPhhlIAcFn7F4/8ja2Z5/RzgvIgAAJEFGYB8NW9L9CDLWbPKSkOwr66dNVUv5MBe1zNWPqnzPvo1Phh+6upfOQPd/8HogEB4GRkKi6Lnf+KgcJc6AiEbTOgOLDn7C0PUWt/l/FYi7t+Mfnrum5Kz6fPZxYXzGPdXw/lUAoArP/rGUywCgJ+EwjTPoAfdb5J/7L7WWWH9niJleq7/nK+iMOEFrTU0H0bn/PibqFuWM/7rwQOAsDzsHJvYGx8Pk78c48PNUGAwiIA/nfLcnpi71+MR1zFWr+TTkR2tFFke6uTKmXLhv2Rv1JgIACUDC13RiAA3HFDLRAoEgiDAPjozl/RS+3vGg+67pR/qQ5GV21U0m+s+5fGCAGgZHi5MwIB4I4baoFAGASAeBnP1Tt/SX/ueM94wI1M/mu3E3V6P8EQk3/54QMBYPCjBQFgED6aDgSBoGYA9ub76JKtP6X3+tqMx0kc6uPm2X4vjqtM/eORPwiAgwhw2QQIAeDlKwJ1QYACuQdAvK3v4q0/weSvYIDj7r8yRGQAFAwytyYgANySQz0QGCYQtAzAAA3Rsi0P0daQ3vmLmGLd379PNwSAf6wPaQkCwCB8NB0IAkETAFc0/4Je69hqPDYm0v6i06pS/3jkT24IQQDIcdJSCgJAC1YYDRGBIAmAj+/8NT3frmbXu5chYGLDn8rJX9jCur/cCIAAkOOkpRQEgBasMBoiAkERAH/b8gT9du/bLCLn1yE/Izsb6eyliNj1r+DCur88RAgAeVbKS0IAKEcKgyEjEAQB8POuNfT57U+yiJyp1H8Uj/wZiT8EgBHsw41CABiEj6YDQcB2ASCe9V+4+X7qz/UZj4epyV/Vuj9S/86HEASAc2bKakAAKEMJQyElYLsAuGjHw/R2p5rUt5chEITJPz9nMn1t4ln0sdTRXlCEqi4EgMFwQwAYhI+mA0HAZgFwU8tyWs7gfH8xEEys+4t2VT3yl5/cRPlJjZSK1NCzjVfQlGg2EONbdycgAHQTrmAfAsAgfDQdCAK2CgDxvP/R6+5kEQPb7/6Lk38R5geTM+m72aUs2HJ3AgLAYIQgAAzCR9OBIGCrALiy+Zf0p47NLGLQ0+T/3bLKdf+hhTMO4fj9umV0bmI6C76cnYAAMBgdIQCSkUaKRGpoKJ8z6AmaBgE7CdgoANYP7qVzNz7IAriJu3+Vj/yNvvsvQj2uZiw90XApC8acnYAAMBCdutgUmlP7YToidR7VxiYVPMjlu2hP7h3a2vsstebWe/aqKT6HCn9qZhd+4gIBVQRac2updWBdwdyG7sdUmXVlx0YBcOGOh+kvId74p3rdv9zA+UbtB+ij2BBY8XMFAeDqa8d9paNqr6b31X++ooGtvc/RX7p+TnnKu2poZuYCmpk+31VdVAIBJwQ29DxuVATYJgDeHNhNH3z3R04QaytrYuOfstR/NkVDcyZXZHNErJ6eb/ywNn5BMAwB4GMU59ZeRyfUf1qqxZ39q+n1jgekyo4shMnfMTJU8EhAZARWtt/h0Yq76rYJAC53/yaO+1U2+ROReOQvn01VHTTfrD2Vrk0dVbVcWAtAAPgU+QmJE+jcsT9w1Nr67t/Sxp7l0nUw+UujQkHFBExlAmwSAFuGOmjphu8rJu/OnIm1f79S/yOJzK0ZS09iL0DZQQIB4O7z47jW0qY7aErqDMf1/tD6Beof6pCqt2wsj8eKpJxFocAREFkAkQ3w87JJAFzV/EtaGdKd/6qO+i236a/SmPvPunPorMRUP4elNW1BAPgQqmS0ka6c+Kyrlt7q/DFt63tJqi4EgBQmFNJEAAKgMtjZ6/5dE3lnZv2++1eZ+i/1yF+13l+UmEH31p1ZrVgofw8B4EPYJyXeR2ePvd9VS1t6/1DYEFjtQvq/GiH8XjcBE3sBbMkA3NzyBD3O5G1/fj73r3Lyd3P3Xxzzq5uuofHRtO6PgHX2IQB8CNm01Fl0RtN3XLW0ve8VerPzoap1IQCqIkIBzQQgAMoDPnfHT2l9Z7OSCAz15ijfm6Oh3n6KphL7bcYaM1Xt+333b2LdvxSEr9aeTJ9IHVuVT9gKQAD4EPGJicV0zljnO/qFa5t7n6F3un5R1UvxrP+i+luqlkMBENBFwMRGQBsyAOKNf3PX3+UZu5j4B9u6SPwsddU01lIkFadoKl62LT8FgLK7f4lH/qrB/UD8MHq4Ho9Gj+YEAVBt5Cj4fTySpasnPe/K0hud/0k7+l6tWhcCoCoiFNBMAAKgNGAV6f/Btm4aaOuSiqAQAuWyAX6l/5VN/kTkZt2/FKjXmq6hcVgGOAgNBIDUR8p7odObvkXTU+c4NvT0ns/QYL5fqp7IAODUPylUKKSBwFO7b9ZgtbJJGzIAFzf/nNZ0bPPEpu/dFkf1S4kAv5799+OoX0cw9hW+I3sGXZGc7aZqYOtAAPgU2rHxY+mCcT9x1NrbXQ+TOBVQ9kIWQJYUyqkmYOLuX/TBBgFw7KZ7qD/X5xq5k7v/kY2MFgF+pf9NPvJXCfJVySPpO9nTXMchiBUhAHyM6pGZD9NJDf8o1aKY+IUAcHphM6BTYijvlYCpyd8GAbB5qIPO9Hj4j9O7/3IiwA8BwDH1X+SBo4EP/aRDAHj99nNYf2b6Qjqx4QuUiJR/Bef6nt/Sxm75EwBHuwAR4DAoKO6agMnJ3wYB8Dcty+nJvX9xzVds+MvtaHNdX1QsZgJ0r/+rnPxlj/p1CmZl00doUrT60xJO7dpaHgLAQOQS0Xo6MvMhOiJ9AYk3A0YoRn1DrbQnt5Y29z5N3YM7lXglhIC48GIgJThhZB+B4tsACz99PvlvdBC4LwF8qPkRWt2xxfXYcZv+H92geDJg4Jgprv2Qqcjlkb9Kvj5YdzadnZgm051QlIEAMBjmsfH5lIg0GPQATYOA3QS4C4ATNt9P7f3driGryADsb1zB43TlOqLq7t/LYT8ykP8+s4huSS+QKRqKMhAABsMMAWAQPpoOBAHuAuDoTXfTQE7uKZ5SAVEqAEQDGkSAqslfuKfqkb9yg/vy5Gy6M+v8nSyB+LCU6AQEgMHIQgAYhI+mA0GAswDoyQ/Q8ev/wzNnsQeg3OE/bo2rWmPn+shfOS4n1EygRxsudostcPUgAAyGFALAIHw0HQgCnAXAusE2Om/jDz1zVp4F2OeRChFgw7r/yABMiKZpVdM1nmMSFAMQAAYjCQFgED6aDgQBzgLggY7X6GvNzyjhrGoz4GhnvIgAZal/DcsSlaBvGftXFKWIkrjYbgQCwGAEIQAMwkfTgSDAWQDc3vEq/UfzC8o461gKEM652XinbPIX7c+ZTPlsShmnaoZwJPABQhAA1UaLxt9DAGiEC9OhIMBZAHx17wv0YEv193g4CZS2TMDkJspPapR2xbbU/8iOPdf4IZoZw9NXggkEgPSQV18QAkA9U1gMFwHOAuC6nY/SH9s3KA+IaRHA9ahfWdBPNFxKx9WMlS0e6HIQAAbDCwFgED6aDgQBzgLgYzt/TS+2b9TC2ZQIUJn61/3IXznwv2m4hBbWjNcSF9uMQgAYjBgEgEH4aDoQBMIqAETw/BYBKid/N/sOVA1Y8RigeBwQF5YAjI4BCACj+NF4AAhwFgAf3/lrel5TBqAYOj9FgM3r/iOH+uMNH6R5NeMCMPq9dwEZAO8MXVuAAHCNDhVBoECAswD4570v0H8q3gRYKux+iABld/8+P/JXitfTjVfQkTH5DY9B/qhBABiMLgSAQfhoOhAEOAuAb7e/QvfsfNEXzrpEgDg6OF+Xpsj2ViX9MLXuP9L5FU1X0+RorZL+2G4EAsBgBCEADMJH04EgwFkA3NOxir7d/AffOOs6MVBVB0yu+4/sw4Yx11EyElPVLavtQAAYDB8EgEH4aDoQBDgLgJ91vkVf3PE7XzlzFQFcJv+GSILeGvMxX2PCuTEIAIPRgQAwCB9NB4IAZwHQmu+jE9ff4ztnjiKAQ+pfBOLY2Bj6XeNlvseEa4MQAAYjAwFgED6aDgQBzgJAAD5y03dpKJczwlrX0cFOO+P3Ub+V/Ds/cQR9r+4sp10IbHkIAIOhhQAwCB9NB4IAdwEwf9N91JXrMcbatAjgkvovBuDm9Hz6h8xiY/Hg1jAEgKGINNbMptmZD1F9bDpFIzHqHdpLbbl1tDu3RplHTfE5BVsz0+crswlD4SbQOrCuAKA1t7bwx/TFXQCcvPn71NLfYRSTKRHAbfIXQbgru4QuS84yGg9OjUMA+ByNbGwqLa7/DE1NLS3Zcs/Qblrf/Sjt6FvpybNF9bdQUQB4MoTKIFCBwIaex2lD92PGGHEXADpeCOQGtrbHBCs4w2Xdf6SLzzReQXNwBsB+JBAAbj5NLuuMi8+jM8fcRclo9TdRret+lN7tedJxS2LSF5M/LhDwi4BJEcBdAPy08y36R5+fBCgX9/7OPsrvavdlWHC8+x8TSdGfx1zrS/9taQQCwKdI1UQydPH4X1A2dph0i290Pug4E7Bs7J3S9lEQBFQRWNl+h5ElAe4CQPA1uRFwZHwH0gkaaOtWdqhPubHDcfIXvp6XmE4P1C1TNeQDYQcCwKcwnlD/aZpbe52j1sRywPOtt0rXmZm5AOv90rRQUCUBsR9AiAC/LxsEwOLN36O2/i6/0RzS3lBNjPrEqX472vSJAAZH/ZYD/c+176frU3ONx4GTAxAAPkXj6knPUzySddzaqva7aXfuLal6uPuXwoRCmgiYyALYIAC47AMQYe9pGv4O0iUCOD3yN3qYY/3/0A8+BICmL8ORZsfGj6MLxv3YVUsbe54sbAqsdmHtvxoh/F43ARN7AWwQAI91r6Nbtv1WN34p+yIDIDIBOkQA19S/6OvRsSb678bLpRiFqRAEgA/Rnpo6k5Y03e6qpe19r9CbnQ9VrYv0f1VEKKCZgIllABsEgMC+YPN91Nlv7jyAYuiLywDFv6vKBHCe/EVf/za9gD6XWaT5E2CfeQgAH2J2ePK0wu5/N9d7vS/Qmq6fVK2KDEBVRCigmQAyAOUBf2XvC/SQD68GlglxcRlgvwjo7KXI2u0yVcuW4fjI30hnxfG/4hhgXAcTgADwYUTUxabRpROqp/FLufJO1y9pc+/vq3oJAVAVEQpoJgABUB5wW76PFht4L0Apj0YuA6gQAdzv/k+smUj/r+EizaPfTvMQAD7F7cJxP6Mx8aMdt/Zi223UNSinzrEJ0DFeVFBIAJsAK8M8afMDtLu/UyFxd6ZGLwN4EQHcJ3/Rt2/WnkrXpo5yByvgtSAAfArwlORptNThMkBL/+v0Wsf90h5iH4A0KhRUTMDE3b/ogi17AISvD3a8Tl9tfloxeXfmSmUBipaiYjmgs7eqYRsm/6ZIkl4fcy1FKVK1P2EsAAHgY9QX13+WjqmVexd1Lt9Fr+z9NvUM7nLkIY4AdoQLhRUReGr3zYosOTNjkwAQPVu4+X7q6O921kkNpctlAfZnAyqdFZBNUb4uTflJjRo8U2vyU+kF9HfY/FcWKgSA2vFW1ZqMCBAHAL3R8SDtHXi3qr1SBZAJcIUNlVwQEDv/xd2/qRcD2SYA7upYSf/W/EcXpNVXqZQFGCkExP9HOoafYCjc9WdT6p3RYLGGorSy6SM0LmqHvxoQVDUJAVAVkfoCYjlgft1Nh+wJGMj30Hu9z9OGnuU0mO/z1LAQAU01s/FCIE8UUbkcgcLbAAfWGX0RkPDNNgEgfObySKA4GjiXSgR2kN+Unk+fx6t/K8YXAsDg8J+aOpvEa4EjFKO+oTZqH9isxRu8FVAL1tAaNXW3Xwq4jQLgno5V9O3mP7AYPzJZABaOOnSiLpKgl5uuooZIcAWOQyQli0MAqKDo0sbY+HxKRKq/GdCleVQDgcATsFEAiKCcuPl71Mro/QBBGyhfypxEN6SPC1q3lPcHAkA5UnmDEADyrFASBIKSARD9WDvYRudv/CGLoAZtKWBezTh6vOGDLNhydwICwGCEIAAMwkfTgSBgawZAwL9256/o5XZ3G31VB2/06YCq7ftp7yf159Hp8cP9bNLatiAADIYOAsAgfDQdCAI2CwARgPmb7qOuHL93BNg6OP5X6ji6tfYkW9333W8IAN+RH2gQAsAgfDQdCAK2C4CfdL5J/7TjKRaxsH1D4NyaMfRkw2UsWNriBASAwUhBABiEj6YDQcB2ASCCcOve5+lHLStYxMPmpYDfN15BR8X4H07EItD7nIAAMBgNCACD8NF0IAgEQQCIQFy042F6u1PunR86A1fthECdbXuxfXfdUrokMdOLiVDWhQAwGHYIAIPw0XQgCARFAIhgzN98H3X1m98PYNtTAZ/NnECfTi8MxHj2uxMQAH4TH9EeBIBB+Gg6EASCJADeG+qkZVseolyu33hsbBEB16SOom/Vnmqcl60OQAAYjBwEgEH4aDoQBIIkAERA/qvzTfoSk02B3EXA+YnpdE/dmSTO/MfljgAEgDtuSmpBACjBCCMhJhA0ASBC+f2O1+k2C14bbHLYLU1MobuyS6gxkjTphvVtQwAYDCEEgEH4aDoQBIIoAERgvtfxGn29+RkWMeKWCTgzMYVurz2dxkXTLPjY7AQEgMHoQQAYhI+mA0EgqAJABOeHnX+mf9nxexZx4iICLkrMoG9lT6V6vORHybiAAFCC0Z0RCAB33FALBIoEgiwARB/fGWyjy7f+lHpz3l4PrmLEmBYBH08dQ7fVnqKiK7CxjwAEgMGhAAFgED6aDgSBoAsAEaT2fD9d1vx/aVNni/GYmRIBX8ycSH+Tnme8/0FzAALAYEQhAAzCR9OBIBAGAVAM1JXNv6Q/dWw2Hjc/DwuKU5TurzuLzk5MM97vIDoAAWAwqoloI42tgao1GAI0bTmB+Zk7Le+BM/fv6FhBdzQ/76ySptK6swHvj0+i27On07RonaYewGwoBcCegRX0Suf1xqMPAWA8BHDAcgJhEwAiXHvyvfTR5l/RO507jEdPlwjA6X7+hBYCwB/OZVuZnDjdsAdoHgTsJDApfgFNjJ9vp/MKvL65ZTn9d/e71B+gDYJL4lPoHzKL6fiasQoIwUQ1AqEUAALK8rb51dj48nvsA/AFMxoJIIGwC4BiSK/d+St6uf1d4xEW2YDBmhiJPQJOr1mxBvpUegFdnpzttCrKeyAQWgGAZQAPowZVQcAwgWxsDs1K3mLYCz7N7x7qpRtaHqPVHVuMOyWEgLhyqeGfla6p0Tq6IX0cfSJ1bLWi+L0GAqEVAIKl2AcghIDpqy42nbKx6abdQPsgYA2BMO3+dxIUIQRu2rWcXm3f5KSalrIiEzAUj5UUAsfXjKP/kTqarkkepaVtGJUjEGoBIBBhKUBuoKAUCHAhgNS/XCRubHmc1gzsoa1du+QqaCwlsgL5VIouS86iK5Kz6bT4YRpbg2lZAqEXAALUut57aF3v3bLMtJVDJkAbWhgOCAFM/s4DuXWok/5x19O0unc7dfb3ODfgpUa8hpoiSbqy8Xi6qW4RpSM1XqyhrmICEAD7gEIEKB5ZMAcCCgmINX+x4z8bnaPQavhMteX76MHOP9Oz3e/Sut7d1JPrVQshXkN1kTgtqZ9Nl9cejTt9tXSVW4MAGIVUCAFx7Rl41ej+AJENEJc4KyARaVAeeBgEAc4ExIQvruJjfpj49UQrR0P08841JLIEK3u2FY4d3t6/l3L5IRqkPA3k+g80HK+hCEUoRhESJ/SNTWQpG0nQ3NQEOixWS1OiWbqi9mg9jsKqFgIQAFqwwigIgAAIgAAI8CYAAcA7PvAOBEAABEAABLQQgADQghVGQQAEQAAEQIA3AQgA3vGBdyAAAiAAAiCghQAEgBasMAoCIAACIAACvAlAAPCOD7wDARAAARAAAS0EIAC0YIVREAABEAABEOBNAAKAd3zgHQiAAAiAAAhoIQABoAUrjIIACIAACIAAbwIQALzjA+9AAARAAARAQAsBCAAtWGEUBEAABEAABHgTgADgHR94BwIgAAIgAAJaCEAAaMEKoyAAAiAAAiDAmwAEAO/4wDsQAAEQAAEQ0EIAAkALVhgFARAAARAAAd4EIAB4xwfegQAIgAAIgIAWAhAAWrDCKAiAAAiAAAjwJgABwDs+8A4EQAAEQAAEtBCAANCCFUZBAARAAARAgDcBCADe8YF3IAACIAACIKCFAASAFqwwCgIgAAIgAAK8CUAA8I4PvAMBEAABEAABLQQgALRghVEQAAEQAAEQ4E0AAoB3fOAdCIAACIAACGghAAGgBSuMggAIgAAIgABvAhAAvOMD70AABEAABEBACwEIAC1YYRQEQAAEQAAEeBOAAOAdH3gHAiAAAiAAAloIQABowQqjIAACIAACIMCbAAQA7/jAOxAAARAAARDQQgACQAtWGAUBEAABEAAB3gQgAHjHB96BAAiAAAiAgBYCEABasMIoCIAACIAACPAmEHl7V/5povwSzm7GY0R1yQhnF+EbCIAACIAACFhDIBKhZ6wQAILomAwEgDUjC46CAAiAAAiwJpDP01cia1rySyIRkQXgfdWnIlQT5e0jvAMBEAABEAABGwhYJQCwDGDDkIKPIAACIAACNhCIRGhpIa9uwz4A4SeyADYMK/gIAiAAAiDAmYC4+59YG7l1/8L627uG8pwdFr4hC8A9QvAPBEAABECAO4EJmUhh7t8vAGzZC5CORygd544X/oEACIAACIAAPwLFu/+DBID4y5qWwVsjkciX+bl8sEcQAdwjBP9AAARAAAS4ERDr/uPTkWeKfpV8ts4GISCWA4QQwJMB3IYY/AEBEAABEOBEQDzzPz4dWTrap7IP14slAaKhwgFBkUj0DK6HBQkhUBMd7gaWBjgNOfgCAiAAAiBggoCY8Pe1+xXxc+Rd/0h//n8GoDnkTypYEwAAAABJRU5ErkJggg==;" vertex="1" parent="1">
          <mxGeometry x="150.06" y="405.68" width="70" height="70" as="geometry" />
        </mxCell>
        <mxCell id="9YNmxNu1mqhPtrFuAmMJ-12" value="" style="shape=image;verticalLabelPosition=bottom;labelBackgroundColor=default;verticalAlign=top;aspect=fixed;imageAspect=0;image=data:image/png,iVBORw0KGgoAAAANSUhEUgAAAgAAAAIACAYAAAD0eNT6AAAACXBIWXMAAA8eAAAPHgH67H1EAAAAGXRFWHRTb2Z0d2FyZQB3d3cuaW5rc2NhcGUub3Jnm+48GgAAIABJREFUeJzs3Xd4VFX6B/DvuXcmPUCABEgHQjOQBCMgIklA194Ve1vrWrCufS3YFpS1u3ZdxYq9oyAEBBUxQAIRQgnpQAg1PZm55/cH4A8Rkrl37uTOnfl+nod9XMg5500IOe8997znAERERERERERERERERERERERERERERERERERERERERERERERERERERERERERERERERERERERERERERERERERERERERERERERERERERERERERERERERERERERERERERERERERERERERERERERERERERERERERERERERERERERERERERERERERERERERERERERERERERERERERERERERERERERERERERERERERERERERERERERERERERERERERERERERERERERERERERERERERERERERERERERERERERERERERERERERERERERERERERERERERERERERERERERERERERERERERERERERERERERERERERERERERERERERERERBRohNUBUOBKyMhLVIHDpaINEVJJAmQM+D0XPCR2SIFNkFilCXdBdeHCNVaHRET/jz+MyVT9MyYM0RTtYikxCcAgq+Mhv1IF4FOpiLcql+X/ZnUwRMGOCQCZIikrd5SQuBfASeD3FXVuoYR8qLJwwfdWB0IUrPiDmrySmD62p+IMmQaJywAoVsdDNiPl5w6ndkNpwcIKq0MhCjZMAMiwPU/9HwDob3UsZGu7AHllReGCmVYHQhRMVKsDIHtKycw9HcDXAHpbHQvZXiggzurer7/Yuaks3+pgiIIFEwDSLSUz5zIJ8TYAp9WxUMAQAPJ69EsN2bmpfK7VwRAFAyYApEtS1oRTAbwNfu+Qb4zv3idlx87N5YutDoQo0HEPAHks8dC8NMUtCwB0szoWCmgapHJMRdG8H6wOhCiQcdc2eWbSJFXR5Pvg5E++p0Bob6aNGcPvNSIfYgJAHkkuqb0OEtlWx0FBI6GtNfxBq4MgCmR8BUCdGjJkXHRzmKMMQE+rY6Gg4oLmHlKxYmGp1YEQBSKuAFCnWkKdV4OTP3U9BxTH7VYHQRSouAJAnRHJmblrAKQZaaw6nBg8+mj0H3kkesQlIiy6B4Tgt12ga2nchV11G1Fe9AtW/TQL7S2NRrtqbHaJvluK8xvMjI+ImABQJ1JG5o6VGn4y0jZ+cBaOuvQORPfqa3ZYZCPNDTux8P1nsHaJ4fL+iysK588wMyYiYi03daJbn9SrBJCrt92AkTk44bqHERbJjdzBzhkShgEjc+Bqacam0mLd7YVAy85N5R/7IDSioMY9ANQhAeTpbdOjbzKO+vtdUFSHDyIiOxJCYOyZVyNx2KG620qJCT4IiSjoMQGgzozQ22DsaVfAGRrmi1jIxoSiYNyk64zsAenbd+T4WF/ERBTMmADQQQ3MOCIOQA89bcKjuiMla5yPIiK765UwAHGpQ3W3C5GOwT4IhyioMQGgg2pXVd03/fUdlAFF8NuKDi5+8EjdbSRvnSQyHX9S00FpGqL0tonszp/T1LGoGP3fI0LKaB+EQhTUmADQQalC6N7F5wgJ8UUoFEAcTv3fIxKSV08TmYwJABERURBiAkBERBSEmAAQEREFISYAREREQYgJABERURBiAkBERBSEmAAQEREFISYAREREQYjXtXWxhIy8RCeQqKmIghs9oEjdN6N0GSmGAFJXkx2bKrG+IN838QSJkPBIOEPDEdGtJ6J69+XRykTkE0wAfCwlY/yhEuJkAUyQQmQDMkoDAA2AgN75tUtJA8GVFf2EsqKffBBNcFIdTvRKHIj4wVlIGT4a8YMyIRQmBETkPSYAPpA4dmy42uy8TEpxjQTSAb+e58mPuV3tqC1bjdqy1Vj+/fuI6hmHYUccjxETz0BYZDerwyMiG+OjhLmU5Mycq5WmkA1SiuewZ/InMkvDtlos+epNzLjrXCz56n9wtbdaHRIR2RRXAEySmJUzSJWYISHGWB0LBb721mYs+fJNrPllNiZccgfiB2VYHRIR2QxXAEyQnJU7SZGigJM/dbWdW2rwxRO3YNl371odChHZDBMAL6Vk5l0PifcB8L5ysoSmufHzJ69g7v+mQdPcVodDRDbBBMALKZk5t0rIZ8GvI/mB1T/PQv5b0yElt5wSUec4cRmUkpVzgYR43Oo4iPa1+udZ+PXz16wOg4hsgAmAAcmZE9KlFC9jdyU/kV9ZOutdbFj2o9VhEJGfYwKgU3p6egigfQAgwupYiA5ESom5bz2Opp3brA6FiPwYywB1qnfE3gJI1veTX2ttqsdPH72Ioy+/2+pQKEikZuX1kNAOgcRQCWWwgBwiBZIgEQUgcs+vGAC7ANQDaIBEPYBaIVAiBVZDit/dreqq6tU/bLXwU/mT1PS8vm6HPF9AjBaQ3aVEJRTMjlUbPisoKGi3Oj5vMAHQIT47rzdc8h6r4yDyxNolc5Bx1BmISx1qdSgUgGLT86IiFDleU+VEIcVETcosYO/FFXsOEj/wftRue3798RJVAifsbaCGupCcmbtWSMzWFDHbqTrmlRbM2enjT+eAUjLzrtcgpwog8o/PafcR7lfWuaLWJI+YcH7FinkFVsRmBiYAOqgu7UZARHnTR1RkBEaNHI5+feIQ052Vg/RXDY1N2FS7Fb8VrsTWbTsM9yOlRME3b+P4ax82MToKZtnZ2c7a9sjjhcDFgDxJAqHCN/eZDZICg4SU17pc7a6UjJxFUsEbrVrYR5uLvm/0xYD7S87IuV9CPnCwP5fAYCjavKSReRMrl+X/1hUxmY0JgIeys7OdW1ziH0bbx/eNw9UXT8JR4w+Hw8EvO3VO0zT8VliMF954H6vWlhrqo6zoJ9Rv3YToXn1Njo6CSUpGTn+pKDfWueT5QiC2i4d3SCFyIZEbKlqfSc7MfV8q4hVfTropGXlXSHHwyX8f0UKTM9LT0zOLi4vbfBWPr3AToIdq3dEnAuhtpO1R4w/Huy8+hmMnHMnJnzymKApGjxyB159+GNdddh6E0P+kJaXEmsWzfRAdBYOk4RMHJmfmviSFKIGUN0p0+eS/v24ArhKaXJKcmbMwaUROjtkDJGbkHSeFfEFHk6ENatzJZsfRFZgAeEhoOM1IuxOOzsHDd92AsNBQs0OiICGEwEWTTsH1l51vqH3psoUmR0SBLn54TlJKZu57QnWvAXAVAKfVMf2VGCcUMT85M/fLlMyckWb0mJqVl6UIORM6V8elcB9txvhdjQmAp4ScqLdJWv9k3HXDlYae3Ij2d8FZJ+Go8YfrbldXtQ4tDbt8EBEFmuzsbGdKVu5tDlX8LoFzYY854iQJ8VtyZu7Tsel5hvdoxQ/PSdKk/BqGjnUXCUbHtZId/nItl5g5MQFAkt52N1x5IZxOLvmTeSZfcQFCQvQ9jElNQ23ZKh9FRIEiNSPv8C2uqGVS4jEAXm12toAC4IZwh1yRlDnhWL2NB2Qf3d2him8AxBsc35IqBW8xAfCAKl1D9LZJSYrH6JEjfBEOBbG+cb2Rc/hhuttt31zpg2goQIiUjLx/akIuAGD3M05SBbRZyVm5r6Sm5oV50iA9PT3E5Wr7GMBwo4MKIX8x2tZKTAA8019vg/Fjsn0RBxHGH36o7jb1dZt8EAnZXcLQo3olZ+Z8KYV8HH75nt8giSu0bvLH+OE5na3cinpn71cAcZQXo9VLt2bL+7iZAHhAE6Kb3japSUZXkog6lpKo/3VjW3OXlE6TjfTPmDBEDXX9BogTrY7FJwQOc6jit8SRE3IP9iFJmblTIHGxV8NIcUvFioXbvenDKkwAPKAYeB8W06O7L0IhQq+ePXS3aWtt8kEkZFdJWbmj3EJbCCDV6lh8LE7RtDlJGbnn7f8HKZk5lwngXm86lxDPlxflv+pNH1biDjUPSCkV6NzJr6qqj6KhYKcq+vN2KQ98JisFn6TMnGOExMfooo1+0REqekQ7EBmuwukQcLkl6hvdqG/a/UvTfP696RACM5IzcpwVRQveAnZ/DSTEi171KvBF5aDYG1FoSoyWYAJARBQkkjMmHAVoXwDwycEk/ePDMHZEdxw6NAppieEYmBiObpEHfxhqadOwrrIZayqasaqsEYsKd+H3DY3wQb6qQog3UjJynIqq/ubWtA/h3Z6HJa1a6Pn48EO3WQFagQkAEVEQSB4xIRtC+xQmT/7DUiNw5sRYnHhkT8T31td1WIiC4QMjMXxgJPYetFq7vQ35BTvwaf5W/Lxip5nJgCKFeMWtadux9zIiY0pVt+PkzSu75k4CX2ICQEQU4BKzcgZBat/A0CE3f+VQBU7J6YWrTo/HsNQIM7r8Q1xMCM4+Og5nHx2H0uoWvP3tJnwwuw4NzS4zuhcAenrRfpsqlRM2rPxhsxnBWI0JABFRAEsbM6ZbW4v4BkCct30pisCko2Ix+ewEJPXx/fHmAxLCcN8Vqbj+7EQ8O7MaM77ZjHaX5vNxD6JFSpy2oWheiVUBmI1VAEREAaytJewVAGne9jN8YCQ+fSwdj00e0CWT/756dnPg/itSMO+FTEzIjunSsffQJOSllUXzf7RicF9hAkBEFKCSMnKvAXC2N304VIF/XpiEL/4zAlmDrT0hOKlPKN64bwgevbY/IsO7rtJKCNxZWbjggy4bsIswASAiCkCJw8dnCIEnvOmjb68QvPvQMEw+OwGqn8wWQgAXHNcH3zw1AoOSzN1/cMDxJP5bvnz+4z4fyAJ+8ldKREQmEoqivAjAo/PwD2Rwcjg+e3w4xgz3ZsO876T2C8Pn09N9/EpAfl3eU9zowwEsxQSAiCjApGTkXAaBsUbbj06PxsfThqNf7xAzwzJdZLiKV/81GGdOjPVF90taZdg5yM83pfzAHzEBICIKIAlDj+olhZhqtH320Gi89cDQDg/w8ScOVeDxGwbipCN7mdntBtXtOHlzkf1r/TvCBICIKICooa77sfdUHZ0GJ4fj9XuHIDzUHpP/XqoCPHXLQLNeB2xTNBEwtf4dYQJARBQg+g8/qg+AK4y07dXdibceGIYe0fY9HqbN5fXJvC1S4rSyFfmrzYjH3zEBICIKEG7VdQuAcL3tFEXgiZsG+v07/4ORErjjuQ1YVLjLy46wLNBq/TvCBICIKAAkpo/tCeAaI22vPj0eedn6r5n2F0+8W4mP527xviOBsSmZOSO978gemAAQEQUA1RlyOQyc9d8/Pgw3n5fgg4i6xsw5tXjmg2rT+pNC3GRaZ36OCQARUQCQEhcZaXf/lSkIDbHnVPDzil24+79l5nYqcXZqVp59l0N0sOffOhER/SElY/yhAEbobfe3MTFWna3vtVVlTbj84RJfXA4UpkFOMrtTf8QEgIjI5iSEoaf/yWfbc+m/ZksrLp2yGo3NXu/6P5gLfdWxP7FvvQcREe0mhO4n1vFZ3ZE5yPPLfSo2tWBR0S7UbGlFdIQDI4dE4bBh0RBC78jeqW9y4+8PlWDT1jbfDSIxLj47r3dNQX6d7waxHhMAIiIbSx2RN1SD1P0of9kp/Tz6uK0723H/y+X4etFWaJr8058NTg7H1OsHIHuo7r2HhrjcElf/uwSry5p8PZTqcOE4AG/7eiAr8RUAEZGNuVU5UW+b3j2cyBnZvdOP27S1DWfcXowvf6z7y+QPAGsqmnHO3aswe/F2vSHoJiVwx7Ol3tf6e+64rhrIKkwAiIhsTAAT9LY5Lbc3HGrHa/dSAjc/uR5lG1s6/Lh2l4brH1+L5Wsa9Iahy5PvVeEjM2r9PSbHdeFglmACQERkZxI5epscM6bznf+/rNyFn4p2etRfS5uGKx9Zg5otrXpD8cjMObV4+v0qn/TdgdSU7PGevSexKSYAREQ2FZ+d1xtAnJ424aEqRg7p/J399zqX9Wu3t+Gyh0pM35m/YNkO3PX8Bq/6OGpUDxzSP0J3O9muHObVwH6OCQARkU05XBiqt81hw6IQ4ux8637Fpo6X/g9kVVkTbnxi3QH3CxixqqwJ10xdB5fbeH8ZaZF47rbBONTARkWh6P/62gkTACIimxJSG6K3TdZgz0r/OtsjcDCzF2/Ho/+rNNR2Xxvr2nDplNVoaHYZ7iMxLhSv3zsUEWEKMgdF6m6vSaH762snTACIiGxKQv8ENSDBs8sCjSyZ7/XKZzV4//taw+3rm9y49MHVXtX6d49y4M0HhiI2xgkAyEjz/MyDvQS0VMMB2AATACIi2xK63v8DwICEMI8+7rTcWKhezBD3vLABP6/QX7Lnckv8499rvKr1D3EKvHL3YKQl/n+yk9Qn1EBP+r++dsIEgIjIpqSQul9sJ8R6NhGm9AvF5aca3wTvckv8Y+oalFY3e9xmb63/wkLPqg8ORAhg+g0DMWZ4tz/9fmS4ijD9lx71MRyIDTABICKyKWHg+t+oCM9/7N9xcTLGjujW+QcexI56Fy6ZUoJtuzx7j//U+97X+t9xcRJOze19wD/r1V334bf6Nw7YCBMAIiK7ktD1YltRBMJCVI8/3qEKvHDHYKT28+y1wYFUbGrBtdPWdLqTf+acLV7X+l94fB9cc+bBT0Xu2d2pt0sj7w1sgwkAEZFdCXi2o2+PUKei+/KemG4OvH7vEHSL9Dxx2N/PK3bhnhcOXsv/4/KduOv5UkgvqgcnHtYDD17dv8OPcbl0D+AA0MXXHXUdJgBERPala5t8S5vbUI3+wMRwvHLPUDgdxqeM97+vxSuf1fzl99dUNHu0QtCREWmReO62QZ1uWmxt1/R23QbAnEMN/BATACIimxJSer7DDrs32TW36p4EAQCHD4/GI9ekGmq716P/q/zTCYObt7XhkimrsavR+OmBiXGheOPeoYgM73yForVN9+eu6+trN0wAiIhsSkI06m3jzWR7zt/iPL5G+EA0TeKmJ9ZhVVkTGppduGTKaq/uD9i/1r8zBj73et1B2YjuLZFEROQfpMAmvS+oKze3ol/vEMNj/uuyFGyobsG8AmNXADc2u3HZQyVI6RuKVRu8q/V/+e4hf6r178jWne2ob9KdAGzUHZiNcAWAiMi+qvU20FOXfyCqAjx/exqGeXFSYM2WVkOHBO0lBDDt+oE4fLjnVZDrq/TfbSCBLr+CsCsxASAisikhoPvQ/XUGJsL9RYareO1fQ9G7h+6yOlPcflEyzphw4Fr/gynbqD/xUYAy3Y1shAkAEZFdSbFKb5Olq815rZ0QG4I37huK8FDj5YFGnHtMHK49K153uyW/G/i8pfhdfyP7YAJARGRTisBKvW0K1zagsdn4RsB9ZaRFYtrk/rrPFjBq4mE98Mg1Hdf6H8zCQgOvHBSNCQAREfmfsuX5OwCU62njckssLjZvc/upOb1xwzmJpvV3MHtr/Y1cU7y+qtlItUF7u9q4XPdgNsIEgIjI3n7U2+DrhVtNDeDm8xJx8nh97+T10FPrfyCzfzVUsbCspqDAeJmCDTABICKyM4EFept8+/M2NLUYOxDogCEIYPqNAzByiK6rCTyit9Z/f1ICH8yu1d1OAAsNDWgjTACIiOzM7f5Bb5PGZjdm/bzN1DDCQhS8cvcQxPc27/4cvbX+B/Jr8S6UVhsoAVTEt4YHtQkmAERENlaxYmEpgBV6273yWY1Xl+8cSGyME6/fO8TwUv2+hACm36Cv1v9A3pml/+kfwK7oti26V1bsJrhOApw0SU0sqTtMUbRcAOmQSAPQC7vvfO7o3mfdd2He/ciTUNWuLY+hv4rp0Q1J8X1x1PjDcUzeEXA4gutbnoLGpwBG6Gnw+4YmzP1tB44a1cPUQIb1j8Azt6bhqkdL4PbiLcPtFyXj1Fzv9hWsqWjGVwvrdLeTEl8VFxfrumjJjoLip2Hi8PEZiqpcgTW150Ggd1fc7dTU7P1hG+S9+oZGVFRtxKJfl+G9T7/Bo/fchKT4vlaHRWQyZSag3ae31TMfVGHiYT1ML+M7enQM7ro0BQ+/rqtA4Q8XHNfHUK3//qa/XWEoCZEQM7we3AYC+hVA4vDxGcmZuV8qqrIcwGQAvtumSn5vbWk5Jt/1COq2GTvDnMhfVRTOKwbwk952y9c0YOYcQ0vknbrytH4475g43e0mHtYDD16d6vX4S0vq/3TzoA4bq3pijtcB2EBAJgBpaceHJmXlPK6oSgGAkwB00TEV5O821dbh/seeh6aZtwOayB9I4FUj7aa+WYHtu1xmhwMAePia/jgio7vHH+9Nrf++Wts03P7MBmN7HKR8Cfn5vvmC+JmASwCShk8c2BbZ9LOQ4p8IklccpE9BYTHe/eRrq8MgMpW6U7wHYLPedtt2uXDPCxt8EBHgUAVevHMQBid3vos/pV+oaRsI//NOFdZWGirhb1U154teB2ATAZUApGSMP1So7kUARlodC/m3F9+ciZJ1vvmhR2SFsrL8Fkg8baTt14u2YsY3unMHj3SPcuCDR9M7XAk4bFg0Pp46HHExxq8p3uvX4nq8+nmNscYCMzas/ME3Xwg/FDBPyP1HTsh0a9oPAMzd0koByeVy4b7HnsObzz6KsFDz6paJrORwOv/rcrXfBiBGb9uHXi9HxqBIZA4y/zCfnt0ceO/hYZj72w58+WPdH3X5qf3CcMK4XjhmTIwpGxHLN7biH1PXGK0+aFOF+rD3UdhHQCQAA7KPTHa5tFng5E86lFfW4OmX38Ydky+3OhQiU5QWzNmZkpnziISYrrdta5uGvz9Ygo+mHoIBCcYP3unIxMN6YOJhvvkxvbPBhb8/tBpbd7Ybai8EXtuwbK6xsgWbsv0rgOzsbKfLpb4HgLVdpNun38zBgl8KrA6DyDTOxsjnABh6v7V1Zzsuun81Nm21Vwl8Q7MLlz9cgvVVzUa72NEqtPvNjMkObJ8A1LojbwdwhNVxkH09+uRLLA2kgOEKb+4PAcNlLlW1rTjzjmKUVhueTLvUtl0unHvPKiz53fgNhxJ4cNOyH7eYGJYt2DoBSM3KSxVS3GN1HGRvO3bV46H/vAhp9rmoRF0sJWvCiZoif4HEQG/6qaptxVl3/o7CtQ1mheYTNXWtmHRnMVasazTeicRvlTHiWfOisg9bJwAa5D0AfPOyioLK4qVF+ODzWVaHQWSUSM7MuUNK7QsAnhfed2DrznacdWcxXv9ioxndme6HJTtwwo0rsM74sj8AtEqIvwdL3f/+bLsJMGnkuHhouNjbfhyqQGyME06HrXMh2qOtXTP8/vL519/FYZnpSOufbHJURL4Tn50d4XBFvQHgbLP7bmuXmPJqOQpWN+Dhf/RHTDfrp4x2l4Zpb1Xh1c9NuMxIiDsrC/NXmhKYDVn/t2mQkI4LARgqGnWoAuf8LQ5nHdUbWYOioCg8KDBQuNwSZ91ZjGUl+pcu29tduG/as3jjmUcQGuJ9PTKRr6Vm5aVqLvkpgCxfjvPVwq1YVLgTd12ajLOPjjP97gBPzf1tBx58tQwbary/a0UCn1Yuzzd0bkKgsO1jr5Q430i71H5h+PbpDDx6bX8cOiSak3+AcagCT98yyPBpYqXlVXjutXdNjorIfIkjJ+RKKX+Fjyf/vbbXu3D7s6U49Z8r8cOSHaZfJdyRVWVNuHRKCf7+4GpTJn8AJaoQlwFdcTWc/7JlAjAw44g4AWTobZcYF4qPp6V7dCwl2VdKv1BMuSrVcPuPvvwePy1ZZl5ARCZLycq5TtG02RKI7eqxC9c24LKHVuP4G4vwybw6NLX45l4NTZOYvXg7zr3ndxx3QxHmFZhWqVMn3eqJZcvzd5jVoV3Z8hWASziOhM4LfoQAnrttEHr3cPooKvInk46KxbzfduDrRVt1t5VS4uEnX8I7/52GmB6m7KciMkVa2vGhbVFNz0mJK6yOZVVZE25+ch3+9aKK48b2xAlH9MTYEd28Osvf5Zb4ecUuzF68DbMX70BNXauJEQMAGoWQp1asnLve7I7tyJYJgCYwTOhcuDlmTAxGDjH/iEvyX/++rj+WltRjY53+TYHbtu/Ew0++hOkP3AZh1QtPon2kpuf1bXM0fQzpX+eeNDa78fHcLfh47hY4VIGMtChkD4vCwMRw9I8PR2q/UESGq4iO+P/EYFejG/VNbmzb2Y6SiiasLmvGqg2NKFzbgPomt69CbRZSnlJeuED3tcmBypYJgCLFQL0vbk4e38snsZD/6h7lwJM3p+H8e1dB0/S/6lv06zJ8/NX3OOvkY30QHZHnkrJyR2lSfgIg0epYOuJySywtqcfSkgMfyhMZrqKx2WcTfEcaJZQzK4rmzbVicH9lyz0AmoE61xFpfPoPRmNHdMPVp8cbbv/sq+9iQ0WViRER6ZOcmXuRkFgA8yb/5YoQEwAUm9Sfxyya/LcpUhxdWTjvOysG92e2TAAEZKTeNrF89x+0br0gASPSdH/LAABa29pw79Rn0d4elOeEkJUmTVJTMnP/A+AtAGEm9TrT5WgYV7Y8Pz8krOUIKfCtSf36JQGsUTQxrqwo/xerY/FHtkwAYKAKVbHpZ0reczoUPHPrIESEGfsmWLehAi/8732ToyI6uMT0sT2T19R+K4FbTOpSkxL3VBTOP7emoKAJANYtXryrclDcyZDyKQRgOZwAZgkhxpStyF9tdSz+itMiBYUBCWH412Uphtu/9+k3+HnJchMjIjqw/hkThiiOkEUA/mZSl/VSiDMri+Y/iv0n+g8/dFcULbgZAscCqDZpPKu5IMSU8sFxJ7HUr2NMAChoXHBcHxwzJsZQWyklHnnqZezYZfzGMaLOJGXlneYW2hIAQ03qskTRxOjK5fmfdfRBFcvnz3Y5RJYEPjFpXEsIgSIhtTEVy/MfwIcfWrLhwE6YAFBQmTZ5IOJijB3zW7dtO/791MsmR0QEYM9lPkLKjwFEm9IhMEsR4nBPl8BrCvLrKgvnnwlF/A0WbBD0UjOEmBLVXjeqvOjHpVYHYxdMACio9OzmwBM3DzR8lvn8n3/D57NYSUTmiU3Pi0rOzPkQEFNh3s+7hvYFAAAgAElEQVTkZ4wugVcsy58T62gYCYGrAdSZFI+vaAA+VIQ4pGJ5/gPFxcXGbgILUrY8B4DIG+OzuuPyU/rh1c+NXXP61EtvYeTwYUhO7GdyZHQwQuKs5My8IVbH4RvyREAMN6mzJinF5ZVF+e+j0HgnBQUF7QBeHpB99Acud/vVkLgBQIJJMZqhVUK8rcH1WHXhwjVWB2NXTAAoKN1xcTIWFe3Eqg1Nuts2t7Ti/seewytPTIHDwX9CXULgBECeYHUY/kxKVChCnlZRNN+0iyxKC+bsBPBYenr6U/XOXudBimsBjDarfwPKAbypuMQLZcX5myyMIyDwFQAFpRCnwDO3DkJYiLF/AqvWluLlGR+aHBWRQQILQtA+qrxwgU9usSouLm6rWL7gzYrC+WOguQdKiXsArPDFWAewCRKvQCpHVxTOH1BROP9+Tv7m4OMLBa3ByeG4++8puO+lDYbav/3RVzg8OxOHZhxicmREnhMCL/RWG24sWF7Q3hXjVaxYWArgUQCPpmblpWqaliOFyBVADoA0E4bYBuAnQCzSpJhXVTRvCXa/6yeTMQGgoHbxCX0w77cdhq4a1TQNU6b/F2//dxqio4ydNEjkhTYITC5fPv/lcosCKFueXwagDLtPK0TyiCNjpKqmKZCDpIZBQogUCUQB6AEgEgKhACAl6gVkK4TYDCk2QsoaKeRqCUdxVeHcQDmPwO8xAaCgJgTwn5sG4NgbirBlu/4HqM1btuLRp1/Gv++52QfRER1UnSLEpLLl+flWB7KvihULtwNYsucX+TnuAaCg16u7E9NvMF4aOG/hr/h6znxzgyI6uOWqoh7mb5M/2Q8TACIAedk9cNHxfQ23n/78G6ioNlZWSOQpAbzvcjSM27BsrlWr/hRAmAAQ7fGvy5IxNDXCUNvmllbcP+05uFy8NZB8wg3IO8sL55+39zIfIm8xASDaIzREwTO3piHUi9LAN97v8Mh1IiN2QeL0isIF06wOhAILEwCifQxJicBtFyYabv/Ge59i6YpVJkZEwWzPffZjKormf2l1LBR4mAAQ7efyU/rhyMzuhtpqmoaH/vMCGhq5SktekvJzZ1jLKN5nT77CBIBoP4oi8MTNAxETbaxKduPmLXj8+TdMjoqChQQKAXFRRdGC09YtXrzL6ngocPEcAKID6NMzBNMmD8BVjxq7Z+S7eQsxbnQWjskbZ3JkQUqIKXCLgF4GF4pbc0hX9fqin2qtjoWCAxMAooM49vCeOO+YOLz3vbGfx4899zpGDBuMfn1iTY4s+EgpyytX5BdYHQdRIGECQNSB+65IxeLiepRWN+tu29DYhNumTMfwoYNMjam1Tf+V53UVa5H/9hOmxtERRXXAGRqOqJje6B6XiNiUwQiPMravgoh8gwkAUQciwhQ8fWsaTr9tJVxuqbv9ug0VWLehwgeR6VO/dRN+/9G6FXQhBHrG90f/keMh3TwrgcgfMAEg6kRGWiRuOT8Jj82wfiK3KykltlaXYmt1qdWhENEerAIg8sA1Z/bDERlcwiaiwMEEgMgDiiLwxE0D0cNgaSARkb9hAkDkoX69QzD1ugFWh0FEZAomAEQ6HH9ET5w1kWV9RGR/TACIdHrw6lT0jw+zOgwiIq8wASDSKTJcxdO3psGhCqtDISIyjAkAkQGZg6Iw+ewEq8MgIjKMCQCRQdefnYCxI7pZHQYRkSFMAIgMcqgCr9wzBIcNi7Y6FCIi3ZgAEHkhOkLFzH+nY8pVqUhLDLc6HCIij/FUEyIvqQpw6Ul9celJfVHf5EbNlla0teu/NyCQtLk0VG1uRf7SHfhm0Ta0tGlWh0RE+2ECQGSi6AgVQ1IirA7DL2QPjcapub1x+0Vt+NeLGzDn1+1Wh0Q+lpg+tifUsEGq4k6TUgyEwEBIhEMiBkKGQ4gwSNkCoAEQuyCxA8AOIeRqt1SLQ5zq6tKCOTut/jz+ZNIkNWnN5qMgxWFCiG6ArBaqnFO+dMEqq0PzFhMAIvKpfr1D8Mrdg3Hfy2WY8c1mq8MhEyUempemurRcKcSRAjhCAoMBDVLuKZHduxAm9vyP/OP/7PP7gISAIjS4XBqSM3OrAfkLgNnQtNkVKxZadoNU8si8o7G29kVADNwd6+5PSLqFTM7I+UJxK/8oK87fZFV83mICQEQ+pygCD1yZirUVTfhlZb3V4ZAX+mdMGKIJOQlCTpJumSHF7lncxJdeCYA4E8CZUFQkZ+Wuh8Q3Qmr/Ky/6cal5w3QsKSPvXGhyBg48TwoIcarmkFnxw3PG16xcUNlVcZmJCQARdQmHKnD/lf1xwk1FkMG9RcJ20tPTQ+odsWcD8gY3tFEATJ3xOyQxEMBkKZTJyZm5y4SQr0m39m7FioU+e6eUkpEzUQr5JjqfI1OcCmYAmICu+4qYhlUARNRlDukfgYy0KKvDIA+lZuX1SM7Mva/e0bsckDMAjLI4pJFSiuegqFXJGbmP9R053vSLOZIy8oZLIT4BEOLJx0shclMyciaYHUdXYAJARF2Khyf5v7S040OTMnNv1jS5DsAUAH2tjmk/ERC4LURTSlOych9JTB/b04xOk0aOiwfk1wC662kngZPNGL+rMQEgoi7Vr7dHD1ZkkZTMnDPaIptWCeAJCPSyOp5OREmJuxVHyPqUjLwr8KcdhvoMGTIuWmiOr4RAsu7GirDlPeHcA0Adam3TsLK0Eesqm1Fa3YLS6mZs3NqGhiY3mlo0NDZrUBSJiDAVEWEKoiMcSIgLwYCEcAyID8Og5Agc0j+CF+fQH8JC+Nzhj/qOHB8boinPSeBsq2MxoIcU8pXkzNzzpFu9qnLl3PW6WuflOVq2y5kARhoaXaLFUDuLMQGgv1ixrhH5S3fgp6JdWLq63qNDXHY1uv/478K1f/6zyHAVY9KjcURGN0w4LIYn5hH5mZTMnDOkJl4AEGd1LF6aKFR3UXJG7l0VRfOf8bRR8g75ggSOMz6sWGa8rXWYABAAYPO2Nny9cCs+/GELft/QZGrfjc1uzP1tB+b+tgMPv16BQUkROHNiL5x9dBx6dXeaOhYR6TBpkpq8ZssjEvJ2eLF87mciIPB0Smbu2BYZesXmou8bO/rglMy8f0kpr/BiPJfD4XrXi/aWYQIQ5ErKm/DiJzX4YsFWuNxdU8WytrIJU99swn/eqcbJ43ti8tkJGJDAVQGirpSYPransqb2PQDHWB2LL0jg3BDROix5xJFnHOwwoaSMvHMl5IPejCOkmFZasLDCmz6swgQgSK0qa8L0tyvxw5LtltVkt7s0fDKvDl8s2IpTcnrhlvOTkNQn1JpgiILIgOwjk90udfbuk/sClwAyIdRfEzMmnFhVNG/xvn+Wkpk7QUK+Ca9WPuR3vZ0NU8q9jNMq3I0TZBqb3XjotXKcdPMKzPnVusl/Xy63xCfz6nD0dYV4dmZ10F+kQ+RLiYfmpblc6gJLJn+nBa/8BHopQvs+OWvCuL2/lZw5IV0CHtf6H8Ty8Bb3pIKCgnbvg7QGVwCCyJxft+OeFzZg09Y2q0M5oJY2DdPfrsQn8+rw+A0DcNiwaKtDIgooyZkT0uHWZgPo55MBFAWyfzzkoATIfr0g+/aCjI0BwpxARNj/f1xTC9DcBlHfCFG1BajeAqWyFmJNJdDmk/m0G6Q2K2lEzolKiFwrXdrXAHp40V+lVFwnlpQssvW51kwAgkC7S8PUNyvx2hcb/eKJvzOl1c045+7fcesFSbjmzHiIQNmaRGSh+OE5SYD2Hcye/MNCoGUPhRw9DHJwMmS4Bw/VEWFARBhkr26QqbvD0QCg3QVRUgGlaD3E4t8hdjaYGWmUUMQ3sl1UQCDFi352SilOqFy2qMa0yCzCBCDA1WxpxTXT1mL5GlP/Ifmcyy0x7a0KLC7ehadvSUOPaH6rEhk1IPvo7i5X+zcAEszqUyb3gXbcGGjZQ4FQk5b2nQ7I4QPgHj4A4pyJEEvXQswrgLKqHCY9vURCYJgX7dsglTMri+atNCMYq/GnagBbU9GMix9YhY11/rnk74n8gh04687fMWPKUJ4gR2RAdna2c4ur/RMAw83oTw6Mh3bKeGgZA+HL5TmpqpCjhgKjhkLbUANl5tzdiYB1JKS8sqJo3g9WBmEmbgIMUEtL6jHprmJbT/57ra1swhm3F2NdVbPVoRDZzhZX1MMAJnrdUVQE3JedBNe/LoWWmebTyX9/sn883HdcCPct5wJ9rTmdWAD3VxQteMuSwX2ECUAAWlpSjwvuXYUd9S6rQzFNTV0rJt1ZjPVMAog8lpiRdxyA27ztRxt9CNqn/gNaTmaXTvx/iSNjINofvBzaxOyuTUAgXisvnP9Qlw3YRZgABJg1Fc34+4MlaGrp/Pheb0SFCPSNVpAaoyClx+7/Dnf69h/ktl0uXHT/Kr+tYiDyJ0kjx8WrQr4Fb+rcnQ64Lzke7mtPB6L85LCuECfcFx8H1y3nApFdEZP8Ls5Rf00XDNTluAcggNTUteLiB8x/8u8eJpDRV8XwPgoG9BRI7K4g4iB7fupbgapdGtbVaSjarGHlJjeaTKzqqd7ShovuX4WPpqajexS/fYkORmjqMxKINdpedouE++azIfvHmxmWaeSIAWi/71I4n/gA2LzNV8PsrvUvsW+tf0f4EzRAtLs0XDN1rWnv/B2KwBEpCib0dyArXoHi4TNEdCgwLFbBsFgFJw8D2t3Ab1Ua5pa68Fu1Bs2EnbxrKppxy1Pr8eo9Q1giSHQAu5f+5ZlG28ve3eH653mWvW/3WJ+eaL/3Ujiengmxtsrs3gOi1r8jTAACxNQ3K00p9XOqwDGDHDj9EAdiI72fXZ0qMDZFwdiUEFTt1PBRsRvzS13QvMwD5vy6Ha9+vhFXnuab80yI7Co1NS9ME/JZo+1l7+5w3XMJEGOTg7iiwuG+9VyoU9+BKNtoVq8BU+vfEe4BCABzft2O177w/hv/0HgFz54chqtGOU2Z/PeX2F3BTUc4Mf2EUAzu7f233tQ3K2x3vgGRr2ndtRsBpBlqHB2x+8nfLpP/HjIsFK5/ngeZ0NuM7vbU+ucHRK1/R5gA2FxDswt3/3eDV2dkhKoCk8c6cf9RoegX7fs19YE9FUw7LgQXj3RC9WI4l1vijudKu+wWQyJ/F5ueFwWIfxpq7HTAdat1ZXZeiwoHBnh9zlHA1fp3hAmAzT3xThU2bzP+3r9ftMD0E0JxdFrXvg1ShMCZwx14+JhQdA8zngWsLmvCG19uMjEyIvsKd8prARh6DHaf/7c/juW1I+XrnyB+LPS2m4WBVuvfESYANraqrAlvfr3ZcPsBPRVMPTYMyT2s20l3SJyCqceFok+U8RiefK+KpYEU9OKzsyOEhKGnf230IdAmHGp2SF1G/FIM9aN8M7o6IiUjp78ZHdkBEwAbe3xGheHl7wE9FTxyTCh6+EFpb3y0wL+PDUWcwSSgsdmN5z6sNjkqIntxuCMnGSr7i4qA++LjfBBR1xAlFXC89qVZdwWoEGKyGR3ZARMAm1pV1oS5v+0w1LZftMD9E0MPWstvhV4RAg8cFWL4dcDMOVu8ehVCZH/iMiOt3GdP9J9DfnQSG+vgeObD3fXGJpHApampeWGdf6T9MQGwqec/rDGU8IaqAnfn+ceT//4Suim4bXyIx2cO7Ku1TcMrn5lWAkRkKwmZRw6GxHi97eTAeGjjM3wRks+JnQ1Q//M+0NhidtcxWjecZHan/ogJgA3VbGnFN4vqDLW9aozT0nf+nRnRV8E5I4xtSHz3u1o0Npv3JEBkFw7puBgGjvzVThlv6dn+hrW0QX3yA4i6nb7pX5EX+aZj/8IEwIY+zd8Kt4Gj/g9NUHH0QNX8gEw2KcOJ1Bj9P5Qam92Y9bPPjgQl8ltSyBN1t0nus/tKX0+1u6Gsr4ayZBVE8QagwaKLuTQN6gufQpT5sPpH4tg+GcdE+m4A/8CTAG3o43lbdLdxqsDVo/zopX8HVAFcMyYEd37Xqvs1xyfz6nDmRMPHnxPZTmLmxATAnam3nXbcGI+e/oXbDeXrX6B8/yvQ0PTH70tVBQ4bAte5R3fpwUHqjO+gFK7z9TChIUr70QA+9/VAVuIKgM0Urm0wdCXucYMd6NsFh/yYZWisgsOT9K9W/LRiFzcDUlBRpes46Fz+l+Eh0LKHdv6Bre1QHn8Pyif5f5r8gd2JgVj8O5z3vQpRWatneMOUr3+CMm9pl4wlpDy+SwayEBMAm5m/VP87L4cicNoh9lvsmTTcqfv1pKZJLFjmo/eCRP5IEUfpbSKzhwKhna8Iqm/NgrK6vOMPqm+COv09iG2+/XdnYq2/h6TuTZV2wwTAZhYV6v9HNi5FRe8I+zz97zWwl0B6nP5vUSNfIyK7khIjdbcZNazTjxGVtVAWFXnUn9jZAPXJmUCLb1bfTK7199TQ1Ky8Hl05YFdjAmAjLW0alhm4/GaiDTb+HcyEAfpj/3nFLh9EQuR/9mxUG6SnjVRVyMHJnX6csrhYVyyishaOlz4zfZI2o9ZfJsVBxsXobaZokKMMD2oDTABsZMW6RrS26dv+3yNcIKOvff+ax6WocOg8GGDT1jZUbm71UURE/iMcbSMA6MuSU/tBhod0+mGiRn+psVi2FuoH5t2jY0qtf0w0XDefC5lm4KIgDZ0vldiY/V4MB7F1Bjb/ZfRRDB2s4y/CnQJDegsU1+p7qlhX1YSkPqE+ioq6mgDuS87Kvc7qOPyNJqXux1ptUKJnH2jwQV6ZtRiyXy9oubrfTPxZa7vXtf4yLBTuW84FekbvvujoJ303/ApgiOHBbYAJgI2sr9KfBWf0te/y/17D+6oortW38rG+qgUTsn0UEFkhFRKpVgcREPp5dt2v7NcLYpmxIZS3vgNiY6AdkmqsAymhvvCJV7X+UlXhvv4MyKS43f/fyE2HAgMMB2AD9l0bDkKl1U2df9B+BvS0/1/xwF76P4fSatOPByUKCLKvZwmANtr46rdwu6E+/zGwaauh9upbs6As967W333p8ZDD/3/+lon6zweRQB+vgvBz9p8dgsjGOn07bIUA4rv5KJgulGjg/IKNddwDQHQgMtazje0ytR80D6oFDqqxBc4nZ+o+MdCMWn/3qeMhx+93NlJ4KKDonvKYAJB/aGrRtwzeLVQg3GnjDQB79DFwyFijzq8VUbAQ4Z7vjXFfcjzQp6fxwTZvg/r8xxBuz3bwi8W/e13rr43LgHbaAUr4hQAidV/y192rYPwcEwAbqW/SVwYTaY+TfzvlUARCVH2JTIPOrxVRUBAC0oMDgP4QFQ7XrecCURGGh1RWlUP937edh1ZSCcerX3hVRqgNTYH70hMOesSxjNKdAATIT9EDYwJgI3pXAMIC4Ol/r4gQfT8UGppdPoqEyMacDugtC5JxMXBfe/rus/8NEj8WQv32l4P/+cY6OJ6Z6XWtv3bjpN0XnxxMuO4EIAQGblm0CyYANqL/9VXgkFLfv0HVzrWPRL7ichl6wtYOSYV2iXdH4ysfzoVYtuavf1DfBMeTM72r9e8RDffNZ0N29nqjXfeDgQuGCyL9XxBPKfbTLVJfBt7cHjjft006P5dukaxwJfoLTRqZBHc3zcmEduxor8Z2vPAZRNnG//+9tnaoT80Earcb7laGh8B1yzmQPT14Xd+se3Ow/tIrG2ECYCPREfoSgMYAuRSv3a1/ZVDv14ooWAj9k+Af3OceDS0rzfjgbe1wPPsRxM6G3bX+//0Eyvpqw91JVYX7ujMhkz3brC+adf9QbNQdlI0wAbARvU+1u1olmtp9FEwX2livfyWDKwBEB7HVi7syhIB29elAkhfVcVt3QX3qQ6j/+9b0Wv8OtbQBTbpfM2zW28BOmADYSPco/U+1VTvtXw5XvUv/59AjmgkA0YGIjfrP+N+XDA+B6+ZJkN2jjMewoQbKfIPHDO5xwFr/jsbctM3I/ocqvQ3shAmAjQxK0l+Ks26b/ROAdVv1fw5pibp3+xIFBbFpm9d9yJ7d4b5hEuC0pkruoLX+HRCbDFxuJFGhu5GN8DHJRg4ZoD8BWLFJwwmDfRBMFyrapD8BSB8Q6YNIyCoSuKyycP4bVsfhb1Kz8vI0KefpaSM2bOz8gzwgB8bDfdXJUP/7qelXAHeks1r/gxGlBj5vIVbpb2QfXAGwkWGp+ie1FRvdcNt4EaC+Vf8KgBDA0FTjB5cQ2YXmdhVCZ5maWFPpVb39n8YfNQzaqUea0pcnPKr1PwixqszAgNrv+hvZBxMAGxmYGI6wEH1/ZfVtQEGNfU/F+7HMBU3nw0VCbCi6R3FxiwJfxYqF2wGU62rU1g5Ranzn/f7cp46HNna4af0dlKe1/gcgdjVCVG3R20y63e3LdQ9mI0wAbERVgJFD9G+8mVtq31Px5pXqT15GHWLg8gAim5KA7t10SkGJeQEIAfdlJ0IbmGBen/uRYaFw3XquZ7X+ByCWrTHymuL3quKfvd8w4ceYANjMMWNidLdZXKEZKqWzWnGthjV1+t9fHHu4F5eXENmMkHK+7jaLiwHNxHeDTge0GyZB9jL/7hypqnBffwZkUpzhPpSfVhhoJRYaHtAmmADYzLFjPbvLe1+aBD4utt+BAB8W6V+5CA1RkDMyoC/wIvoTt9A6v2lnP2JnI5QVpabGIbtHwn3T2ZDhIab2q6vW/wDElh0Qa/RX8wnI7wwPahNMAGwmITbE0A73uevcKNtun1WAZRvdWLZR//J/zsjuiAznKYAUPKoLF64BoPtEHeX7X02PRSbFwX3tGbp36B+M+7QcXbX+B6LMXmJk+b81rMU1x6uBbYAJgA2ddKT+VQC3BF76ta0rq3UMa3cDLy82tmJx4jj9XxuiAKB/FaB4A0RpjemByBED4T7vaK/70cZleF1hIHY1Qsk3cOCQxA8lJYvqvRrcBpgA2ND5x8YhIkz/X93vtRq+WO3/GwLfWtqOGgN7Fvr0DMFJR/L9PwUfTSrvGGmnfPGj2aEAALRjRkObcKjh9vKQ/tAu01/rvz/x7S9Am/6HCQm87dXANsEEwIZ6RDtw1kRjG2LeXNqOEgMb67rKL5VufFliLEm55MS+cDr4LU3Bp6po3mIAune6KcvXQaxY74OIAO3CYyAPSdXdTibFwT35TEjVy1d5m7ZCnbPESMtdbmfD594Nbg/8aWlTV53eD6qBvz23Bjwyr83QE7avlW3X8PQiY68pwkNVnH+s8V3CRLYnxOtGmqkzvjN8RXBHpKrCfcNZkAm9PW/kRa3//tR3Zxs98OjNmoKCgL4GeC8mADaV1CcUJ4zT8Q9rHztbJB76oRU7mk0Oygs19RL3/9Bq+PbCC4+PQ0w3Hv5Dwcvdos6AgetrRe12qJ8u8EFEe+r3bzwbiOr8ZE4Z7l2t/76UhUVQigytbGhuuJ/zOgCbYAJgY3f/PcnQXgBg94R753ct2FRv/euA9ds03PVdi+GEpHcPJ248N9HcoIhspnr1D1slxItG2irf/mJ0wuxcXAxcd13U8RkBPaLhvuNCr2r99xI1W6DOmGWwMb7aU1URFJgA2Fh871Bcd5bx07c21kvc8V0bfq+1Lgn4pdKNe75v82o14u5LkxEdwdI/IodbfRyA/uVrKaG+/AXEtp3mBwVAJvSG69Gr4T5rAmRKX8DpAJyO3Wf7n54D19SrIVP7ej9QSxvU5z8BWg0tJUqhaVO8D8I+uGZqc1edHo+P59WhtNrYDLqjWeJf37fi/Cwnzkh3QDGnfLdT7e7du/2/LHF5VZo4Oj0aZ0yINS8wIhvbsPKHzSmZuS9J4GbdjRuaoE7/AK67LwKiws0PLtQJ7aQjoJ10hPl9AxBuN9TnP4ao1n/tLwBI4LOKoh+XmhyWX+MKgM2FOAWmXtcfDtX4zO2WwIxl7fjnty2Gjt7Va2mNhhu+bMEXq72b/CPDVfz7ugFmnTlCFBBcrY5HILHVSFtRswWOJ2caKp2zlJRQXv0Kwvjphm0a3HeaGZIdMAEIAGOGd8NtFyV53c/6rRJ3zGrD9B/bUbbd/ETg91oNU35oxZQfWk2pQvj3df2RluiDJxUiG6te/cNWAWF4MhPrq+CY/h7Q2GJmWD4j3G6oL38B5eeVhvuQQj4TTO/+92ICECCuPj3e0EVB+9OkxI9lLtz0dSvundOKeetdaPbiYaC+VeKbNS7cNqsVd33XiqU15iQWF5/QB6fmGKuCIAp05UX5rwP4yWh7saYSjqkzgB1+fhheSxvUp2Z6NfkDKI9odj9oVkh2wj0AAUII4D83peGUW1dgQ433mbuUQNFGDUUbNTgXt2NorIKMPioG9FKQ0E2gT5T4y34BlyaxuR6o3KVh/VaJ5ZvcWF+nwW3ykQMjh0Th3stTze2UKLBoUoqrhZC/AjC0TCYqa+F84A24/3EqtKEpJofnPbGxDurzn0BUbfGmGwlFXBEMx/4eCBOAANItUsU7Dx2CSXeuRPWWNtP6bXcDKzZpWLHpz0/v4U6BcAegAWh1Sa9WCjw1rH8E3rh3KEKcfPFP1JHKovyVyZk5N8NgaSAAYEc91GnvQJyeA/fJ40y75MdbysKi3aV+xnb77+u5imX5AX/pz8HwFUCASYgNwYdThyMh1twrOQ+kuV1iW7PEjuaumfwHJIRhxgPDeOAPkYcqChe8JCXe9aoTKaF8Mh+O+16FWKf/Wl1T1W6H+sT7UF/90vvJX+K3kMaI28wJzJ6YAASghNgQvP3gIYiNcVodimkGJITjg0cD63Mi6gpOp/NaACXe9iMqa+F49C2or34JUbvdhMh0jL2rEerMuXDe85I5BxZJbBWQZ69b922r953ZFxOAADUgIQyfTx+BQ/p3fgSnvxs7ohs+npaOuBjfr2oQBZrSgjk7hZTHA9jkdWeahLKwCI47X4T60ucQFZu9D7ADYssOqO/OhuOfz0P55mejZ/vvr1UCp5cXLdhgRmd2xrXUAJYQG4KPpw3HrU+vwzeLtlkdjiEXn9AH98tqZuYAACAASURBVF+Z6tU5B0TBrrxowYbkERNOgqLlA4jyukNNg/Lzyt2775P6QBs3HNqoYR0f9+up+iYoS9dA+akIYk0VvDos5K80IeRlFYULfHMPss0wAQhwEWEKnr9tEK5yrcHsxV27bOetC47rg4f+0d/qMIgCQsWKeQVJmTlnCojPYLAy4IAqN0N5fzOU93+AjIuBHJYKLS0BIr43tL69gMiwg7dtaYPYtA3YvA3K+mooq8qBqlqzJ/29JCCvLV++wLs9EQGECUAA21Hvwkdzt+CdWZtRWm2PQz329c6szShc24ALj++DU8b3QmQ4z/sn8kZl4YLvE0dOOF7RtC8BRJvdv6jdDlG7Hcr8ZQAAFbtvBER0OBAWAqgKoMndE39jC9DYZVeSSgA3VhQueKmrBrQDJgABqKS8CS9/uhFfLtyK1jbrb/vzxsr1jbjzuVI8/FoFzpjQG1ed3g9Jfby/K5woWFUtmzc/MWPC3xShfQvA+9PDOiFaWoEWS/fatQO4vKJw/gwrg/BH3AQYQErKm3DttLU47sYV+GjuFttP/vtqaHbhrW82Ie8fy3HHc6Woqg3qzbtEXqkqmrdYqHKcAAL9+NudmhSncPI/MCYAAWBdVTOue2z3xP/1oq3QNJ+8P/MLLrfE+9/XIvfq3YlAzRYmAkRGlC9dsEp1OEcD+MrqWHykRNHE4VVF+bOsDsRfMQGwscZmNx5+vQLHTi7CVwsDe+Lf395EYOK1RXhuZjXa2oPncycyS2nBnJ0VhfNPFRD3YvdSeYAQ7zgczjFlK/JXWx2JP2MCYENSAp8vqMOEawrxymc1cJl92L6NNLe68fjblThmciHyC3ZYHQ6RHWnlhfkPK0KMlkCh1cF4aZsQ8oKKwvwLSwvm7LQ6GH/HBMBmaupacf69q3DD9HXYvM288/7tbkNNCy6ZshrXTluL7btcVodDZDtly/OXxzkaRkHKBwA0WR2PfuIdp2wfxjI/zzEBsJEvFmzFsZOL8FMRE9uD+XrRVhx7QxF+XM6vEZFeBQUF7RVFC6ZoUAdLiNcAmHL0ni9J4BdNUfIqCvMvXF/0U63V8dgJywBtoKHZhXtfLMMn8+osi8EZGoZuveMRFt0DIaHhcISGwRkagdCIKEipoa25CW3NjXC1NaOtpRktDTuws7YablfXv1bcvK0NF92/Cpef0g93XJzMmwOJdKoqnFsN4IrkzAlPAtp9AM6A/80XS6RQHqlcPu9zqwOxK3/7C6X9rK1swhUPr0HZxq45yEcIgZ4JAxA/KAM9+iUjJi4ZPfokIqpnnO6+pKahfttm7NhciR2bKrCtphw16wqxY1OlDyLfb2wJvPr5RvyychdeuXsw4mN5dgCRXhWF84oBnBM/PCfJoYrrAVwBoKeFIbUL4Gu3ojxVtWzefAvjCAhMAPzYD0t24Ibp69DQ7Nt32j3iEpE4LBsJQ0YifkgWwqNMOM8bgFAUdOvdD91690Ny+ug/fr9xZx2qVi1FTclyVK4uQMM2363arVzfiFP+uRIv3z0Yhw4x/eAzoqBQs3JBJYA7EseOfUBpDD0RQk4CcCKAyC4YXhOQSzSID0Jk+ztc5jcPEwA/9eInNZj2VqXPSvvCo2MwaPRRGDLmb4hNGeyTMQ4msntvDDn8GAw5/BhIKbFxbRFKFs/G+oJ8tDU3mj7elu3tOOfu3/Hv6wbgrImxpvdPFCyqfv65GcBHAD5KHDs2XDSHHis0LRcQR0IgC+bNKZVS4kehIF+o2lflBT9uNKlf2gcTAD/j1oC7ni/FB7PNT3KFoqB/xhEYOu54JKePhqJa/9cvhED84EzED87E+HMnY8PyRVi18BtUrS4wdZy2dolbn1qPik2tuOX8RFP7JgpGe5KBz/b8Qmx6XlSkE4dpkIMgkQbIgYBIBtALQMSeX90AtAFoxO5reTcLiWopxEZFyBK3JlZIYGV1UX6VRZ9WULF+BqA/uDXgtmfW4+O5W0ztVygKBozMweiTL0FMv1RT+zaTwxmKQaMmYtCoiairXIfCOR/+X3v3HR9Vlf4P/HPuzJBCEjqBQCYBQockEEFqEppUsQBrw7Ur9tX9qatiWXRZdd1du66urmthV8GugNQkdNlAJiE0MT1IElpIIGVm7vn9gfpFpeSWycydfN6vF3+YzHPuAxlznzn3POdg7zerIFXztjR+/r9lOHLMgwW3xENwbSCRaaryM2qrgAyc/EMWwAIgQLg9Km5/Zh++3nzYtDEVmx39R0/DkAsuQ1SnGNPGbQ4dYxMw4boHkXzBZdi27H3sy84wrRB4Z+kBqFLiiVvioSisAoioZWIBEAAa3RI3Ldxr6k523foOQeqVd6NdlzjTxvSHDt16YtKNjyBx/CxkLnoOB0u/NWXc95ZVoKFRxTN39mQRQEQtEgsAP5MSeOCl70y7+Ye3aY+Rl9yMPiMugAiiOe7ongMw56HXsHfLSmxY/Arqjx8zPObi1VUIC1HwxLweJmRIRGQtLAD8bMGbxaZt8DNgzAyMmj0PrcKaozOn+QlFQd+RkxE7YBgy//McCrevMzzmO0srEBsdipsv6WpChkRE1sGtgP3olSX78dbnxrtbHKHhmHTDfKRf/fugvfmfKrxNe0ydtwDpc++Fze4wPN7Ct4uxxOSFl0REgY4FgJ98teEQnnm3xPA4HWMTMOfhf6D38AkmZGUtA8ZeiEvuf9HwAkcpgT+8VIhv8mtMyoyIKPCxAPCDgvJ63PdCAaTBPX76j5qKWQ+8jLadW25fe+e4vvjNw68jbvAIQ+O4PSru+Mu3qDoSREeiExGdBQuAZlbfqOL2Z/bieJ2xQ7aGTL4S6b+9DzZHK5Mys65WYa0x9fY/YcCYGYbGqTjciDv+shcer292XyQiCiQsAJrZw68UYmeh/qO2hRAYNWseRl56U1Ct8jdKEQrS5t6LYRdeY2iczTtq8Ox73ISMiIIfC4Bm9NGaKkOLzRSbHROvfwjJF1xmYlbBQwiBYTOuxeg5txkqjl77uBzrcqpNzIyIKPCwAGgmlUcaseDNYt3xQgikX/179B4+0cSsglPSxDkYc9mduuOlBB548TvDj2mIiAIZC4BmMv/VIhyt0X+s76jZt6LfyCkmZhTcBo+7xNBMSXlVI576d6mJGRERBRYWAM3gs6yDhvb4T5k2F0kT55iYUcsw8tJb0H/UVN3x7y47gPUuPgogouDEAsDHjh334o9v6J/67zdyCobPvN7EjFoOIQTS5t4L58BhuuKlBB55rYhdAUQUlFgA+NhLH5bjULW+3vIO3Xoi9arfcbW/AYrNjkk3PoLI9tG64gvK6/Du0gqTsyIi8j+eBeBDZZUNePurA7piHaHhmHzz47A7QkzOquUJCY/EpBvn49NnfwdV1b6w74UPyjBrfCdEtbb5IDtqCgG85UxKe8vfeTSD/QDWCMi/Fbuytvs7GQpunAHwoWfeKUVDo74z7NOvugdtu8SanFHL1aXXIJx/8Q26Yg8f8+DlxeUmZ0R0WjEA5kqIrbFJaQvA39HkQ3xz+UjevuP4fJ2+U/76jZ7Gdj8fSL7gcjgHDtcV+68vD2B/VYPJGRGdkU0AjziT0j7rmTKxjb+ToeDEAsBHXl5Srmuv/7DIdhg9e575CdHJvRTm3gtHSKjm2IZGFf/8zPjJjUQazfB43Fvjhqb293ciFHxYAPhAyYF6rNDZ9jdq1i0ICY80OSP6UUT7aAyZeqWu2P+sqMSRY/r3ciDSqbf0ii2xyeMu8nciFFxYAPjAPz75Hl4dj/67JgxGnxEXmJ8Q/czQSZejXZc4zXEn6lW8t5wdAeQXkUKqnziT0x8HwLYgMgULAJMdqnZjyWrt+/0rNjvSrrqXLX/NQLE7MPbyu3TFvv3lAd0LO4kMEpDysbjktPdjUlLC/Z0MWR8LAJN9sLIK9TpuEH1HTkb7mHjzE6LT6t5/qK4Ngg4edWPpRv27OhIZJSWusHsi1vVMGeP0dy5kbdwHwGQf6TjtTxEKhky+3AfZ0NkMnToXJflbNcd9tKYKl6R39EFGRE021OOxbY1NTJtdmpu5zt/JnCo+Ob2tVL09JZRuUohuArIrIKIB+dP0phDwSokqIWSlVJUKCByA6skvyVt/xJ+5n0nskNEximw1REINV4VSqSrHtu7PztZ/rnuAYAFgIte3tdhXVqc5rtewcWjbubsPMqKziemdiJg+Sdi/16UpbkPuMXx/sBFdO7byUWZETdJZCKyOTUq/q9SV8ZqfclDihqSdD1WOAsR5EkhRpUyAUAQACPzYCvXzlqgfO6SkFID44T8UG5xJacUQcEEiRxFibQdbzYbs7Gx9W6mawDl4TE8I5W9QxYUSqgIAilShqBHVzqS05yM9B/+Un5/f6K/8jGIBYKKP12rv+xdCYOgUfavSybiUqVdpLgBUVeKTjIO4bXaMj7IiajKHgHzVmZSeHOmpuqs5bkYxKSnhNm/UJEh1pgBmSBWdTVyXGAeJOAAzVSkfrfJEVDuT01YKKZdJVf2kOWcIuieNHQ4oywC0P8232wB4tMbeYUJ04gWTK3JXHG+uvMzENQAm8XglPs/SXgDEDR6BDt16+iAjaorYAcPQKa6P5jg9xR6R78hbauwdV/cYNEHfoRdN4BwydkBsUvpLdk/E90KqnwrgegCdfXW9H7SBxGwJ8SYUW7kzKe2d2MS0sT6+JroljemjSGUpTn/zP4UYHSIa/DX7YhhnAEzyv121OKyjR9zIcbVkjv6jpqCqeK+mmG9LT6Bwfz16xGjfVIh02QmJ/f5OwicEhuKcN5omGeO1ebbGJY69uDh33TYTxgMAEZucfpGQ8i6oGCfg15MxwwBcLQSudiam7YIiny7pHf0eFi/WfsDHWfRKHNXZDdsyCHRoYsjc+OT0vxblZOSYmUdzYAFgkozso5pjQltHIW7wCB9kQ1oknDcB6xe/CtWj7VFj5raj6BHTxUdZ0akk8Gxpbua//J2HLzgHj+kJxfYZgEEmDBcrhbI+Ljn1xuKcrEWGBhqcmgpFPC2kDLxfUgL9IcXbzr2VD8rEtD+W5mZ+AMBwf25MSkq4x2P/HICmaVkJOQeA5QoAPgIwSUa29kdTCcMmQLE7fJANaREaEYX4QedrjsvIrvZBNtTSlOStL6jziJES+NikIcOkFO87k9Kexpw5mo+wjBua2t+ZlPqlUESmAALv5v9zfYXAImdSWo4zedxoQyPNmWOzu1svkhCafxmoEpbcqpkFgAkqDjdid7H2jpC+Iyb5IBvSo4+On8XmHce4KRCZoio/o7bUlTkbwGP45ZJ5/e6P21v5ZXxyetsmvXrOHJszOe1+6RXbADHdpByay2BINSs2KfXFTgPTI/QM4Nxb+XcIoXe7Zb8+G9GLBYAJsrZXaz74J6pjV0T3sGTRGJTiBo+EI1Tb5mp1DV58s7PGRxlRCyRLXJkLpBCXAjDljSWBKVLKLec6TKhb0pg+zj2V6yDxNACrLmxRBMQdYXa5w5mcpqmij01KuxfAnfovLXfqj/UfFgAmyNlbqzmmW7+hPsiE9LLZHeiakKg5Ts/PnuhsSnMyPgWUkQD2mTGeBPpIr9jsTEy78HTfj0tOvcoG23YIjDTjegEgDhLLYxPTHkIT+hOdiemzBfAXIxe0K7YlRuL9hQWACfL2aW8B7d53iA8yISNi+yVrjsnbxwKAzFfiWpuvehrPB7DCpCGjIPBpbHLqw/i/m6KIS0x/UkrxLoBgO1tAEQJ/cialLu7bd/QZj1eNS04dBSHfhaF7oXi/cPtabZuJBAgWAAa5PSp2FWkrAIQQ6MYCIODE6PiZ5H1n+d1AKUCV5W86XNKn8zQJ8VeThlSEFE86k9I+6JU4qrMzKXWxFPLUgiAIiVl1ofZNMYNSY3/5nW5JY/pIKT6DsUce+Xa7/XYD8X7FAsCgvSV1aHRrWwDQtkscwtuY0fZLZurYPQGhraM0xeyvasDBo37bqZSC3eLF3lJXxv8DxNUA6k0adY5bOEoAMcuk8QLdQLtNZMYnp8f/+IUuQ8Z2sgnbUgBGDvX43qbYphdkr7JsOxD3ATAov0D79H9Mb+3Pmsn3hKKgS69BKMrdqClux3fHkZ7StIXWRHqUuDLei01O2yMkPgZgxsEhISaMcVqO0Nbo0qM/2kTHon3XWER1jIEjNByOkFC0Cm0Nd0MdGuqOw9NwAsePHsKR70twaH8hDpUX4ET1IV+l1UOVMiN20PgJMrJuvzihfA6gl4HxagXk9MLta4rNStAfWAAYVHKgQXNM2y6/mo2iANGua5zmAqCkwqwPZkRnVpqTuTV+YPow1a4uAYSxnneTdYztjV4paejebyg6xfWBomjefgAAcHh/EUp2bEFx/jf4fk8OVGlqm22csHkzxAlHPoztb+ARKn5TnJe13azE/IUFgEFlldoLgHbRLAACVbto7R+uyistexgYWUxRfsaBgQMHjq+xdXwJAjf5M5eQ8Aj0HzMd/UZMRvtuPUwZs31MPNrHxCP5gstQe6QKO9d9iZ3rvzJzZqA7IIzNoAjcVpyXucykfPyKBYBB5VU6ZgBYAASsNjp+NuVVLACo+fxw4t/NsclpOULiOQDNup1oWGQ7JE6YhcRxF8MR2tpn14lo1wnDZ16H86Zfjb2bV+CbL95G7ZEqn12vKYTAwuKczDf8moSJWAAYVK5xBsDmaIWIjtw/PlDpeTyj9T1AZIbSnMxXug8Zl29T1cUS6OTr6ymKDYPGXYLzZ17r0xv/r65rs6Pf6GlIGD4BeWs+xv+Wvg93vT9O3xXvF+dkzPfDhX2GXQAGeFWg4rC2FeBRHWOgCP6zB6qwiLYICde2k+j+gywAyD/Ktq/NVBTbMAA+fR7dMTYBsx96DWN+c3uz3vxPZXeEYMjkK3D5Y28ipo/2PTuMkEBGpKfqelh0y98z4Z3IgLoGDzxebe8HrTcXan4h4WfcN+S0ak6YehopkSaF29cUe+y1YwDxgS/GH5x2MWY98DI6xib4YnjNIttH46J7/orRs+dBsTXLJPZOmxCX/PDoJaiwADCgrl57MdhK437z1Py0/ozqGlTNZ0EQmWl/dvaJElfGFYB4ECYciwuc3B570g0PY+yVd8PmaGXGkKYRioKkSZdhxl1P+fpD1fc2xTatKCdD+3nvFsACwIC6Bu2f/ByhYT7IhMyk9VAgVZVocPNUQPI7WeLKeEoIeSEAQ5vTOELDMf3OP6P38IkmpeYb3ful4NL7X0RkB5+sq6oVUp1h9V7/s2EBYEB9o44ZgBDOAAQ6rQUAANTVswCgwFCck7UMwF698Y7Q1rjonr+ie78UE7PynXZd43Hx7/+OiHamroM82eufu26bmYMGGhYABuibAWABEOj0FGl63gtEvhCXnHoFgGF6Ym2OVph22xPoHN/P5Kx8K7JDF8z83bMIi2xnzoBB1Ot/NiwADNC6ABAAFDs7LwOdnp+RnvcCkdkSEqaGSCkW6okVQmDS9Q9b9qCytl2c6DtysuFxhMDCkiDq9T8b3o2IiIKEO7zuagBxemKTJl2GnkNTTc6o+RRsy4Jr1YeGxhCQW4pzsoKq1/9sOANARBQcFAh5n57A6Pj+GHHR9Wbn02wqinZh1b/+DKkaW4sjIRJjUtI7mJRWwGMBQEQUBGITU2dIoI/WOLsjBBNvnA/F3qw7CpvmaGUZlr74IDyNphzKFWZ3S7+esdCcWAAQEQUBIXCznrihU65Am04xZqfTLOpqj+KrF/6AulpDXY8/J3ArWsi9sUX8JYmIglnMoNRYQEzRGtemUzcMmXKlL1LyOY+7AUtffhjVVeVmDx3rHJI+3uxBAxELACIii3PYxeUAbFrjUqbPhc2CU/9SVbHqzYWoKNjpmwt4Mdc3AwcWFgBERBYnpbxIa0xk+2j00bjTn7v+BI5V7UddzRGtlzPVhiWvomB7lu8uIOQlKSkp1quMNGIbIBGRhfUYNCHaC89IrXFJE2c3+TCdotyN2LbsP6gs3AlVnlxpH9k+GgNSL0TypN806yyCa/US5K5e4uvLRB30RIwBsNbXF/InFgBERBam2t0TILWdMa7YHeh9/qRzvk6qKtb99wXsyPzsV9+rOVyBLZ/+E/v+txYz7/4LwqJM2oXvLAq2Z2Hjkld9fh0AUIWchiAvAPgIgIjIwqQUaVpj4gYOR1hEm3O+buuX/z7tzf9Uh8q+wxfP3wd3/QmtaWhSUZCPVW8uNNzr31RCx7+r1bAAICKyNs3b9yUMO/ci95rDFdi2fFGTxjtY9h1W/POJnx4PmK26qhxLX34YHneDT8Y/g+TuI0cG9fGtLACIiCwqJiUlHBo3/xFCoHv/oed83d7NK6F6PU0etzhvMzYteU1LKk1SV3sUXz7/gKFe//A27fU8onAoJ0KscSSiTiwAiIgsyqZGDoDG3+MduvVEWETbc77uYNk+zfm4Vi3GznVfaI47k5O9/vMN9fo7QkIx7faFiOmdpCNaHaj7whbAAoCIyKKE1H6D6tprcJNe53U3as4HALL+8wLKdm3TFXuq/+v1z9c9hiIUTLrxUXSO64vo+L6a4wWE9iALYQFARGRRQgqn1ph2MU0LiezQVXM+AKB6Pfj69cdx9ECprvgfbTSh13/sFXcjPvFkh2Tn+H6a4yXQ21ACAY4FABGRRUmIblpj2nZpWgEQN3iE5nx+1HCiBl+99CDqa4/pis9dvQQug73+QyZfiYFpM3/673Yx8XqGiTaURIBjAUBEZFlS8yk+bTo1rWaIHXAeonsO0JzRj6qryvH1a49C9bg1xRVsz8IGg73+vYeNx4hLbvzZ10LDo6Bo2y4BUrIAICKiwBShNaBVWNNChBCYeP1DCAmP1JzUj8q/dSFj0XNNfn1FwU7Dvf4xfZIw/to/QAjxs68LRUFo1LkXP/4sRsD3uxv5EQsAIiKrkgjVGuIIC2/ya9t06oYptzze5C2DT2f3hqXIWfHfc77OjF7/tl2cmDJvwRm3Jg6P1Hw/D9GdjAWwACAisiqhrQCwO0I0T4N36zcUqVferSnmlzZ98gYKXRvO+P262mp89cIfUFd7VPc1wqLaYcadTyG0ddQZXyMUzQcmOgCIc77KolgAEBFZl6YH7Fo29jnVgDEzkDRxjq5Y4GRL38o3nkBl0e5ffc/rbsSyl+fjaGWZ7vHtjhBMu/VJRHU8e+eCR3tro/zhT1BiAUBEZFmyRsurVdWru79/1Kx56JE0WlcscHJTn2WvPILaI1U/fU2qKla+9SccKNihe1xFKJh44/wmLVj0ejT/3X17wIGfsQAgIrIoAaGpAACAxvrj+q6lKJh4/UPo2L2XrngAOF59EMtffQSexnoAwMaPXkPBNmO9/mOuuAs9k8c06bU/XlcDFgBERBR4JKC5ADhRfVj39Ryh4Zh2+58Q3qa97jEqi/dg9dtPwbV6CVyrFuseBwCGTL4Cg9IuatJrPY31qDt2ROslKjUnZSEsAIiIrErKQ1pDjhwoNnTJiPbRmHrrk7A79C+Q/y47Exs+fNlQHgnnjceIS25q8uurK8shpdbH+VL/IQQWwALAALtN++JQb0OzHmdJOri1TxPqei8QGSUV8a3WGKNb9AJAdI/+GH/t/b/qtW8uMb0TMeHaBzRd/2iF9kWGEor+lYkWwALAgNZhmltKsH9frqFNLsi3vO5GXYePRLbW3ydNpJeiyl8vqz+Hg6XaT/k7nYTzxmPYjGtMGUuLtl2cmHLrE7A5WmmK03O6oQJ1l+YgC2EBYEDXDq2gtQA+VF6A3DUf+SYhMmzL529pfkYaGW5DZLj2YpDIKK+w79EaU77XZdqHkJTpv0Xv4RNMGaspmtLrfyZlO7O1X1AVO7UHWQc/thjQOsyGmI6tUF6lrbVk45JXceRAKZImzkJ4lP7FNGSemkMHkL1sEb7LztAc2zu26TurEZmpzLVmvzMp7RiAJt8RG07U4GDpPnSK62P4+kIIjP/t/Th28IChY3ubwhESium3Lzxnr//p1B8/hqpizbUSVLvHpTnIQlgAGDRicBt8tKbq3C88hZQSO9d9gZ3rvvBRVtScRibq3yudyCApgI0SmKIlqDhvkykFAADYHK0w7dYnsOTPt6LmcIUpY/6SIhRMuvERXUf6AkDZ7myoUvOsR2Hp9g37dV3QIvgIwKBJw4P6rAhqgknDOYtDfiSwRmvIns0rdayIP7OwqHaYdsdCOEJ9Mxs2+oo7EZ84Snf8nk0r9ISdee/iIMECwKAJw9qhfRQnUlqqXt3DMKSv5gPZiEwjvYrmAqC6qhwVheZO2Xfo1hOTb3pE81kD55J8weUYnHax7vjaw5Uo3fGN9kAhV+m+qEWwADColUPgugu1P5Oi4DDvUs3HsROZqqRfxxwAmne42bH2c9NzcQ4agVFzbjVtvITzxmOkhl7/09m9cZme6X+1Ucilhi5sASwATHDDzC6Ibq+tJYWsr3+PcFw6rqO/06CWbvFiL6TQfDfft3U1qqvMf8SdOGE2BqbNNDzOT73+iv7blLv+BPLWfqondPOB7eu0Le6yIBYAJmgdZsMT8+L9nQY1I7tNYOFtPbgBEAUEAfUdrTGqVLFt+SJfpIOxl9+F7v1SdMe37RKrq9f/l3JWfqjriGEp8L6hC1sECwCTTB7RHtfO6OLvNKiZ3Hd1LIb25ep/CgzFuVkZADRv8bdn43LTNgY6laLYMPmWx9G2i1NzbFhUO8y4Q1+v/6nqaquRo++sgUa13v6BoYtbBAsAEz16Yzwmj2BXQLCbOzWaz/4p0KgQeE9zkOpF5qLnfLI7aUh4BKbfsVDTjfynXv9Oxv//2rTkNbjrtR/mJ4CPy3ev1nzGghWxADCRTQFevr83Lkrlc+FgdeNFXfHELfH+ToPoVxSI1wG4tcZVFOQj30d7krTp1A1T5i2AYnec87WKUDDxhvm6e/1PVZS7Ebs3LdcVK6R43nACFsECwGQOu4Lnf5+A+dfHwWHnX04wsAAAChNJREFUP2+waB1mw9/vScAjN8RBUfjcnwJPUU5GEaDv2fXGxa/iYNl35ib0g5g+SZg6b8FZTw+02R2YeNN89Egabfh69bXHkPHe33TFSmBzUW7GZsNJWATvUD4gBHDTxV2x/IXBGJvcxt/pkAFCANNHd8CqlxK54p8Cnk0qTwHwao3zuBuw4o0/6poyb4q4wSNw2WNvoffwibC3Cv3p63ZHCHqlpOE3j7yBhJRxhq+jej1Y8cYCnKjWN4Mvpfij4SQshDvY+FBC9zC8t6A/snfX4N2lFVi+6QjqGjT/v0l+ENXahhljOuKa6dHoF8+9/skaCnPX7nEmpS8B5GVaY48eKMXXrz+OabcvhGIz/9bQplMMJt3wMLweN2oOHQAkENmxC2xNeDzQVJmLnkPZbh2H/gCAxKay3Ax9zw0sigVAM0jpF4mUfpGob1SRvasWrm9rUbi/DkdrPDhRz6OBA0HrMBvaR9nRs1sYhvaLQHKfCLb4kSVJr/KwsHkvAhB6zhf/Qkn+Vqx++2lMvO5BQ/33Z2OzO9A2Otb0cbOXvodd67/SGy6hKPeZmY8VsABoRqGtFIxOisLoJGPtLUREZ1K6Y813zqS0PwPQNZ397TerYLc7kHb176Eo1jjmeuuXb2PrF//WHS8E/lucszbo9/7/Ja4BICIKMkq1eAbAt3rjd21chq9fewwed4OJWZlPSokNH75s6OYPoNorbS3u0z/AAoCIKOgUFWXUQ+B2ALqP/Ct0bcBnz95z8nl9AGo4UYOvX3sUrtVLDI0jgXvKXGvKTUrLUlgAEBEFoZKczJWQeNbIGBVFu/Dhkzej0BVYs+MVhSfzKshZb3SoL0pdmf8yIycrYgFARBSkOjlqHwaw0cgYDSdqsPzVR7DqzYU4UX3YpMz0cTfUYfMnb+CTv9xleGZCSpR4G+zXmZSaJXERIBFRkMrOznb3TBlzhcdt2waBDnrHkVJi7zcrUZS3EcNmXIOBaTPPurGP2aSU2Ld1NTZ+9A8cP3rQjCEbFRsuL20hW/6eCQsAIqIgVpC9vqT7kHGzFFVdDh2tgadqrDuODYtfwbav/4PkiXMwKO0iOEJ9t0+G192IvVtWwrXmIxwuLzRrWAkpbyrenrXJrAGtigUAEVGQK9u+NjMuKe1KCSwGYLi3r+7YEWz6+HX876t30CN5LPqOmIRu/VOgCONPlaWqorJoN77bvg57Ni7XdZzvOTxRkpul+fjkYMQCgIioBSh2ZX7iTE67DRL/MGtMd0M99m5Zib1bViIkPBIxfZPRve8QdOk1EG2jnXCEnHvCwetx4/D+QhwqL8CBffkoytvoy7UGL5a4Mh/z1eBWwwKAiKiFKMnJfN2ZlBYC4DmYvAi84UQNCrevQ+H2dT99LaJ9Z7Tp0BWOsNZwhIbBERIOd0MdGutq0Vh3HHW11ThWWQ5VbZYt0l8vcWXe3RwXsgoWAERELUiJK/PFuKTUcgnxPgyuCTiX2sOVqD1c6ctLNNULJa7Me2BgX4RgxDZAIqIWptiV9TEEZgKo9XcuPuaVwL0/fPLnwSu/wAKAiKgFKsnJXKmoYhiAPH/n4iM1UspLS12Zf/d3IoHKkgWAFNrPu250c+aHKBA0erR/EBOAxweptHhFeRm7G2TISAgE16p4gWxVyJTS3KzP/Z1KILNkASCk9mmryiONvkiFiDSqOOzWHCOFqPFBKgSgInfF8ZKczGukENcBML3nrpl5AfF0pPvgqLKcLN2HIbUUliwAAKG5R2TLDv7+IAoEW3Yc0x7kVf27B20LUJqT8bbNa+/3w2yAFadMt0uBkSWujD/k5+fzE18TWLIAEFA1V3ZL1lRBWvEtTRRECsrrsW239mLcpip7fZAO/ULhjtUVJTmZ10hVpguBXH/n00SVAuLOknZieGlO5lZ/J2MlliwAVNh2aI3ZvqcWn2eZsoc0EekgJbDgn8Xwal8CcLAoPyMwz6QNUqV5WVnFOZlDBOQsANv8nc9pSRwC8FidR/QqdmW8hIwMrhPRyJIFQL1HbgCg+UHig68UInffcR9kRETn8tf3S7E2+4j2QIEM05OhplCLXVkfl7gyU4SQ0wGsRWA8GtgH4K4GhMSVuDIXVOVnBHsro88IfyeglzMpbQ2AcVrjwkMVPDGvB2aN6wRh2b89kXVU13qw4J/FWLKmSle8gLyh2JX1lslpkQ49hoyPU1X1akBeLYE+zXjpagCfSFX+qzQvax0CoxCxPMveAuOSUq+XEG/qjR/UqzUuHdcJwwZEoksHB0IclpwMIQpIR2u8KKtswNrsI1i8ugpHa3TPztbZ7Y6uBdmrqs3Mj4xzDh6XAsU7ERDjAYwG0NrE4VUAOyVkhhDi80j3wUwu7DOfZQuATgPTI8LsshhAe3/nQkQ+83aJK/M6fydBZzdw4MBWNfZOwyUwSEi1rxCi3w8zBLEAHGcJ9QCoAFAOYA8g84VAnvSqm0ry1ut4XkRaWLYAAABncvrjkJInOxEFJ68X3gHlrvXsALCwgQMHtqpGVISi2Nra7I5Ij1vUCtEoARwpyVt/FJzO9xtLFwB9+46OrAu17wLQzd+5EJG5hMCrxTmZt/k7D6JgZekH33v2bKgB5L3+zoOITFfhdTfO93cSRMHM5u8EjKquKM5vE92jBwSS/Z0LEZlClZCzy/I2aN7vg4iaztIzAD/yOGpuA/CNv/MgIjPIh0pdWSv8nQVRsAuKAmB/dvYJj11MB7DT37kQkX4C+HuJK+tpf+dB1BIERQEAAPuzMw6qnsaxADb6Oxci0kM8XezK5JoeomZi+TUApzpWVVbXLqzHIhmKKADn+zsfImqSGinFtaW5Gc/5OxGilsTSbYBnE5eUeqmEeA4nN6IgokAksRTSe2dJ3voCf6dC1NIEbQEA/LBboE3eKQTukUAnf+dDRCcJyC0QWFCck7XU37kQtVRBXQD8qPvIkWG2OselKsRVQiIdQJi/cyJqgfYLgc8g8G7x9sxN/k6GqKVrEQXAqRISpoY0hB0/H0IMFJB9AKUdhAz3d15EQUfiqBSyQhHYDQXbirdl7fJ3SkREREREREREREREREREREREREREREREREREREREREREREREREREREREREREREREREREREREREREREREREREREREREREREREREREREREREREREREREREREREREREREREREREREREREREREREREREREREREREREREREREREREREREREREREREREREREREREREREREREREREREREREREREREREREREREREREREREREREREREREREREREREREREREREREREREREREREREREREREREREREREREREREREREREREREREREREREREREREREREREREREREREREREREREREREREREREREREREREREREREREREREREREREREREREREREREwez/A5cyZX3RUSW9AAAAAElFTkSuQmCC;" vertex="1" parent="1">
          <mxGeometry x="140.06" y="487" width="80" height="80" as="geometry" />
        </mxCell>
        <mxCell id="9YNmxNu1mqhPtrFuAmMJ-13" value="" style="shape=image;verticalLabelPosition=bottom;labelBackgroundColor=default;verticalAlign=top;aspect=fixed;imageAspect=0;image=data:image/png,iVBORw0KGgoAAAANSUhEUgAAAgAAAAIACAYAAAD0eNT6AAAACXBIWXMAAA7DAAAOwwHHb6hkAAAAGXRFWHRTb2Z0d2FyZQB3d3cuaW5rc2NhcGUub3Jnm+48GgAAIABJREFUeJzt3Xt8XGWBxvHnPZNe0hRUvCCo4AXaKoJgm5mUigaQtpPMpFBovQBVUdD1hqui7IqStnhBdF0RVC6K0CLaIjSZzExbkFYFmkkbl2XFFVhd8YbgiiJt0svMefePVrm1aSaZmXfOvL/vn7SZ83xo0/ll5sw5RgCAupXIpI6Uwg2SXuJ6CxqLcT0AADAyIgDVQAAAQAQQAag0AgAAIoIIQCURAAAQIUQAKoUAAICIIQJQCQQAAEQQEYDxIgAAIKKIAIwHAQAAEUYEYKwIAACIOCIAY0EAAEADIAJQLgIAABoEEYByEAAA0ECIAIwWAQAADYYIwGgQAADQgIgA7A8BAAANigjASAgAAGhgRAD2hQAAgAZHBGBvCAAA8AARgGciAADAE0QAnooAAACPEAH4OwIAADxDBEAiAADAS0QACAAA8BQR4DcCAAA8RgT4iwAAAM8RAX4iAAAARICHCAAAgCQiwDcEAADgH4gAfxAAAICnIQL8QAAAAJ6FCGh8BAAAYK+IgMZGAAAA9okIaFwEAABgRERAYyIAAAD7RQQ0HgIAADAqREBjIQAAAKNGBDQOAgAAUBYioDEQAACAshEB0UcAAADGhAiINgIAADBmREB0EQAAgHEhAqKJAAAAjBsRED2B6wGAj45atWiiLAGOxlFI9z1oA50k2T+43oLRIQCAGmvtnXfU1OZthURf51VEABrJQGfuASnWLun3rrdg/wgAoFasTCLTcb4xsUFJx0r23ERfx1dczwIqqZDue1AKThQRUPf46QOogUQu+VKVzPWSTtrLL19WSOc+UetNQDXFsx3TTKi7JL3A9RbsHa8AAFWWyCTPUMn8p/b+5C9JFyQynV+q5Sag2kyopKSDXO/AvvEKAFAliVzyQBV1mYw5b1RfYOyyQip/cZVnAVWVzCUn/aWkq6zMO1xvwcgIAKAK4pnUbClcYaRXlfWFxn6mkMovr9IsoKpmZtIvaLKlH8joja63YP8IAKCC2je0N23fOuUiK10kKTaWxzDWXNTflf1shacBVZXomX+MgqBX0uGut2B0CACgQtr6Ol9tbbhSMq+vwMP9ayGd+3wFHgeoukRvx+kyul5Si+stGL0x/YQC4CmsTKK18zxZ+wPJVOqnn5Nfdua07b/77oN3VejxgMqzMm2tnZ+U9E1Jk1zPQXl4BQAYh0RP18EmKF5rpVQVHt4aY87vT2W/VoXHBsYlmUtOeqxkrpF0tustGBsCABijeCZ1mlF4tar7OWcr6UOFdO7KKh4DKMvMtfMOadoVWyMp7noLxo4AAMo0M5Oe0qTS5yV9uEaHtMbYD/Sn8t+o0fGAfWrNdhwbC9VjpcNcb8H4EABAGWZnUvFQ4UpJR9b40NZa/dNAV+6qGh8X+IdEJnmGZK6XNMX1FowfAQCMQvuG9qbt21o+Zq1dLmmCoxmhlX3XQDp/g6Pjw1dWpi3b+Qlr7efEFWQbBgEA7Ee8N/0KE5RWyGqO6y2SSjLmnYVUdqXrIfBD+4b2yUNbW641sme63oLKIgCAEcQzySVGwZWSnep6y1OUrLRkIJ37rushaGxzeroOLQXFNVZqdb0FlUcAAHtxQi75wp2huUZWC1xv2YeSjDmrkMp+z/UQNKbZPcnjwsD0SHqZ6y2oDgIAeIZEJjlX0nWSOdT1lv3YZWUXD6Tza1wPQWNp6+1YbI2uEyf7NTQCANhj9qpFzWHzti9I+pCi872x0xizqD+V7XU9BA3gyZP9Pq/ofA9gjPgDBiTFezpmmUArJU13vWUMdlqr0we6cn2uhyC6jlk3t6V5R9MNMlroegtqgwCA37q7g8TMgQ9J+qKkia7njMNOa8zCgVQ263oIomd2JvWS0IZrZDTL9RbUDgEAbx2f7Ti8VNINDXTv8mFrbWqgK3+H6yGIjkRvsk3G3Crpxa63oLa4oAO8FO/rXFQKdU8DPflLUrMxJpPo6zzR9RBEQ6Kv860y5g7x5O8lXgGAV4699dTnTm7aeaWV3u56SxUNGQWd/em+ja6HoE5Zmba+jout9BnxPOAt/uDhjba+zjdba78j6SWut9TAtjBQx+bO3I9dD0F9aV/VPnW4ecoKSae63gK3CAA0vPYN7ZOHnmjuNsZcIL/e9vqbCTS3vzNXcD0E9SGRS75UJfVI5vWut8A9AgANrbV33lGBid0o6XWutzjyeGjDUzZ3rd3segjcimdSs43CWyUd7HoL6oNPPw3BJ1Ymkek435jYoPx98pek5wQmWB/v6eDjXR6L93a8zSi8Qzz54yl4BQANp3XN3JcFsabrJXE2/JP+ahQ7uT+d+anrIaihJ0/2u9j1FNQfAgANJd7XuchY+01JB7neUm+s9KfQmJO2pLI/c70F1de+qn3q8JQpK+v4hlZwjABAQ0jkkgeqZK6QdLbrLXXu0dCWTtrcte4+10NQPfHe9CsCU+q10mtdb0H9IgAQebP7Oo8PrV0h6ZWut0TEoyrZEwun5n/ueggqr60nOccG5hZJL3K9BfWNAEBkzdwyc8KEhw/+lJUukhRzvSdiHgkUa9+UzvzC9RBUTry3893G2K8r2ve1QI0QAIiktr7OV4fW3mik41xvibDfxWK2/e6O/C9dD8H4LFq1KPbQ5K2fNcZ80vUWRAcBgGixMols57my9iuSprie0wB+GxrTvjmV/ZXrIRibOT1dB+wKijcaKe16C6KFAEBkJHq6DlZQ/JakTtdbGomRfqNi+Kb+09b+2vUWlOf4XPJVpdD0yuo1rrcgeggAREJbX+dCa8OrJfN811sa1EOxQG+6uzP3kOshGJ1EZv4brIJbjPRC11sQTQQA6tqcnq4DimbXl2TMea63eODBprCp/a4FvX9wPQQja8skz7UyV0qa4HoLoosAQN1qy3YkbGhWSvYI11s88kBxQql9cP66h10PwbNxsh8qiQBA3Wnf0N60feuUi/h4nzP3h4HaN3fm/uh6CJ40p6frgFJQ/K6VUq63oDEQAKgrrX2drzTWrjDS8a63eO4XCpvaCwt6H3E9BNLsnnlHhEGsV9KrXW9B4+BugKgb8UxySWD1nzz514UZCorr47ecxkmXjsX7Ok8oBbG7xZM/KoxXAODc8bfMfVFpQuwayXS53oJnuSeYUDp50/x1j7ke4qNEX+d5svYKcbIfqoAAgFPxvs55xtrrJB3iegv2zkr/EZtQejMRUDvtG9qbhrdO+bKkD7vegsZFAMCJ2asWNYfN274g6UPi72EE2J9OMMGb70xl/+J6SaObvXbeQXZX0yore7LrLWhs/MOLmmvtnd8amGClpGmut6AcdlNTOGHeXQt6n3C9pFElMqkjpbBX0gzXW9D4CADUzKJVi2K/nTL0cWvtMnG3smgyuqt5aGj+xsUbt7qe0mgSmeRcyXxf0nNdb4EfCADURNut819um4IbJJ3gegvGy9zZPLwtSQRUDif7wQUCAFUXzySXGJkrJB3gegsq5vZguKVr0+LVw66HRNnui161fMXKftD1FviHAEDVHHvrqc+dNGHn12X1NtdbUAVGtzW3DHVtPHHjdtdTomj22nkHhbtiqyWd5HoL/EQAoCoSPR2nKNB1kl7ieguqya5rnjp8KhFQnni2Y5oJ1Stpuust8BcBgIpq39A+eeiJ5m5jzAXiSpNesFZrn99kT8135He43hIFe6598T1xsh8cIwBQMbP6Ol8bs/ZGSce43oKaW1M85JHFg7MGd7keUs/2nOx3paQm11sAAgDjZ2USfR0flvRF8fE+f1nd0nzA0Fs2nrix6HpKvTlq1aKJU5uHviHZc1xvAf6OAMC4HJ/tOLxU0g0yeqPrLagH9nuHDU89a/Xi1SXXS+rFCbnkC3eWzA/ER2AbwXZJk12PqBTeo8WYxfs6F5VC/QdP/niSeetDU7Z9t31DOy9xa/fbYjtLpiCe/KPOGmmpDfQ6Sb93PaZSeAUAZZt525uf0zQ88QoZneV6C+qTkb2+fzBxjrq7Q9dbXGnrTSatMTdJeo7rLRgPs9UqPHsgnV8j/eNyzRvUAJ9wIgBQlnhv8iRjzHckvcz1FtS96wqD8ff4GAGJTMf5kv5NvMoadb8zii3oT2d++tT/2CgRQABgVGZumTlhwsMHf8pKnxb/qGHUzLcLg63n+hIByVxy0mOh+aas3ul6C8bHSnebsGlhYUHvI3v79UaIAAIA+5VYk3yNjZmVRjrO9RZEj5WuHUjlzpORdb2lmmZm0i+IqXSzkd7kegvGyeim5pahc/Z3gauoRwABgH2zMols57my9iuSprieg0i7vJDOne96RLXMznYcHVr1yurlrrdgXKyRlvWnc92j/YIoRwABgL1qzXa8OAjNtyTb4XoLGoS1/17oyv+z6xmVlsjM75CCmyQd6HoLxsNslbVnFbpyPeV+ZVQjgPdy8SyJ3o7Tg9D+jCd/VJQxH4lnOr7sekYl7T7ZL8iIJ/+o+1Voi21jefKXpEK670EpOFER+4ggrwDgHxK55IEq6jIZc57rLWhgxn6pkMpf4HrGeCRzyUmPlczVkpa43oJxMrortrO48O6F6x8d70NF7ZUAAgCSpERvsk0mWCHZI1xvQeMz0tJy3metJzMz6Rc0qXSLuLhP5Fnp2m3DLR+4b/HqnZV6zChFAAHgufYN7U3bt065yEoXSYq53gOPGPuZQiq/3PWMciR65h+jIOiVdLjrLRiXkjHmU/2p7KXVePCoRAAB4LHZmfSMUKWVkma63gI/WWM/NZDKf871jtFI9HacLqPrJbW43oJxecLIntmfzmeqeZAoRAAnAfrIyiT6Os8LVdoinvzhkLHms4lMx4Wud4zIyrT1dX5SRqvEk3+kWemXKtm2aj/5S9E4MZBXADxz/C1zX1Sc0HStkdKutwB/Z2U/OZDOf9H1jmdq39A+efiJKddw34tGYO6cGAsX/qQj/6daHrWeXwkgADwyO9sxPwx1naQXu94CPIO1sh8eSOevcD3k7+b0dB1aDIq3Soq73oLxMtcUD/njBwZnDe5ycfR6jQACwAOzVy1qDpu3fUHSh11vAUZgZc0HC13Zr7se0prtODYWqsdKh7negnGp6sl+5ajHCCAAGtzsTCoeKlwhaZrrLcAoWCu9fyCd+6arAfG+zkXG2u+Iy19H3d+sMW8fSGWzrof8Xb1FAAHQoNo3tDdt39byMWvtckkTXO8BymBlzPsKqezVtT5qW7bzE9baz4kTpCPO/I8x6upPZf/b9ZJnqqcIIAAaULw3/Qpjwhsk+wbXW4AxCmX1zkJXbkUtDta+oX3y0NaWa43smbU4Hqrq9gnGLL4zlf2L6yH7Ui8RQAA0mHgmucQouFKyU11vAcapZGTf0Z/O31jNg8zp6Tq0FBTXWKm1msdBDVh7dfHQRz/o6mS/ctRDBBAADeKEXPKFO3dfm/xU11uACipZq7MHunI3VePBZ/ckjwsD0yPpZdV4fNRM0Ugf60/nLnc9pByuI4AAaACJTHKupOskc6jrLUAVlPZcue37lXzQtt6OxdboOnGyX9Q9FipcvDm99oeuh4yFywggACLsKR/v+5D4s0Rj2yWrRWO9XevTWJm2vo6LrfQZ8X0TdQ8GinVtSmd+4XrIeLiKAP7yR9TsbMfRYagbJR3tegtQIzuN7BnjuYzrMevmtjTvaLpBRgsrOQxOrN9RnPiWe05b81fXQyrBRQQQAFHT3R0kZg58SNIXJU10PQeosZ3WmIVj+Wz37EzqJaHCHnH/i+iz9urmA4Y/sPHEjUXXUyqp1hFAAETI8dmOw4uhrjfSm1xvAVyx0g6jcGEhvTY32q9J9CbbZMyt4jLYUVeU9JFCOnel6yHVUssIIAAiYs/Vya6S9DzXW4A6MGytTQ105e/Y329M9HW+VdZ+W1JzDXaheh6TMWcUUtkNrodUW60igACoczNve/NzYtsnXckFSoBnGZIxqX0+ITx5st/FNd6FynugFIZdWxasvd/1kFqpRQQQAHWsNTP/5EDBdyS91PUWoE4NBdZ2bOrK/+ip/7F9VfvU4eYpK8R1MRqAXVecvOstg6fc/rjrJbVW7QggAOpQ+4b2yUNPNHcbYy4Q1yQH9mebNSY5kMr+RJISueRLVVKPZF7vehjGqUFP9itHNSOAAKgzrb3zjgpMbKWkY11vASLk8UDBXBnbFFp7i6SDXQ/CuOyUsf9USOW/7XpIPahWBBAA9aK7O0i8fvNHrbGXGGmS6zlABD1upcl8/0Sblf6051Med7reUk9m9cyfHgvMHZW84isBUAdasx0vDkJ9W1LS9RYAcOi/rI0tGOjK/K/rIfWo0q8EEACOJTLJMyRzlaSDXG8BAIfyxck73+bjyX7lqGQEEACOJHLJA1XUZTLmPNdbAMCxywuD8X9Wd3foekgUVCoCCAAH4pnUbClcYaRXud4CAK5YaUdg9b7+rtx3XG+JmkpEAAFQQzO3zJww4eGDP2WliyTFXO8BAIf+Lwx0+ubO3I9dD4mq8UYAAVAjbX2dr7Y2XMlnkwFA95piuKD/tLW/dj0k6sYTAVxkptqsTKKv8zxr7Wae/AHA5BSzJ/DkXxmFdN+DUnCipN+X+7W8AlBFiZ6ugxUUvyWp0/UWAKgDnOxXJWN5JYAAqJK2vs6F1oZXS+b5rreg5n4hq5/LaKHrIUCd2G6ldw+kc991PaRc7avapw5NaTl9IJW93vWW/Sn3YkG8BVBhc3q6Dkj0Jq+y1v6AJ38vrRieWJx12PaWxbJa6XoMUAceNoHao/jkn8glXzrcPGWjsfY7ib7kZa737M/uuyXG2jXKtwN4BaCC2rIdCRtqhaQjXW9BzT1qZN/Tn85n/v4fFq1aFPtt87YbrPR2l8MAh/4zFmjB3Z25h1wPKVc8k5ptFN6qp95XwtgvFVL5C9ytGp3Rvh1AAFRA+4b2pu3bWj5mrV0uaYLrPagta7W2NLF0zuD8dQ8/89cWrVoU+03z1pWSeauLbYA75ubhibveee+89dtcLylXvLfjbcboW5Kan/WLDRQBBMA4xXvTrzBBaYWs5rjegpoblvQvhVTuchnZff2mmVtmTmh6+OBV4t708IO11n5x4KeJf43cyX5Wpq2v42IrXTzi72uQCCAAxiGeSS4xCq6U7FTXW1BbRtocBjproDP3wGh+/1GrFk2c2rx1tWS6qr0NcGi7jDm3kMpG7vyX9lXtU4enTFkpqwWj+oIGiAACYAxOyCVfuLOka/nH3EtFa+2XS4c++unBWYO7yvnCo1YtmnhA87YfWClVrXGAO/YPobWnbu5au9n1knIlcsmX2pLpNdJxZX1hxCOAAChTvK9znrH2OkmHuN6CGjP6tZVZMpDK/mSsD7H7lYBtt4hrQ6Cx3FNUbMFgOvMb10PKNbuv8/jQ2lv01JP9yhHhCCAARmn2qkXNYfO2L0j6kPj/5qMVzcND79+4eOPW8T7Q7FWLmm3zUMbKnlyJYYBLRlq9S7F3DqYzQ663lCvRlzxH1nxD0sRxPVBEI4AnslGI93TMMoFWSpruegtq7v+s7LkD6fyaSj7ozEx6SpNKfZJOrOTjAjUU2ZP9Fq1aFHto8tbPGmM+WbEHjWAEEAAjWLRqUey3U4Y+bq1dpvEWIqLH6LbABu/alO4r+xrbo7E7AopZybRX4/GBKorslf3m9HQdsCso3mikdMUfPGIRQADsQ2tf5yuNtSuMdLzrLai5YUkXFFK5r4/08b5K2POP0Vr+niFCfmcUW9CfzvzU9ZBytfZ1vjKQzcjqNVU7SEQiYFbP/OkEwF7E+zoXGWuvlvRc11tQc/+lMDyrsGDtvbU6YCKXPFAls15SolbHBMaoUJxQOm1vF72qd4nM/DdIwQ8kvajqB4tIBBAAT3Hsrac+d9KEnV+X1dtcb0HNWUlf2zrccsF9i1fvrPXBZ9725uc0bZ+4XlK81scGRun7wXDLuzYtXj3seki52jId77HSlarlW7kRiAACYI+2vs43W2u/ozJupYjGYKTfGGuXbOrK/8jljmNvPfW5k2I7b5PRLJc7gGewRlrWn8otrfZbYpVWlZP9ylHnEeB9ALRvaJ889ERztzHmAnF3RO8YaXWTMe+9M5X9i+st0p4IaNp5u6SZrrcAkrZZBWcPpPtudT2kXHN6ug4oBcXvOr/wVh1HgNcBMKuv87Uxa1dKep3rLai5x2XMB+vxkqW7rzRpfijpaNdb4LXfy5gFhVR20PWQch2fS76qVDIZSa92vUVS3UaAnz/xWplEpuP8wNot4snfR3coZl9bj0/+kvSTjvyfJsbsyZK5z/UW+MpuCgPNiuKTf7yv84RiyWxSvTz5S5I1H0/0JS9zPeOZvHsFYGYmfViTitfz2Wv/WGlHYMzF/VtaL4vChUuOv2Xui0oTmzZU9SNLwLPY7wXDU8+J4sl+ib7O82TtFarX27LX2SsBXgXAno/3fVPSQa63oMaMfh4anbm5M3eP6ynlSPR0HayguEH19NMMGtXuk/3SuW7XQ8rVvqG9aeiJ5kucnexXjjqKAC8CYM9HrL4m6WzXW1BzVtZeUzRN/xzFa5VL/7hT2UYjvcr1FjQqs9UqPLvSl7yuhTf0dT6vaLU6UvfWqJMIaPgA2HOnpxWSXul6C2ruj8bac/q78nnXQ8ardc3clwWxpo3i7zEqL7JX9pvdM++IMIhlJM1wvaVsdRABDRsAM7fMnDDh4YM/ZaVPy9eTHb1mbra7Jr5vYOGtf3a9pFJ2n79S2ijpFa63oDFY6W4TNi0sLOh9xPWWciV6Ok5RoFWK8hVbHUdAQwZAYk3yNTZmVhrpONdbUHN/kzEXFFLZq10PqYbjsx2Hl6w2yurlrrcg2oz03clTh9698cSN211vKVfdn+xXDocR0FgBYGUS2c5zZe1XJE1xPQc11x+L2bPu7sj/0vWQatrzsudGcdVKjE3JGPOp/lT2UtdDytW+ob1p+9aWr1jZD7reUlGOIqBhAmD32dKlb0u2w/UW1FzRSJ992XDL8tWLV5dcj6mF3bfzLG2UzKGutyBSnjDGnNWfyva6HlKu2WvnHRTuiq2WdJLrLVXhIAIaIgASvR2ny9irJPN811tQc7+QMWdF8YIl4zWrZ/70WBBskHSI6y2IhF+FttS1uWtd5C4wtef+9RlJ011vqaoaR0CkA2BOT9cBRbPrSzLmPNdbUHNW1l4zPKn00Xvnrd/meowrszPpGaFKGyS92PUW1DGju2I7iwvvXrj+UddTyhXv65xnrP2eonyyXzlqGAGRDYBEb7JNJlgh2SNcb0HNPWqt3j3QletzPaQeJHrmH6Mg+KGkF7jegvpjpWu3Dbd8wMVtrsdrz8l+V0pqcr2lpmoUAZELgN0ngUy5yEoXSYq53oOay4eBztncmfuj6yH1JJ5Jvc6o9EPeBsNTRPpkv+GtU/5d0gdcb3GmBhEQqQBo7et8pbF2hZGOd70FNTcs6V8K6dxXXQ+pV63ZjmODUD8Ul7qG9IS1ensUXyWL33La882E7TdzvxZVPQIiEwDxTHKJkfm6pBbXW1BzA1JwViHd96DrIfWuLZN+vVXpdknPc70Fbljpl6Zkuwqn5n/ueku59tyivVdc7OpJVYyAug+A42+Z+6LihKZrjZR2vQU1V7TWfrl06KOfHpw1uMv1mKjYfX6MWSfpQNdbUHM/mRizp/+kI/8n10PKNTvbMT8M9T1Jz3G9pe5UKQLqOgD2/IX4tviYk4/+VwqXFNJr73Q9JIr23ANjraQDXG9BjVh7dfHQRz8YxVhOZDrOl/RlcV7XvlUhAuoyAGavWtQcNm/7gqQPqU43oqpWNA8PvX/j4o1bXQ+Jsrae5BwbBGslO9X1FlRVZE/2S+aSkx4LzTdl9U7XWyKhwhFQd0+urb3zWwMTrJQ0zfUW1JaV/mSszi105Xpcb2kU8b7OE4y1eXHuTKP6izFmcX8qe7vrIeWamUm/IKbSzUZ6k+stkVLBCKibAGjf0N60fVvLx6y1y9UIN3hAudY3hU3vumtB7x9cD2k0bX2db7a7T6xqdr0FlWT+xxh19aey/+16SblmZzuODq16uanVGFUoAuoiANpunf9y2xTcIOkE11tQc7s/3pfKXS4j63pMo0pkknMl0yNpsustqACj2ybIvOXOVPYvrqeUK5GZ3yEFN4mTVMenAhHgPAB2f7wvuJL3Kb30X0GgMzd15v7L9RAfxPs658naHiNNcr0F4xD9k/3+TVLgektDGGcEOAuAmZn0C5pUukbSqa42wJlQ0hVbh1suiOLlSaOsrTeZDI25lQiIpKIx5qP9qezXXA8pVzKXnPSXkq6yMu9wvaXhjCMCnARAoqfjFAW6TtzP3EcPhYGWbO7M/dj1EF/FM6nTjMLvi3NtouQxa+2iga78Ha6HlGvPD3u3iLd4q2eMEVDTAGjf0D556InmbmPMBeIlIO8YaXWTMe+N4vuWjWb3LbT1Pfl2k5VoerAUhuktC9be73pIufbcqKpX0uGutzS8MURAzQJgdrbj6DDUSknH1OqYqBuPG9kP9KfzN7oegiclMskzJHOTiIB6tn5HceJb7jltzV9dDynXnsi8XnwEtXbKjIDq/xRuZRKZjvPDUFvEk793jMwPFbOv5cm//hTS+ZuN1ZmSSq63YC+svbp56lBn5J78rUxbX+cnZbRKPPnXljUfT/QlLxvtb6/qKwAzM+nDYirdwIUevLTdGNPdv6X1MnV3h67HYN/ifZ3vMNZ+W7wtVy+Kkj5SSOeudD2kXMlcctJjJXONpLNdb/HaKF8JqFoAxPs6FxlrrxJ3JfOQuS8M7FmbO3P3uF6C0UlkOt4l6VoRAY7ZP8sEiwqp7AbXS8o1c+28Q5p2xdZIirveAo0qAioeADNve/NzmoYnXiGjsyr92Kh7VtLXDorZT+Q78jtcj0F54r2d7zbGXi0iwJUHbKD0QGfuAddDytWa7Tg2FqrHSoe53oKn2E8EVDQA4r3Jk4wx10ukhNt/AAAYUElEQVR6aSUfF5HwR2PtOf1d+bzrIeU6ojtxYCxm/6mqBwnt7+6/eHPdnwfRlkmea2WuUh1cJMwn1mptqXnnWwdPuf1x11vKtedk0uslTXG9BXsxQgRU5Js8mUtO+nNRS/l4n6/MzcGE4ns3zV/3mOslY/HqS44/PAyLv676gYz9zP2f3ry86scZpz1Xa/t31zs8cvlhwy0fXb14dbROxrQybdnOT1hrPyf+3a9v+4iAcQdAa++8owITWynp2PE+FiLnbzLmgkIqe7XrIeNRswCQJKOL7v/0wGdrcqxxSPQlPyJrvuJ6R4PbKel9hXTuOtdDytW+oX3y0NaWa43sma63YJT2EgFjrzYrk+jrPC8wsQHx5O8huykWs6+P+pN/zVldMmN54l9cz9ifQir/70b6mOsdjcv+ObB2bhSf/Of0dB26feuUH/PkHzF7+YjgmAKgNdvx4kRfR1a7z/LnfR+/7DLS0sOGp55wd0f+l67HRJG19nPTl8c/6XrH/vSnc/8maypy33E8zX+Zop21qSv/I9dDyjW7J3lcMSj2W6nV9RaMwTMioOwASGSSZwSh/ZmkZEWHIQr+2yjW1p/OdUfu/cp6Y/X5GcviH3Q9Y38KXdkvGWmp6x0NJK+YfUP/aWt/7XpIudp6OxaHgblT0stcb8E4PCUCRn0OQCKXPFBFXSZjzqveMtQpK2uvGZ5U+ui989Zvcz2m0mp6DsDTWSv7wQc+s/nrDo5dlkSmY7mki1zviLjLC4Pxf47chbGePNnv8+LTIY3D2C+N6g8znknNlsIVRnpVtTeh7jxird4z0JXrcz2kWhwGgCRZGfuB+z+9+RuOjj9qbb2dn7XG/qvrHVFjpR0y5r0Dqez1rreU65h1c1uadzTdIKOFrreg8kZ8C6B9Q3tTW6aj2yj8CU/+/jGytxYVe20jP/nXASNrrpyxPP5e10P2p78r+ylJX3C9I2L+zwaaG8Un/9mZ1Euadzb9iCf/xrXPAJidSc8Y3jql30oXS4rVcBPcG5L0kf50fuFgOvN/rsd4wFirr09bFl/iesj+FNK5fzHSF13viIh7Y4Fmbe7M/dj1kHIlepNtocItkma63oLqeXYA7Pl4X6gSf/h+KkjBsYV07quuh3gmMNK3py9rrftLaPenchcamStc76hzWcXsCXd35h5yPaRcib7Ot8qYOyS92PUWVNfTAuD4W+a+qK2vo3fPx/u4jaNfitbaS4uHPHJCId33oOsxnopJ5jszlsXf7nrIiIxsfyr7YRnV/cmLDlhr7aWFwXhXoSP/N9djymJl2jId3bL2u5KaXc9B9f3jJMC23mTSGvNtUX0++l8T2rP7F+Tvcj3EBccnAe5Nycqc9cBnCt9zPWREVqatr+PrVnqf6yn1wEo7JHveQDp/g+stY9HaO781MMGA6x2onWBmJj0lken4qjUmJ578fbSieXjoGF+f/OtUzMjeMG15/FTXQ0ZkZPtTuffLWq4GKT0cU/DGqD75S1KTaeIjfp4JYirlJH3Y9RDU3KNGtquQzi3ZuHjjVtdj8CwTjNX3py9v63I9ZERG9rDtU98vq5Wupzg0qJiNb0r38dMzIiWwgT4jKVoXpsA42XVNYdNx/el8xvUSjGiibLh6xvJ4yvWQkaxevLp02PaWd1qZur/dceWZm4uKvbHQkf+d6yVAuYLNnbkfW2796YthSR8ppPLJuxb0/sH1GIzKRGv1gyOXxjtdDxnJ6sWrS4cPT3mHjG5yvaVG9pzs1/qWwXRmyPUYYCwCSXp+zP6rpP90vAXVZLWlFIbHFdK5r8rIup6DskwMjFZPW9p6sushI1m9eHXpsKGWsyV93/WWKtsuY5YMdOUvjNxlfYGnCCQp35HfEdrSmdr9EyIaS8lae+nW7S1ztixYe7/rMRizZmNM7/SliRNdDxnJ6sWrS8VDHjlbRj2ut1SH/UNowzcWUlmfz3lAg/jHdQA2d627z3Czj0bzUBjopIGu/IX3LV690/UYjNsUGds3Y3lbu+shIxmcNbhr61DLYis12jkm94SlUtvmrrWbXQ8BKuFpFwLqT+W+Yq3WuhqDyjHS6h3FicdG8TKkGNEUa8O+Iy9pfaPrISO5b/HqnduGW84wUkPcR8JIq4uKzdl86vrfut4CVMrTLwVsZGMmeI+kx9zMQQX81Upn9qdzi+85bc1fXY9BVbQEockcuawt4XrISO5bvHrn82L2DMnkXG8ZB2utvbQ/leNkPzScZ90LYFO67/fGmHNdjMG43R4oeO1AOvdd10NQdQcGCtdNu2RW3PWQkeQ78juC4SlnSLrD9ZYx2G6lswa68hdy4iwa0V7vBtifyt4iaUWNt2DsthtjLiwMxudtSvf93vUY1MxzTBism35JfJbrISPZtHj1cFGxtKQNrreU4fc21AnENBrZPm8HXJy880My+nUNt2AMjPQzq6CtP5W9lI8keem5CnXbjGWJur5z52A6M1RULGWlH7neMgr9YaBZAwtyW1wPAappnwEweMrtj5uSPUtSqYZ7MHpW0uXPi9lZA+k+ruHgt+da2fyMZbOPdj1kJIPpzND2icVOWdXzianfD4ZbTtrcmfuj6yFAte0zACRpzw1iLqvRFoySkX4jY04upHPn5zvyO1zvQV14oVXph69Z1nqU6yEjuXfe+m1qsmlJ9XbdfGukpYVU7m2bFq/meijwwogBIEnFQx75jJH43GudMNJqM6F0XCGVjdL7qaiNF5Zk7jiiO/Ea10NGUujI/604eefc+vl3xWy1Ck7vT+e6OdkPPtlvAAzOGtwlY94hiY/AuPU3WS3pT+cWb5q/jo9pYl9eFAT2jiOXt73a9ZCRDJ5y++PbixPnysr1++y/k1H7QLrvVsc7gJrbbwBIUn8q+99W9pPVHoO9s9LdoTHHFbpyfDID+2WkgwMbrj9i+cxXud4ykntOW/PXCYGZK9mfullgNylsmlVIZQfdHB9wa1QBIEkDqfyVkrJV3IJn22WkpYcPt7xxcyr7K9djECkvjdnYhmndra90PWQkd6ayf5kY03wj/aymBza6KRieenJhQe8jNT0uUEdGHQAysrFdxXMk8Q1TC0Y/D0Kb6E/nulcvXs0nMTAWLzOB2TB9efwVroeM5Ccd+T8Fu4onS+a+Ghzu7yf7vZ2T/eC70QeApLsXrn9UVu+t1hhIkqysvbpoY62bFuT/w/UYRN5hstowo7vt5a6HjOTuhesfVRg7WUY/r95RzFZZndafznVX7xhAdJQVAJJU6Mr1GKNvVWMM9Ig1Jl3oyr+X646jgg4Pg/C2aZfMfonrISMpLOh9RKWmkyT9ogoP/7sgDN9Y6Mo16G2KgfKVHQCSNDSheL6kByq8xW9Wt9hdk44aSGU5zwIVZ6QjTFjaML17zqGut4yksKD3EcXsKVb6ZaUe00p3K2yaxStqwNONKQDunbd+mw11pqRdFd7joydkzHsLXbnTBxbe+mfXY9DQjlSw645Xf3bmIa6HjKTQkf+dLRVPlPS/430sY/StbcMtJ3KyH/BsYwoASRpYkNtipM9VcoyH+oOw9PpCKnu16yHwxvSw1HTHUd2tL3Y9ZCSbT13/26Ji7eO4H0nJGHNhfyr3nvsWr95ZyW1AoxhzAEjS5KlDl0jqr9AWnxSNtPSw4ZY3bFqw7n9cj4Fv7IxizKyb1j3zBa6XjGQwnflNzKhd0kNlfukTRva0/lT20irMAhrGuAJg44kbi6ExZ0p6okJ7fPCrwJg38fE+OGV1jAlit8/4XPz5rqeM5O7O3ENScIpk/zDKL/lVaEuz+9P5TFWHAQ1gXAEgSZtT2V/JmI9XYowHVjQPD71uUyp7t+shgKTX2ZJuP6p79kGuh4ykkO570AbmxP1HgLkztqs4e3PXulpcTwCIvHEHgCTtfg/b3FyJx2pQjxpjFhTSuSUbF2/c6noM8A9WxxZjxduO/vwbnud6ykgGOnMPlEJ7kqS93qbXStduHZ5y8t0L1z9a42lAZFUkACSpqOCftI9vTr/ZdcUJpWP7U9le10uAvbLm9Tt27swd0Z040PWUkWxZsPb+QLET9fSrkZaMMRcOpHPncrIfUJ6KBcBgOvN/1ph3StxOc49hSR8ppPLJwfnrHnY9BhiJMWqLGZuffumcA1xvGcmmdOYXCsO5kv2zpCes1amc7AeMTcUCQJIGUtl1MvpGJR8zogak4HWFdO6r3F8ckWF0vHYU80d1t091PWUkhQVr7w1CnVIKw9aBrlyf6z1AVFU0ACSpaGMXqDqX8oyCkrX20q3DLScU0n0Puh4DlM/OKQZDuWMuO6bF9ZKRbFqQ/48tC9be73oHEGUVD4DBdGbIKHamJL/ejzP6tTXmxIGu/IW8F4mIO2HncPOal/7b7GbXQwBUT8UDQJL605mfGmuWVeOx69SKplLTMQOp7E9cDwEqwcq+uWVrac3Lu9snu94CoDqqEgCS1P/T1s9b6UfVevw68Vdr9fZCOrfkrgW9XAwJjWbupGBozRGXHzHJ9RAAlVe1AFB3dygbe5ekv1XtGC4Z3RYoeO1AV+4m11OAKpoX++vzbyUCgMZTvQCQNNCV+V9rzIereQwHthtjLixsic/flO77vesxQPXZZNNfD7pp5lUzJ7heAqByqhoAkjSQyl4v6fvVPk4tGOlnCsNEfyp7qbq7Q9d7gFqx0mlbHwluau9ub3K9BUBlVD0AJGlHceL7JP22FseqEivp8ufF7KzCgrX3uh4DuGFOfzgYIgKABlGTALjntDV/NcacowheJdBIvzEKTiqkc+fnO/I7XO8BHDvj4WDoRq1aFHM9BMD41CQAJKk/lb1d1n61VserBCOtbjLm2P5030bXW4A6snja/Q99S921+/cDQOXV9Bv4oCZdKCkKL6E/LmPO7k/nFt+Zyv7F9Rig3hird0yPtV5LBADRVdNv3nxHfkdoS2+XtL2Wxy3THWGpeHQhlV3peghQ16x51/RY/GoiAIimmn/jbu5ad5+VPlPr447CLiMtLQzGT9l86voon7AI1I7Vu2fEEt+UlXE9BUB5nJT7wGD8y5LucHHsvTL6eRDaRH86183H+4DyWGvPnb6s9SuudwAoj5uX7rq7w0DBEkmPOTn+k6ysvbpoY62bFuT/w/EWILqMOZ8IAKLF2Xt3m9J9v5fVea6OL+mPUpgqdOXfO5jODDncATQI85EZy+Jfdr0CwOg4PXmn0JX7gZW50cGhf2B3TXptIb025+DYQMOy0kenL2u9zPUOAPvn/Ozd0uQdH5D0UI0O9zcZ895COnfGwMJb/1yjYwKeMR+ftjx+sesVAEbmPAAGT7n9cWvM2ZJKVT5UfxCWZhZS2aurfBzAe8aqe/qy1otc7wCwb84DQJIGUtmfGKla7x0WjbT0sOGWN2xasO5/qnQMAM9ils9YFv9X1ysA7F1dBIAk7TrkkYuMtLnCD/sLGdPWn851r168utqvMAB4Bit9dtqy1gtd7wDwbHUTAIOzBnfJmHdIGq7QQ64YnlicVUhlByv0eADGwMh8fvqy+Cdc7wDwdHUTAJLUn8r+t5HG+9PCo0a2q5DOLbl33vptFRkGYLy+MGNZ/IOuRwB4Ul0FgCT1p3Jfk8yYPp5nrdYWJ5SO7U/nM5XeBWBcjJUun7as9f2uhwDYre4CQEa2KYydK9lyPqY3LOkjA1255OD8dQ9XaxqAcTFG5orpy+Lvcz0EQD0GgKS7FvT+wUrvGeVvH7CBji2kc1+t6igAlWAkfX3GsoTLq4ACUJ0GgCQNpPNrJF03wm8pWmsvLR7yyBsGOnMP1GoXgHEzVvYb05Ymzq75ka3MjKXx7ld1H/+imh8bqDN1GwCSNDyx+CFJDz7rF4x+LYUnDnTlLxycNbir5sMAjFdgjL1u+tLWM2t1wKO626dOXx6/xRpd3DyhxO2L4b26DoB7563fFhjzTj39KoErmoeGji6k197paBaAyojJmOtnLI2/rdoHOqI78dJibNuPJJ1a7WMBUVHXASBJm1LZuyV93kp/srKnFdK5JRsXb9zqeheAiohZoxXTliXeWq0DzLik9fggsFtkzeurdQwgiuo+ACSpeMgjy0zYdPSe8wIANJaYkb1h+tLEgko/8Ixl8bfb0PzQSAdX+rGBqItEAAzOGtxVWND7iOsdAKpmgoxdNWNpa7oij7ZqUWz60vgXrHSjpMkVeUygwUQiAAB4YaI15uYZy+Op8TzIUd3tU6f/4te3yOiTlRoGNCICAEA9mWitbp62PNExli+e1t36yl3BUL9kuio9DGg0BACAejPJWHvz9OXxk8r5ounLZs0xgdlkpKOqNQxoJAQAgHrULKvM9KWJE0fzm6cti79HCu6QxAV+gFEiAADUqykytm/GstY37fN37DnZz0jXSJpYu2lA9BEAAOrZFCuTPfKS1jc+8xemXzrngGm/eGgNJ/sBY0MAAKh3LUFoMkcua0v8/T8csXzmq8yOXf1GGtcnBgCfNbkeAACjcGCgcN20Za2nSGaysfqBlV7oehQQZQQAgKh4jpG5TdIUSRNcjwGijgAAECXPcT0AaBScAwAAgIcIAAAAPEQAAADgIQIAAAAPEQAAAHiIAAAAwEMEAAAAHiIAAADwEAEAAICHCAAAADxEAAAA4CECAAAADxEAAAB4iAAAAMBDBAAAAB4iAAAA8BABAACAhwgAAAA8RAAAAOChpqDrxCtcj0DthEVzmXJ3POR6BwDArSZZfcD1CNRQoBskEQAA4DneAgAAwEMEAAAAHiIAAADwEAEAAICHCAAAADxEAAAA4CECAAAADxEAAAB4iAAAAMBDBAAAAB4iAAAA8BABAACAhwgAAAA8RAAAAOAhAgAAAA8RAAAAeIgAAADAQwQAAAAeIgAAAPAQAQAAgIcIAAAAPEQAAADgIQIAAAAPEQAAAHiIAAAAwEMEAAAAHiIAAADwEAEAAICHCAAAADxEAAAA4CECAAAADxEAAAB4iAAAAMBDBAAAAB4iAAAA8BABAACAhwgAAAA8RAAAAOAhAgAAAA8RAAAAeIgAAADAQwQAAAAeIgAAAPAQAQAAgIcIAAAAPEQAAADgIQIAAAAPEQAAAHiIAAAAwEMEAAAAHiIAAADwEAEAAICHCAAAADxEAAAA4CECAAAADxEAAAB4iAAAAMBDBAAAAB4iAAAA8BABAACAhwgAAAA8RAAAAOAhAgAAAA8RAAAAeIgAAADAQwQAAAAeIgAAAPAQAQAAgIcIAAAAPEQAAADgIQIAAAAPEQAAAHiIAAAAwEMEAAAAHiIAAADwEAEAAICHCAAAADxEAAAA4CECAAAADxEAAAB4iAAAAMBDBAAAAB4iAAAA8BABAACAhwgAAAA8RAAAAOAhAgAAAA8RAAAAeIgAAADAQwQAAAAeIgAAAPAQAQAAgIcIAAAAPEQAAADgIQIAAAAPEQAAAHiIAAAAwEMEAAAAHiIAAADwEAEAAICHCAAAADxEAAAA4CECAAAADxEAAAB4iAAAAMBDBAAAAB4iAAAA8BABAACAhwgAAAA8RAAAAOAhAgAAAA8RAAAAeIgAAADAQwQAAAAeIgAAAPAQAQAAgIcIAAAAPEQAAADgIQIAAAAPEQAAAHiIAAAAwEMEAAAAHiIAAADwEAEAAICHCAAAADxEAAAA4CECAAAADxEAAAB4iAAAAMBDBAAAAB4iAAAA8BABAACAhwgAAAA8RAAAAOAhAgAAAA8RAAAAeIgAAADAQwQAAAAeIgAAAPAQAQAAgIcIAAAAPEQAAADgIQIAAAAPEQAAAHiIAAAAwEMEAAAAHiIAAADwEAEAAICHCAAAADxEAAAA4CECAAAADxEAAAB4iAAAAMBDBAAAAB4iAAAA8BABAACAhwgAAAA8RAAAAOAhAgAAAA8RAAAAeIgAAADAQwQAAAAeIgAAAPAQAQAAgIcIAAAAPEQAAADgIQIAAAAPEQAAAHiIAAAAwEMEAAAAHiIAAADwEAEAAICHCAAAADxEAAAA4CECAAAADxEAAAB4iAAAAMBDBAAAAB4iAAAA8BABAACAhwgAAAA8RAAAAOAhAgAAAA8RAAAAeIgAAADAQwQAAAAeIgAAAPAQAQAAgIcIAAAAPEQAAADgIQIAAAAPEQAAAHiIAAAAwEMEAAAAHiIAAADwEAEAAICHCAAAADxEAAAA4CECAAAADxEAAAB4iAAAAMBDBAAAAB4iAAAA8BABAACAhwgAAAA8RAAAAOAhAgAAAA8RAAAAeIgAAADAQwQAAAAeIgAAAPAQAQAAgIcIAAAAPEQAAADgIQIAAAAPEQAAAHiIAAAAwEMEAAAAHiIAAADw0P8DEPeU6NTsNyAAAAAASUVORK5CYII=;" vertex="1" parent="1">
          <mxGeometry x="250.56" y="407" width="71.5" height="71.5" as="geometry" />
        </mxCell>
        <mxCell id="9YNmxNu1mqhPtrFuAmMJ-15" value="" style="shape=image;verticalLabelPosition=bottom;labelBackgroundColor=default;verticalAlign=top;aspect=fixed;imageAspect=0;image=https://resilienteducator.com/wp-content/uploads/2015/09/Revising-With-Pictures-How-Word-Clouds-Help-Students-Become-Better-Writers.jpg;" vertex="1" parent="1">
          <mxGeometry x="221.06" y="500.68000000000006" width="118.69" height="66.32" as="geometry" />
        </mxCell>
        <mxCell id="9YNmxNu1mqhPtrFuAmMJ-17" value="" style="rounded=1;whiteSpace=wrap;html=1;fillColor=none;" vertex="1" parent="1">
          <mxGeometry x="110.56" y="387" width="260" height="190" as="geometry" />
        </mxCell>
        <mxCell id="9YNmxNu1mqhPtrFuAmMJ-18" value="" style="triangle;whiteSpace=wrap;html=1;rotation=-90;" vertex="1" parent="1">
          <mxGeometry x="221.06" y="572" width="40" height="70" as="geometry" />
        </mxCell>
        <mxCell id="9YNmxNu1mqhPtrFuAmMJ-19" value="" style="ellipse;whiteSpace=wrap;html=1;gradientColor=none;fillColor=#ABABAB;" vertex="1" parent="1">
          <mxGeometry x="232.81" y="377" width="15.5" height="10" as="geometry" />
        </mxCell>
        <mxCell id="9YNmxNu1mqhPtrFuAmMJ-20" value="" style="triangle;whiteSpace=wrap;html=1;rotation=-90;" vertex="1" parent="1">
          <mxGeometry x="226.94" y="589.14" width="26.38" height="42.12" as="geometry" />
        </mxCell>
        <mxCell id="9YNmxNu1mqhPtrFuAmMJ-34" style="edgeStyle=orthogonalEdgeStyle;rounded=0;orthogonalLoop=1;jettySize=auto;html=1;entryX=0.5;entryY=0;entryDx=0;entryDy=0;" edge="1" parent="1" source="9YNmxNu1mqhPtrFuAmMJ-22" target="9YNmxNu1mqhPtrFuAmMJ-33">
          <mxGeometry relative="1" as="geometry" />
        </mxCell>
        <mxCell id="9YNmxNu1mqhPtrFuAmMJ-22" value="" style="shape=image;verticalLabelPosition=bottom;labelBackgroundColor=default;verticalAlign=top;aspect=fixed;imageAspect=0;image=https://static-00.iconduck.com/assets.00/flask-icon-1594x2048-84mjydzf.png;" vertex="1" parent="1">
          <mxGeometry x="620" y="317.91" width="87.24" height="112.09" as="geometry" />
        </mxCell>
        <mxCell id="9YNmxNu1mqhPtrFuAmMJ-36" style="edgeStyle=orthogonalEdgeStyle;rounded=0;orthogonalLoop=1;jettySize=auto;html=1;entryX=0;entryY=0.5;entryDx=0;entryDy=0;" edge="1" parent="1" source="9YNmxNu1mqhPtrFuAmMJ-23" target="9YNmxNu1mqhPtrFuAmMJ-18">
          <mxGeometry relative="1" as="geometry" />
        </mxCell>
        <mxCell id="9YNmxNu1mqhPtrFuAmMJ-23" value="" style="shape=image;verticalLabelPosition=bottom;labelBackgroundColor=default;verticalAlign=top;aspect=fixed;imageAspect=0;image=https://cdn0.iconfinder.com/data/icons/logos-brands-in-colors/128/react-512.png;" vertex="1" parent="1">
          <mxGeometry x="380.56" y="630" width="150" height="150" as="geometry" />
        </mxCell>
        <mxCell id="9YNmxNu1mqhPtrFuAmMJ-25" value="&lt;b&gt;&lt;font style=&quot;font-size: 15px;&quot;&gt;LangChain&lt;/font&gt;&lt;/b&gt;" style="ellipse;whiteSpace=wrap;html=1;fillColor=#d5e8d4;strokeColor=#82b366;" vertex="1" parent="1">
          <mxGeometry x="835" y="350" width="120" height="80" as="geometry" />
        </mxCell>
        <mxCell id="9YNmxNu1mqhPtrFuAmMJ-28" value="" style="shape=flexArrow;endArrow=classic;startArrow=classic;html=1;rounded=0;fillColor=#e1d5e7;strokeColor=#9673a6;" edge="1" parent="1">
          <mxGeometry width="100" height="100" relative="1" as="geometry">
            <mxPoint x="720" y="390" as="sourcePoint" />
            <mxPoint x="820" y="390" as="targetPoint" />
            <Array as="points">
              <mxPoint x="840" y="390" />
            </Array>
          </mxGeometry>
        </mxCell>
        <mxCell id="9YNmxNu1mqhPtrFuAmMJ-30" style="edgeStyle=orthogonalEdgeStyle;rounded=0;orthogonalLoop=1;jettySize=auto;html=1;entryX=0.01;entryY=0.632;entryDx=0;entryDy=0;entryPerimeter=0;" edge="1" parent="1" source="9YNmxNu1mqhPtrFuAmMJ-3" target="9YNmxNu1mqhPtrFuAmMJ-5">
          <mxGeometry relative="1" as="geometry" />
        </mxCell>
        <mxCell id="9YNmxNu1mqhPtrFuAmMJ-35" style="edgeStyle=orthogonalEdgeStyle;rounded=0;orthogonalLoop=1;jettySize=auto;html=1;exitX=0.5;exitY=1;exitDx=0;exitDy=0;" edge="1" parent="1" source="9YNmxNu1mqhPtrFuAmMJ-33" target="9YNmxNu1mqhPtrFuAmMJ-23">
          <mxGeometry relative="1" as="geometry" />
        </mxCell>
        <mxCell id="9YNmxNu1mqhPtrFuAmMJ-33" value="" style="shape=image;verticalLabelPosition=bottom;labelBackgroundColor=default;verticalAlign=top;aspect=fixed;imageAspect=0;image=https://cdn-icons-png.flaticon.com/512/136/136443.png;" vertex="1" parent="1">
          <mxGeometry x="608.4599999999999" y="569.68" width="110.32" height="110.32" as="geometry" />
        </mxCell>
        <mxCell id="9YNmxNu1mqhPtrFuAmMJ-37" value="" style="shape=image;verticalLabelPosition=bottom;labelBackgroundColor=default;verticalAlign=top;aspect=fixed;imageAspect=0;image=https://t3.ftcdn.net/jpg/07/41/08/12/360_F_741081263_IWWaoUZLB20TnrueRp9HITVQMgoXVbN2.jpg;" vertex="1" parent="1">
          <mxGeometry x="800" y="110" width="170" height="170" as="geometry" />
        </mxCell>
        <mxCell id="9YNmxNu1mqhPtrFuAmMJ-38" value="" style="shape=flexArrow;endArrow=classic;startArrow=classic;html=1;rounded=0;fillColor=#e1d5e7;strokeColor=#9673a6;" edge="1" parent="1">
          <mxGeometry width="100" height="100" relative="1" as="geometry">
            <mxPoint x="894.29" y="340" as="sourcePoint" />
            <mxPoint x="894.29" y="270" as="targetPoint" />
            <Array as="points">
              <mxPoint x="894.29" y="310" />
            </Array>
          </mxGeometry>
        </mxCell>
        <mxCell id="9YNmxNu1mqhPtrFuAmMJ-41" style="edgeStyle=orthogonalEdgeStyle;rounded=0;orthogonalLoop=1;jettySize=auto;html=1;exitX=0.5;exitY=0;exitDx=0;exitDy=0;" edge="1" parent="1" source="9YNmxNu1mqhPtrFuAmMJ-39" target="9YNmxNu1mqhPtrFuAmMJ-25">
          <mxGeometry relative="1" as="geometry" />
        </mxCell>
        <mxCell id="9YNmxNu1mqhPtrFuAmMJ-39" value="" style="shape=image;verticalLabelPosition=bottom;labelBackgroundColor=default;verticalAlign=top;aspect=fixed;imageAspect=0;image=https://studyopedia.com/wp-content/uploads/2023/07/Python-Libraries-Studyopedia.png;" vertex="1" parent="1">
          <mxGeometry x="810.25" y="492" width="169.49" height="80" as="geometry" />
        </mxCell>
        <mxCell id="9YNmxNu1mqhPtrFuAmMJ-40" value="" style="shape=image;verticalLabelPosition=bottom;labelBackgroundColor=default;verticalAlign=top;aspect=fixed;imageAspect=0;image=https://images.icon-icons.com/2699/PNG/512/nvidia_logo_icon_169904.png;" vertex="1" parent="1">
          <mxGeometry x="824" y="589.14" width="146" height="73" as="geometry" />
        </mxCell>
        <mxCell id="9YNmxNu1mqhPtrFuAmMJ-43" value="" style="endArrow=none;dashed=1;html=1;dashPattern=1 3;strokeWidth=5;rounded=0;endSize=11;" edge="1" parent="1">
          <mxGeometry width="50" height="50" relative="1" as="geometry">
            <mxPoint x="590" y="810" as="sourcePoint" />
            <mxPoint x="590" y="40" as="targetPoint" />
          </mxGeometry>
        </mxCell>
        <mxCell id="9YNmxNu1mqhPtrFuAmMJ-44" value="&lt;b&gt;&lt;font style=&quot;font-size: 19px;&quot;&gt;Frontend&lt;/font&gt;&lt;/b&gt;" style="text;html=1;align=center;verticalAlign=middle;whiteSpace=wrap;rounded=0;" vertex="1" parent="1">
          <mxGeometry x="193" y="780" width="60" height="30" as="geometry" />
        </mxCell>
        <mxCell id="9YNmxNu1mqhPtrFuAmMJ-45" value="&lt;b&gt;&lt;font style=&quot;font-size: 19px;&quot;&gt;Backend&lt;/font&gt;&lt;/b&gt;" style="text;html=1;align=center;verticalAlign=middle;whiteSpace=wrap;rounded=0;" vertex="1" parent="1">
          <mxGeometry x="870" y="760" width="60" height="30" as="geometry" />
        </mxCell>
      </root>
    </mxGraphModel>
  </diagram>
</mxfile>
